STARTFONT 2.1
COMMENT This font was automatically resized by bdfresize-1.4
COMMENT   mag_x = 2/5, mag_y = 2/5, blackness = 4
FONT -CBS-Song-Medium-R-Normal-Fantizi-16-160-75-75-C-160-CNS11643.1992-6
SIZE 16 80 80
FONTBOUNDINGBOX 16 16 0 -2
STARTPROPERTIES 23
FONTNAME_REGISTRY ""
FOUNDRY "CBS"
FAMILY_NAME "Song"
WEIGHT_NAME "Medium"
SLANT "R"
SETWIDTH_NAME "Normal"
ADD_STYLE_NAME "Fantizi"
PIXEL_SIZE 16
POINT_SIZE 160
RESOLUTION_X 75
RESOLUTION_Y 75
SPACING "C"
AVERAGE_WIDTH 160
CHARSET_REGISTRY "CNS11643.1992"
CHARSET_ENCODING "6"
COPYRIGHT "March 1994 by Central Bureau of Standards, Ministry of Economy, ROC"
WEIGHT 19329
RESOLUTION 110
X_HEIGHT 34
QUAD_WIDTH 40
DEFAULT_CHAR 32382
FONT_ASCENT 14
FONT_DESCENT 2
ENDPROPERTIES
CHARS 6389
STARTCHAR 2121
ENCODING 8481
SWIDTH 362 0
DWIDTH 16 0
BBX 16 16 0 -2
BITMAP
0000
0010
7FF8
0018
0018
0018
0018
0018
0018
0018
0018
000C
000C
0006
0003
0000
ENDCHAR
STARTCHAR 2122
ENCODING 8482
SWIDTH 362 0
DWIDTH 16 0
BBX 16 16 0 -2
BITMAP
0700
0600
0600
0600
07F0
0610
0610
0610
0610
061E
061F
0600
0600
0600
0600
0600
ENDCHAR
STARTCHAR 2123
ENCODING 8483
SWIDTH 362 0
DWIDTH 16 0
BBX 16 16 0 -2
BITMAP
0000
0000
001C
1018
0C18
0630
03E0
01E0
01E0
03F0
0738
0E1C
180C
6000
0000
0000
ENDCHAR
STARTCHAR 2124
ENCODING 8484
SWIDTH 362 0
DWIDTH 16 0
BBX 16 16 0 -2
BITMAP
000C
180C
1808
1808
1808
1808
1808
1808
1FF8
0808
0008
0018
0030
0060
00C0
0180
ENDCHAR
STARTCHAR 2125
ENCODING 8485
SWIDTH 362 0
DWIDTH 16 0
BBX 16 16 0 -2
BITMAP
0806
7C7E
0C06
0804
180C
1018
3030
2030
6060
4040
C0C0
8080
8281
C2C1
FEFF
3E3F
ENDCHAR
STARTCHAR 2126
ENCODING 8486
SWIDTH 362 0
DWIDTH 16 0
BBX 16 16 0 -2
BITMAP
0180
6180
6180
6180
6180
6180
6180
6180
7F80
0180
0180
0181
0181
0183
01FF
00FE
ENDCHAR
STARTCHAR 2127
ENCODING 8487
SWIDTH 362 0
DWIDTH 16 0
BBX 16 16 0 -2
BITMAP
0000
0000
000C
0000
0000
0000
0000
0000
0000
0000
0000
0002
0007
0000
0000
0000
ENDCHAR
STARTCHAR 2128
ENCODING 8488
SWIDTH 362 0
DWIDTH 16 0
BBX 16 16 0 -2
BITMAP
0000
0000
0003
0000
0000
0000
0000
0000
0000
0000
0000
0000
000C
0000
0000
0000
ENDCHAR
STARTCHAR 2129
ENCODING 8489
SWIDTH 362 0
DWIDTH 16 0
BBX 16 16 0 -2
BITMAP
0000
0000
0006
0000
0000
0000
0000
0000
0000
0000
0000
0000
0006
0000
0000
0000
ENDCHAR
STARTCHAR 212a
ENCODING 8490
SWIDTH 362 0
DWIDTH 16 0
BBX 16 16 0 -2
BITMAP
0700
0600
0600
0600
063E
07E0
7E00
0600
0600
0600
0600
0601
0603
0602
03FF
0000
ENDCHAR
STARTCHAR 212b
ENCODING 8491
SWIDTH 362 0
DWIDTH 16 0
BBX 16 16 0 -2
BITMAP
0000
FF00
6300
6300
6300
6300
6304
630C
630C
61FC
6000
6000
6000
6000
7FFF
0000
ENDCHAR
STARTCHAR 212c
ENCODING 8492
SWIDTH 362 0
DWIDTH 16 0
BBX 16 16 0 -2
BITMAP
0700
0600
0600
060C
07FC
060C
060C
060C
060C
0608
0600
0600
0600
0600
0600
0600
ENDCHAR
STARTCHAR 212d
ENCODING 8493
SWIDTH 362 0
DWIDTH 16 0
BBX 16 16 0 -2
BITMAP
0006
7FFE
0186
018C
0188
0180
0180
0180
0180
0180
0180
0180
0180
0180
0182
FFFF
ENDCHAR
STARTCHAR 212e
ENCODING 8494
SWIDTH 362 0
DWIDTH 16 0
BBX 16 16 0 -2
BITMAP
0002
7FFF
2080
2080
6180
6180
618E
4306
0306
0306
0206
0606
0C06
180C
30FC
C018
ENDCHAR
STARTCHAR 212f
ENCODING 8495
SWIDTH 362 0
DWIDTH 16 0
BBX 16 16 0 -2
BITMAP
0010
1FF8
1818
1818
1818
1818
1818
1818
1818
1818
1818
1818
1818
1818
181B
0000
ENDCHAR
STARTCHAR 2130
ENCODING 8496
SWIDTH 362 0
DWIDTH 16 0
BBX 16 16 0 -2
BITMAP
0180
0180
0180
2188
3FF8
2180
6180
6180
6186
4180
0180
0180
0180
0180
0180
0100
ENDCHAR
STARTCHAR 2131
ENCODING 8497
SWIDTH 362 0
DWIDTH 16 0
BBX 16 16 0 -2
BITMAP
0600
0600
0600
0600
7FF0
0610
1610
0E10
0710
0790
0C90
0C10
0811
1811
301F
C01F
ENDCHAR
STARTCHAR 2132
ENCODING 8498
SWIDTH 362 0
DWIDTH 16 0
BBX 16 16 0 -2
BITMAP
0010
7FF8
0610
0610
0610
0610
0610
0790
06D0
0450
0C10
0C10
0811
1811
301F
C01F
ENDCHAR
STARTCHAR 2133
ENCODING 8499
SWIDTH 362 0
DWIDTH 16 0
BBX 16 16 0 -2
BITMAP
0070
07F0
7C00
0C00
0C20
7FF0
0C30
0C62
0C7F
0C03
0802
1802
3002
2006
407C
8008
ENDCHAR
STARTCHAR 2134
ENCODING 8500
SWIDTH 362 0
DWIDTH 16 0
BBX 16 16 0 -2
BITMAP
0002
FFFF
0180
0100
0100
0100
0380
0380
02C0
0640
0460
0C30
1838
301C
600F
C002
ENDCHAR
STARTCHAR 2135
ENCODING 8501
SWIDTH 362 0
DWIDTH 16 0
BBX 16 16 0 -2
BITMAP
0180
0180
03C0
0660
0C38
198F
E182
0180
0180
0180
0180
0180
0180
0180
0F80
0300
ENDCHAR
STARTCHAR 2136
ENCODING 8502
SWIDTH 362 0
DWIDTH 16 0
BBX 16 16 0 -2
BITMAP
0200
0300
0100
0080
01C0
01C0
0360
0220
0630
0C18
180C
3007
C002
0000
0006
0000
ENDCHAR
STARTCHAR 2137
ENCODING 8503
SWIDTH 362 0
DWIDTH 16 0
BBX 16 16 0 -2
BITMAP
0080
0080
00C0
00C0
0C40
0C40
0C60
0863
FFFF
1830
1830
3018
301C
600E
4007
8002
ENDCHAR
STARTCHAR 2138
ENCODING 8504
SWIDTH 362 0
DWIDTH 16 0
BBX 16 16 0 -2
BITMAP
0006
7FFE
0106
0106
0106
0106
0F06
0706
0306
0386
02C6
0646
0406
080C
307C
6018
ENDCHAR
STARTCHAR 2139
ENCODING 8505
SWIDTH 362 0
DWIDTH 16 0
BBX 16 16 0 -2
BITMAP
1800
1000
3000
3000
2000
7FFE
0106
0106
0306
0306
0206
0606
0C06
1806
307C
C008
ENDCHAR
STARTCHAR 213a
ENCODING 8506
SWIDTH 362 0
DWIDTH 16 0
BBX 16 16 0 -2
BITMAP
0180
0100
2100
3104
3FFE
6106
4306
8306
0306
0206
0606
0406
0C06
180C
30FC
6018
ENDCHAR
STARTCHAR 213b
ENCODING 8507
SWIDTH 362 0
DWIDTH 16 0
BBX 16 16 0 -2
BITMAP
0006
3FFE
1818
1818
1818
1818
1818
1818
1818
18F8
1F98
1C18
0818
0018
0018
0010
ENDCHAR
STARTCHAR 213c
ENCODING 8508
SWIDTH 362 0
DWIDTH 16 0
BBX 16 16 0 -2
BITMAP
0002
FFFF
0180
0100
0300
0300
0200
0600
0620
0C10
0C18
180C
107C
3FC6
1806
0000
ENDCHAR
STARTCHAR 213d
ENCODING 8509
SWIDTH 362 0
DWIDTH 16 0
BBX 16 16 0 -2
BITMAP
0000
0000
FC70
0460
0460
0460
0468
044C
04C6
048E
05FE
05C1
0401
0403
07FF
0000
ENDCHAR
STARTCHAR 213e
ENCODING 8510
SWIDTH 362 0
DWIDTH 16 0
BBX 16 16 0 -2
BITMAP
0000
1FFE
0006
0006
0006
0006
1006
1FFE
1804
1800
1800
1000
3000
3000
6000
C000
ENDCHAR
STARTCHAR 213f
ENCODING 8511
SWIDTH 362 0
DWIDTH 16 0
BBX 16 16 0 -2
BITMAP
0C70
0C60
0C60
0C60
0C60
0C62
FFFE
0C60
0C60
0C60
0860
1860
1860
1060
207F
403F
ENDCHAR
STARTCHAR 2140
ENCODING 8512
SWIDTH 362 0
DWIDTH 16 0
BBX 16 16 0 -2
BITMAP
0700
0630
0618
0608
0600
7FFF
0600
0600
0600
0600
0600
0200
0300
0180
00FF
0000
ENDCHAR
STARTCHAR 2141
ENCODING 8513
SWIDTH 362 0
DWIDTH 16 0
BBX 16 16 0 -2
BITMAP
0030
3030
1860
0CC3
FFFF
0400
0C00
0C18
0FF8
0018
0018
0018
0018
0018
03F0
0060
ENDCHAR
STARTCHAR 2142
ENCODING 8514
SWIDTH 362 0
DWIDTH 16 0
BBX 16 16 0 -2
BITMAP
1038
1818
1818
1818
1818
1818
1818
1FF8
1818
1818
1818
1818
1818
1818
181B
0000
ENDCHAR
STARTCHAR 2143
ENCODING 8515
SWIDTH 362 0
DWIDTH 16 0
BBX 16 16 0 -2
BITMAP
0018
00F8
1F80
1000
1000
1FE0
1060
1060
10CC
104C
100C
1008
1018
1010
3033
0000
ENDCHAR
STARTCHAR 2144
ENCODING 8516
SWIDTH 362 0
DWIDTH 16 0
BBX 16 16 0 -2
BITMAP
0010
7FF8
0830
0830
0FA0
0862
087F
08C2
0FE2
1842
1842
13C2
31C2
2006
407C
8008
ENDCHAR
STARTCHAR 2145
ENCODING 8517
SWIDTH 362 0
DWIDTH 16 0
BBX 16 16 0 -2
BITMAP
0008
007C
0780
3180
0180
0180
0187
3F86
0186
0186
0186
0186
0186
0186
7FFE
0002
ENDCHAR
STARTCHAR 2146
ENCODING 8518
SWIDTH 362 0
DWIDTH 16 0
BBX 16 16 0 -2
BITMAP
700C
606C
6C48
6C48
6C48
6C48
6C48
6C48
6FC8
6848
6048
604C
604D
404D
C047
8003
ENDCHAR
STARTCHAR 2147
ENCODING 8519
SWIDTH 362 0
DWIDTH 16 0
BBX 16 16 0 -2
BITMAP
00F8
3F80
0180
0180
0180
7FFF
0380
0380
0780
0580
0D80
1980
3180
6180
8180
0100
ENDCHAR
STARTCHAR 2148
ENCODING 8520
SWIDTH 362 0
DWIDTH 16 0
BBX 16 16 0 -2
BITMAP
301C
3198
3118
3198
3198
31D8
3158
3158
3138
3138
3118
311F
211B
61D8
4198
8018
ENDCHAR
STARTCHAR 2149
ENCODING 8521
SWIDTH 362 0
DWIDTH 16 0
BBX 16 16 0 -2
BITMAP
00C0
01F0
0180
0180
0180
0180
6180
C180
FFFF
0180
0180
0180
0300
0600
1800
1800
ENDCHAR
STARTCHAR 214a
ENCODING 8522
SWIDTH 362 0
DWIDTH 16 0
BBX 16 16 0 -2
BITMAP
0004
7FFE
0000
000C
0818
0638
0370
01E0
01E0
03B0
0618
1C0C
6006
0000
0003
0000
ENDCHAR
STARTCHAR 214b
ENCODING 8523
SWIDTH 362 0
DWIDTH 16 0
BBX 16 16 0 -2
BITMAP
0C02
19FF
1806
1018
3030
3030
7030
D030
9030
1030
1030
1030
1030
1030
11F0
1060
ENDCHAR
STARTCHAR 214c
ENCODING 8524
SWIDTH 362 0
DWIDTH 16 0
BBX 16 16 0 -2
BITMAP
00C0
60C0
4120
4210
440C
4807
7003
4000
4008
7FFC
4000
4000
4000
4000
7FFE
7FFF
ENDCHAR
STARTCHAR 214d
ENCODING 8525
SWIDTH 362 0
DWIDTH 16 0
BBX 16 16 0 -2
BITMAP
0004
1FFC
1000
1000
1000
1004
3FFE
0000
0C30
0C30
0C30
0C30
0831
1831
303F
C01F
ENDCHAR
STARTCHAR 214e
ENCODING 8526
SWIDTH 362 0
DWIDTH 16 0
BBX 16 16 0 -2
BITMAP
0180
00C0
0C40
0C20
1838
311F
6087
C0C0
0C40
0C40
0860
1830
1038
301C
600F
C006
ENDCHAR
STARTCHAR 214f
ENCODING 8527
SWIDTH 362 0
DWIDTH 16 0
BBX 16 16 0 -2
BITMAP
4006
7FFE
4006
4836
4FF6
4836
4836
4836
4836
4836
4836
4836
4836
4826
401E
4006
ENDCHAR
STARTCHAR 2150
ENCODING 8528
SWIDTH 362 0
DWIDTH 16 0
BBX 16 16 0 -2
BITMAP
0180
0180
0180
4186
7FFE
4186
4386
43C6
4246
4666
4C36
581E
700E
4006
401E
400E
ENDCHAR
STARTCHAR 2151
ENCODING 8529
SWIDTH 362 0
DWIDTH 16 0
BBX 16 16 0 -2
BITMAP
0180
0300
0A18
1FF8
1818
1818
1818
1818
FFFF
1818
1818
1018
3018
3018
6078
C030
ENDCHAR
STARTCHAR 2152
ENCODING 8530
SWIDTH 362 0
DWIDTH 16 0
BBX 16 16 0 -2
BITMAP
3000
3038
37F8
3000
2000
3FFE
1FFE
0000
0C30
0C30
0C30
0C30
0831
1831
303F
C01F
ENDCHAR
STARTCHAR 2153
ENCODING 8531
SWIDTH 362 0
DWIDTH 16 0
BBX 16 16 0 -2
BITMAP
4002
6186
4186
4186
4186
4196
5FFE
4186
4186
4186
4186
4186
4186
4006
C006
4006
ENDCHAR
STARTCHAR 2154
ENCODING 8532
SWIDTH 362 0
DWIDTH 16 0
BBX 16 16 0 -2
BITMAP
4002
6186
4186
4186
4106
4306
4306
4646
4626
4C36
5DF6
5F1E
4806
4006
FFFE
0006
ENDCHAR
STARTCHAR 2155
ENCODING 8533
SWIDTH 362 0
DWIDTH 16 0
BBX 16 16 0 -2
BITMAP
0600
FE18
2610
2610
2630
2630
2620
2620
2660
2660
2644
66C6
6682
47FB
DCC1
8800
ENDCHAR
STARTCHAR 2156
ENCODING 8534
SWIDTH 362 0
DWIDTH 16 0
BBX 16 16 0 -2
BITMAP
3006
3006
2066
2066
3066
3866
2C66
2666
2366
2066
2066
2046
2006
2006
201E
200C
ENDCHAR
STARTCHAR 2157
ENCODING 8535
SWIDTH 362 0
DWIDTH 16 0
BBX 16 16 0 -2
BITMAP
6000
63FF
6043
6042
6042
7042
6842
6C42
66C2
60C2
6082
6182
6106
6306
667C
4C18
ENDCHAR
STARTCHAR 2158
ENCODING 8536
SWIDTH 362 0
DWIDTH 16 0
BBX 16 16 0 -2
BITMAP
3030
3030
3030
3030
3633
3333
3233
3233
3233
3233
3233
3233
2223
6666
5EDE
8C8C
ENDCHAR
STARTCHAR 2159
ENCODING 8537
SWIDTH 362 0
DWIDTH 16 0
BBX 16 16 0 -2
BITMAP
0000
1818
0C30
0620
02C3
1800
1800
1800
1800
1800
1800
1800
1800
1800
1FFE
0000
ENDCHAR
STARTCHAR 215a
ENCODING 8538
SWIDTH 362 0
DWIDTH 16 0
BBX 16 16 0 -2
BITMAP
0C30
0C30
0C30
0C30
0C30
0C33
FFFF
0C30
0C30
0C30
0C30
0C30
0CF0
0FB0
3830
1030
ENDCHAR
STARTCHAR 215b
ENCODING 8539
SWIDTH 362 0
DWIDTH 16 0
BBX 16 16 0 -2
BITMAP
4082
60FF
4082
4082
4082
4C82
7C82
4082
4082
4082
4086
408E
4284
4480
7E80
0080
ENDCHAR
STARTCHAR 215c
ENCODING 8540
SWIDTH 362 0
DWIDTH 16 0
BBX 16 16 0 -2
BITMAP
0300
0300
2310
7FF8
6318
6318
6318
6318
6218
6698
64D8
6DD8
7F79
4C19
C01F
800F
ENDCHAR
STARTCHAR 215d
ENCODING 8541
SWIDTH 362 0
DWIDTH 16 0
BBX 16 16 0 -2
BITMAP
0300
0300
7300
6310
FFF8
6318
6318
6318
6218
6698
64D8
6DD8
7F79
4C19
C01F
800F
ENDCHAR
STARTCHAR 215e
ENCODING 8542
SWIDTH 362 0
DWIDTH 16 0
BBX 16 16 0 -2
BITMAP
0018
0418
7E18
07D8
4598
2598
2D98
3D98
1998
19FF
1C18
3C18
2618
6019
C01F
000F
ENDCHAR
STARTCHAR 215f
ENCODING 8543
SWIDTH 362 0
DWIDTH 16 0
BBX 16 16 0 -2
BITMAP
0008
1FFC
0818
0430
0260
01C0
03E0
0778
1C1F
F306
0600
0610
0C08
18FC
3F06
1800
ENDCHAR
STARTCHAR 2160
ENCODING 8544
SWIDTH 362 0
DWIDTH 16 0
BBX 16 16 0 -2
BITMAP
0600
0600
0630
0C30
0C31
1833
303F
C008
1FF8
0818
0630
0360
01C0
07F0
1C3F
F00E
ENDCHAR
STARTCHAR 2161
ENCODING 8545
SWIDTH 362 0
DWIDTH 16 0
BBX 16 16 0 -2
BITMAP
0020
3FF0
0820
0860
0860
08FC
1C18
1E18
1A10
1330
31E0
30E0
21E0
63B8
4E0F
B806
ENDCHAR
STARTCHAR 2162
ENCODING 8546
SWIDTH 362 0
DWIDTH 16 0
BBX 16 16 0 -2
BITMAP
0C02
CDFF
CC82
CC82
CC46
CC46
CC46
CE64
DC2C
FC38
4C18
0C38
186C
30CE
6187
C303
ENDCHAR
STARTCHAR 2163
ENCODING 8547
SWIDTH 362 0
DWIDTH 16 0
BBX 16 16 0 -2
BITMAP
0600
7E00
0D02
0DFF
1982
1182
3182
6182
6182
C182
C1FE
8102
8001
C001
FFFF
3FFF
ENDCHAR
STARTCHAR 2164
ENCODING 8548
SWIDTH 362 0
DWIDTH 16 0
BBX 16 16 0 -2
BITMAP
0000
3FFC
200C
200C
200C
240C
230C
21CC
20CC
204C
200C
200C
200C
3FFC
200C
0000
ENDCHAR
STARTCHAR 2165
ENCODING 8549
SWIDTH 362 0
DWIDTH 16 0
BBX 16 16 0 -2
BITMAP
4006
7FFE
4006
4FF6
4066
40C6
4306
4606
4C06
580E
580E
5FFE
4FFE
4006
7FFE
4002
ENDCHAR
STARTCHAR 2166
ENCODING 8550
SWIDTH 362 0
DWIDTH 16 0
BBX 16 16 0 -2
BITMAP
4006
7FFE
4006
4036
5FF6
4036
4036
4036
4036
4036
4016
401E
400E
4006
7FFE
4002
ENDCHAR
STARTCHAR 2167
ENCODING 8551
SWIDTH 362 0
DWIDTH 16 0
BBX 16 16 0 -2
BITMAP
0180
0100
0100
3FF8
0118
0118
0118
0318
FFFF
0300
3E00
0600
0DC0
1878
301F
C006
ENDCHAR
STARTCHAR 2168
ENCODING 8552
SWIDTH 362 0
DWIDTH 16 0
BBX 16 16 0 -2
BITMAP
0180
0180
0180
0180
0186
0180
0180
0180
0340
0340
0660
07F0
0C18
180C
3007
C002
ENDCHAR
STARTCHAR 2169
ENCODING 8553
SWIDTH 362 0
DWIDTH 16 0
BBX 16 16 0 -2
BITMAP
0300
0188
7FFC
600C
6008
7828
6448
67C8
6AA8
7AA8
7AA8
6EEC
644D
4007
C007
8003
ENDCHAR
STARTCHAR 216a
ENCODING 8554
SWIDTH 362 0
DWIDTH 16 0
BBX 16 16 0 -2
BITMAP
0018
0010
3010
3010
FFFF
3010
3010
2010
0C10
0610
0310
0110
0010
0010
00F0
0020
ENDCHAR
STARTCHAR 216b
ENCODING 8555
SWIDTH 362 0
DWIDTH 16 0
BBX 16 16 0 -2
BITMAP
0002
FFFF
0180
0180
0180
1980
1998
118C
3186
3186
6183
4181
8180
0180
0F80
0300
ENDCHAR
STARTCHAR 216c
ENCODING 8556
SWIDTH 362 0
DWIDTH 16 0
BBX 16 16 0 -2
BITMAP
0180
0180
0184
0186
3186
3186
3186
3186
31FE
3184
3180
3F80
0180
0180
0182
FFFF
ENDCHAR
STARTCHAR 216d
ENCODING 8557
SWIDTH 362 0
DWIDTH 16 0
BBX 16 16 0 -2
BITMAP
0000
0000
0C67
0C46
18C6
1084
318C
231B
FFFF
3108
188C
08C6
0C63
0C63
0420
0000
ENDCHAR
STARTCHAR 216e
ENCODING 8558
SWIDTH 362 0
DWIDTH 16 0
BBX 16 16 0 -2
BITMAP
0006
7FFE
0600
0600
0600
0600
0600
0608
07F8
0600
0600
0600
0600
0600
0606
0000
ENDCHAR
STARTCHAR 216f
ENCODING 8559
SWIDTH 362 0
DWIDTH 16 0
BBX 16 16 0 -2
BITMAP
0006
7FFE
0600
0600
0600
0600
0600
07F8
0618
0618
0618
0618
0618
0618
061A
0000
ENDCHAR
STARTCHAR 2170
ENCODING 8560
SWIDTH 362 0
DWIDTH 16 0
BBX 16 16 0 -2
BITMAP
0004
7FFE
0180
01F8
018C
0186
0184
018C
3FF0
6180
4180
6180
3F80
0180
0183
0000
ENDCHAR
STARTCHAR 2171
ENCODING 8561
SWIDTH 362 0
DWIDTH 16 0
BBX 16 16 0 -2
BITMAP
0004
7FFE
0180
0180
0180
0180
0183
3000
3000
3000
3000
3000
3002
3002
3FFE
0000
ENDCHAR
STARTCHAR 2172
ENCODING 8562
SWIDTH 362 0
DWIDTH 16 0
BBX 16 16 0 -2
BITMAP
0300
0300
0600
0C70
18C0
0F80
0300
0630
1818
3FCC
390C
0100
0100
0100
0100
0100
ENDCHAR
STARTCHAR 2173
ENCODING 8563
SWIDTH 362 0
DWIDTH 16 0
BBX 16 16 0 -2
BITMAP
0002
FFFF
0402
0602
0C02
18C2
3182
1F02
0E02
0C62
3032
7F3A
701A
0006
007C
0008
ENDCHAR
STARTCHAR 2174
ENCODING 8564
SWIDTH 362 0
DWIDTH 16 0
BBX 16 16 0 -2
BITMAP
1C18
1810
1810
1810
1810
1A13
FE7F
1810
1810
1810
1810
1810
1010
3010
2010
4010
ENDCHAR
STARTCHAR 2175
ENCODING 8565
SWIDTH 362 0
DWIDTH 16 0
BBX 16 16 0 -2
BITMAP
0C30
0C30
0C30
0C30
0C30
0C33
FFFF
0C30
0C30
3C30
0C30
1E30
1A30
1030
2030
4030
ENDCHAR
STARTCHAR 2176
ENCODING 8566
SWIDTH 362 0
DWIDTH 16 0
BBX 16 16 0 -2
BITMAP
0030
0036
0032
FFFF
3030
3030
3030
2030
6190
60D0
0098
0098
0089
018D
0F07
0203
ENDCHAR
STARTCHAR 2177
ENCODING 8567
SWIDTH 362 0
DWIDTH 16 0
BBX 16 16 0 -2
BITMAP
0010
1FF8
0018
1FF8
0018
001B
FFFF
0400
0C0C
0C0C
0004
0004
000C
000C
00F8
0030
ENDCHAR
STARTCHAR 2178
ENCODING 8568
SWIDTH 362 0
DWIDTH 16 0
BBX 16 16 0 -2
BITMAP
0008
3FFC
0008
0008
3FF8
3008
2000
7FFC
0004
0804
0C04
0604
020C
000C
00F8
0030
ENDCHAR
STARTCHAR 2179
ENCODING 8569
SWIDTH 362 0
DWIDTH 16 0
BBX 16 16 0 -2
BITMAP
0008
3FFC
0008
0008
3FF8
3008
2000
7FFC
0004
0004
0064
0004
000C
000C
00F8
0030
ENDCHAR
STARTCHAR 217a
ENCODING 8570
SWIDTH 362 0
DWIDTH 16 0
BBX 16 16 0 -2
BITMAP
0008
3FFC
0108
0108
3308
3008
2000
6000
7FFC
0004
0004
000C
000C
000C
00F8
0030
ENDCHAR
STARTCHAR 217b
ENCODING 8571
SWIDTH 362 0
DWIDTH 16 0
BBX 16 16 0 -2
BITMAP
0008
3FFC
0008
0008
3008
30C8
20C0
60C0
7FFC
0004
0004
000C
000C
000C
00F8
0030
ENDCHAR
STARTCHAR 217c
ENCODING 8572
SWIDTH 362 0
DWIDTH 16 0
BBX 16 16 0 -2
BITMAP
006C
3FEC
0008
0008
3FF8
3008
2000
600C
7FFE
0004
0004
000C
000C
0008
00F8
0030
ENDCHAR
STARTCHAR 217d
ENCODING 8573
SWIDTH 362 0
DWIDTH 16 0
BBX 16 16 0 -2
BITMAP
0CC0
18C0
30C0
20C0
4CC0
0CC0
18C0
30C0
30C0
70C0
90C0
10C1
10C1
10C3
10FF
107E
ENDCHAR
STARTCHAR 217e
ENCODING 8574
SWIDTH 362 0
DWIDTH 16 0
BBX 16 16 0 -2
BITMAP
0700
0600
0600
0688
164C
3664
3626
6622
0600
0600
0600
0600
0600
0600
0600
0600
ENDCHAR
STARTCHAR 2221
ENCODING 8737
SWIDTH 362 0
DWIDTH 16 0
BBX 16 16 0 -2
BITMAP
18C0
10C0
10C0
10C0
58C0
5CC0
D6C0
90C0
10C0
10C0
10C0
10C1
10C3
10C2
10FF
107E
ENDCHAR
STARTCHAR 2222
ENCODING 8738
SWIDTH 362 0
DWIDTH 16 0
BBX 16 16 0 -2
BITMAP
0030
0330
3FB0
0130
0130
0130
0130
3F30
0030
0033
FFFF
0030
0030
0030
0030
0030
ENDCHAR
STARTCHAR 2223
ENCODING 8739
SWIDTH 362 0
DWIDTH 16 0
BBX 16 16 0 -2
BITMAP
001C
3FFE
3000
3060
3060
3060
3062
3FFF
3060
3060
2060
2060
6060
4060
C060
8040
ENDCHAR
STARTCHAR 2224
ENCODING 8740
SWIDTH 362 0
DWIDTH 16 0
BBX 16 16 0 -2
BITMAP
2018
33F8
1018
0018
8810
483F
7803
1003
3003
3003
6003
E003
6002
6006
607C
2008
ENDCHAR
STARTCHAR 2225
ENCODING 8741
SWIDTH 362 0
DWIDTH 16 0
BBX 16 16 0 -2
BITMAP
0018
1FF8
1018
1018
1018
1018
1FF8
0018
0018
1FF8
1018
1018
1018
1018
3FF8
0018
ENDCHAR
STARTCHAR 2226
ENCODING 8742
SWIDTH 362 0
DWIDTH 16 0
BBX 16 16 0 -2
BITMAP
0006
7FFE
0180
0180
0180
0180
0180
3FFC
0180
0180
0180
0180
0180
0182
FFFF
0000
ENDCHAR
STARTCHAR 2227
ENCODING 8743
SWIDTH 362 0
DWIDTH 16 0
BBX 16 16 0 -2
BITMAP
0002
FFFF
0180
0180
1998
1998
1998
1998
1998
1998
1198
3199
2199
619F
C18E
0100
ENDCHAR
STARTCHAR 2228
ENCODING 8744
SWIDTH 362 0
DWIDTH 16 0
BBX 16 16 0 -2
BITMAP
0000
7FFE
6666
6666
6666
6666
6666
6666
6666
6666
6666
6666
6666
6666
667E
6004
ENDCHAR
STARTCHAR 2229
ENCODING 8745
SWIDTH 362 0
DWIDTH 16 0
BBX 16 16 0 -2
BITMAP
0000
7FFE
4666
4666
4666
4666
4466
4C66
4C6E
487E
5006
6006
4006
4006
401E
4006
ENDCHAR
STARTCHAR 222a
ENCODING 8746
SWIDTH 362 0
DWIDTH 16 0
BBX 16 16 0 -2
BITMAP
0000
0008
1FFC
0408
0308
0188
0008
FFFF
0008
0408
0308
0188
0008
0008
1FF8
0000
ENDCHAR
STARTCHAR 222b
ENCODING 8747
SWIDTH 362 0
DWIDTH 16 0
BBX 16 16 0 -2
BITMAP
0004
7FFC
0C60
1818
3008
2003
FFFF
0400
0C18
0FF8
0018
0018
0018
0018
03F0
0060
ENDCHAR
STARTCHAR 222c
ENCODING 8748
SWIDTH 362 0
DWIDTH 16 0
BBX 16 16 0 -2
BITMAP
0C20
0C30
0C20
0C20
0C20
7C3F
0C20
0C20
0C20
0C20
0C20
0C20
0C20
0C20
0C33
0000
ENDCHAR
STARTCHAR 222d
ENCODING 8749
SWIDTH 362 0
DWIDTH 16 0
BBX 16 16 0 -2
BITMAP
200C
300C
200C
200C
3FFC
200C
200C
260C
218C
20CC
204C
200C
200C
200C
3FFC
2000
ENDCHAR
STARTCHAR 222e
ENCODING 8750
SWIDTH 362 0
DWIDTH 16 0
BBX 16 16 0 -2
BITMAP
0038
07FC
3D88
1198
0990
05A2
7FFE
0300
030E
0206
0006
0006
0006
0004
007C
0018
ENDCHAR
STARTCHAR 222f
ENCODING 8751
SWIDTH 362 0
DWIDTH 16 0
BBX 16 16 0 -2
BITMAP
0180
0190
01F8
3F80
0180
3FFC
0180
0183
FFFF
0380
0780
0D80
1980
3180
C180
0100
ENDCHAR
STARTCHAR 2230
ENCODING 8752
SWIDTH 362 0
DWIDTH 16 0
BBX 16 16 0 -2
BITMAP
0018
00FC
0F80
0180
0184
3FFC
0180
0182
7FFF
0380
0340
0660
0C30
181C
3007
C003
ENDCHAR
STARTCHAR 2231
ENCODING 8753
SWIDTH 362 0
DWIDTH 16 0
BBX 16 16 0 -2
BITMAP
0038
07FC
7C00
0C60
1818
3008
6003
0600
0C00
0FF8
0018
0018
0018
0018
03F0
0060
ENDCHAR
STARTCHAR 2232
ENCODING 8754
SWIDTH 362 0
DWIDTH 16 0
BBX 16 16 0 -2
BITMAP
0C30
0C30
FFFF
0C30
0C30
0FF0
1000
1800
1800
1800
1800
1802
1806
1804
1FFE
0FFC
ENDCHAR
STARTCHAR 2233
ENCODING 8755
SWIDTH 362 0
DWIDTH 16 0
BBX 16 16 0 -2
BITMAP
0060
0160
FF60
0860
6F60
6B60
6B60
7A60
5660
D460
5660
7A60
6B61
6B61
6B7F
003F
ENDCHAR
STARTCHAR 2234
ENCODING 8756
SWIDTH 362 0
DWIDTH 16 0
BBX 16 16 0 -2
BITMAP
0C82
1983
1992
1192
3192
3192
7192
D192
9192
1192
1192
1112
1112
1312
1202
1402
ENDCHAR
STARTCHAR 2235
ENCODING 8757
SWIDTH 362 0
DWIDTH 16 0
BBX 16 16 0 -2
BITMAP
0180
03C0
0660
0C38
37F7
C00A
1FFC
0F70
0FC0
0018
01F0
0FF8
0018
0060
0180
03FE
ENDCHAR
STARTCHAR 2236
ENCODING 8758
SWIDTH 362 0
DWIDTH 16 0
BBX 16 16 0 -2
BITMAP
1C04
1BFE
1A76
3266
3266
7266
7266
B266
3266
3266
3266
3266
3667
3463
3C63
3860
ENDCHAR
STARTCHAR 2237
ENCODING 8759
SWIDTH 362 0
DWIDTH 16 0
BBX 16 16 0 -2
BITMAP
0180
01C0
0360
0E38
180F
6C06
8C0C
1800
3030
6070
00C0
0300
0C02
1802
1FFE
0FFE
ENDCHAR
STARTCHAR 2238
ENCODING 8760
SWIDTH 362 0
DWIDTH 16 0
BBX 16 16 0 -2
BITMAP
4006
7FFE
4206
4106
4186
5FFE
4806
4806
4806
4806
4C06
4FF6
47F6
4006
401E
400C
ENDCHAR
STARTCHAR 2239
ENCODING 8761
SWIDTH 362 0
DWIDTH 16 0
BBX 16 16 0 -2
BITMAP
4004
7FFE
6666
6666
6666
6666
6666
7FFE
6666
6666
6666
6666
6666
6666
667E
444C
ENDCHAR
STARTCHAR 223a
ENCODING 8762
SWIDTH 362 0
DWIDTH 16 0
BBX 16 16 0 -2
BITMAP
4006
7FFE
40C6
5CC6
58C6
58C6
58A6
59B6
5B1E
5A0E
5C06
5FF6
4FFE
4006
401E
400C
ENDCHAR
STARTCHAR 223b
ENCODING 8763
SWIDTH 362 0
DWIDTH 16 0
BBX 16 16 0 -2
BITMAP
0002
7FFF
C003
C006
8860
0FE0
0C60
0E60
0F60
0DE0
0CE0
0C60
0861
1861
307F
C03F
ENDCHAR
STARTCHAR 223c
ENCODING 8764
SWIDTH 362 0
DWIDTH 16 0
BBX 16 16 0 -2
BITMAP
0C00
0C00
0FF8
1818
3430
2260
41C0
03C0
0638
191F
E0C7
0040
0000
00E0
0F80
0400
ENDCHAR
STARTCHAR 223d
ENCODING 8765
SWIDTH 362 0
DWIDTH 16 0
BBX 16 16 0 -2
BITMAP
0002
FFFF
0000
4CCC
7EFC
64CC
64CC
64CC
64CC
64CC
64CC
67CC
648C
418D
C10F
8607
ENDCHAR
STARTCHAR 223e
ENCODING 8766
SWIDTH 362 0
DWIDTH 16 0
BBX 16 16 0 -2
BITMAP
0004
3FFC
0180
0180
0180
0183
FFFF
0180
218C
318C
218C
218C
218C
218C
318C
200C
ENDCHAR
STARTCHAR 223f
ENCODING 8767
SWIDTH 362 0
DWIDTH 16 0
BBX 16 16 0 -2
BITMAP
0100
0180
0180
01F0
1F80
6187
4186
4196
5FFE
4186
4186
4186
4186
4106
C006
4006
ENDCHAR
STARTCHAR 2240
ENCODING 8768
SWIDTH 362 0
DWIDTH 16 0
BBX 16 16 0 -2
BITMAP
0803
0403
66DA
6012
6012
6012
6012
6012
6012
6012
6012
6012
4002
C002
801E
8006
ENDCHAR
STARTCHAR 2241
ENCODING 8769
SWIDTH 362 0
DWIDTH 16 0
BBX 16 16 0 -2
BITMAP
0000
0003
01FF
0C63
7C63
1063
1063
1063
1043
1043
10C3
3CC3
E182
4306
063C
0C08
ENDCHAR
STARTCHAR 2242
ENCODING 8770
SWIDTH 362 0
DWIDTH 16 0
BBX 16 16 0 -2
BITMAP
0003
0003
4632
4332
4222
4222
4222
4222
4222
4222
4222
4222
4202
0002
001E
0006
ENDCHAR
STARTCHAR 2243
ENCODING 8771
SWIDTH 362 0
DWIDTH 16 0
BBX 16 16 0 -2
BITMAP
0600
1F03
78FF
1863
1863
1863
FF63
1863
1863
1863
1843
10C3
3082
2186
433C
8C08
ENDCHAR
STARTCHAR 2244
ENCODING 8772
SWIDTH 362 0
DWIDTH 16 0
BBX 16 16 0 -2
BITMAP
1003
1803
1032
1332
33B2
3332
3332
3332
2232
6632
7C32
0E32
1B02
3102
601E
C006
ENDCHAR
STARTCHAR 2245
ENCODING 8773
SWIDTH 362 0
DWIDTH 16 0
BBX 16 16 0 -2
BITMAP
0003
3783
359A
2592
6D92
6D12
4B12
9212
9212
4B12
6D12
2D92
3582
3682
001E
0006
ENDCHAR
STARTCHAR 2246
ENCODING 8774
SWIDTH 362 0
DWIDTH 16 0
BBX 16 16 0 -2
BITMAP
1C00
1800
1804
1FFC
3004
20C4
5FC4
80C4
00C4
1FCC
180C
1838
1811
1801
1FFF
0FFF
ENDCHAR
STARTCHAR 2247
ENCODING 8775
SWIDTH 362 0
DWIDTH 16 0
BBX 16 16 0 -2
BITMAP
1800
3000
3006
3003
6022
5FF2
C102
0102
031A
0302
0102
0102
0106
0106
017C
0018
ENDCHAR
STARTCHAR 2248
ENCODING 8776
SWIDTH 362 0
DWIDTH 16 0
BBX 16 16 0 -2
BITMAP
1800
3000
3006
3003
6602
4602
CCC2
1982
1F02
0202
0462
19F2
3E36
1016
007C
0018
ENDCHAR
STARTCHAR 2249
ENCODING 8777
SWIDTH 362 0
DWIDTH 16 0
BBX 16 16 0 -2
BITMAP
0660
0660
0660
0660
0660
0662
7E7F
0660
0660
0660
0660
0660
0661
0F63
F87F
C000
ENDCHAR
STARTCHAR 224a
ENCODING 8778
SWIDTH 362 0
DWIDTH 16 0
BBX 16 16 0 -2
BITMAP
3000
3000
3FFC
2000
3000
3FFE
1FFE
0000
0003
0660
0660
0C60
0C61
1861
307F
C03F
ENDCHAR
STARTCHAR 224b
ENCODING 8779
SWIDTH 362 0
DWIDTH 16 0
BBX 16 16 0 -2
BITMAP
0180
0100
010C
0100
0100
0103
FFFF
0180
0180
0180
7FFC
0180
0180
0180
0180
0100
ENDCHAR
STARTCHAR 224c
ENCODING 8780
SWIDTH 362 0
DWIDTH 16 0
BBX 16 16 0 -2
BITMAP
6002
61FF
6062
6062
6062
7162
79E2
68E2
6C62
6442
60C2
60C2
6182
6306
663C
4C08
ENDCHAR
STARTCHAR 224d
ENCODING 8781
SWIDTH 362 0
DWIDTH 16 0
BBX 16 16 0 -2
BITMAP
2002
7FFF
61C0
6180
618E
6186
6186
6186
6186
7FFE
6184
6180
6181
4181
C1FF
80FF
ENDCHAR
STARTCHAR 224e
ENCODING 8782
SWIDTH 362 0
DWIDTH 16 0
BBX 16 16 0 -2
BITMAP
003C
27FE
3E00
2000
2018
260C
26C8
2668
2628
2678
2618
6601
6601
4601
C7FF
83FF
ENDCHAR
STARTCHAR 224f
ENCODING 8783
SWIDTH 362 0
DWIDTH 16 0
BBX 16 16 0 -2
BITMAP
4002
7FFF
6000
67FC
601C
6030
6060
6060
6063
6060
6060
4060
4060
C060
81E0
80C0
ENDCHAR
STARTCHAR 2250
ENCODING 8784
SWIDTH 362 0
DWIDTH 16 0
BBX 16 16 0 -2
BITMAP
4002
7FFF
6040
6460
6660
6660
667E
67E6
7E66
6664
666C
4668
4641
C603
87FF
83FE
ENDCHAR
STARTCHAR 2251
ENCODING 8785
SWIDTH 362 0
DWIDTH 16 0
BBX 16 16 0 -2
BITMAP
0700
0600
0C30
1818
3FFC
318C
0180
0180
3FFC
0180
0180
FFFF
0180
0180
0180
0100
ENDCHAR
STARTCHAR 2252
ENCODING 8786
SWIDTH 362 0
DWIDTH 16 0
BBX 16 16 0 -2
BITMAP
4080
6180
4180
4300
4606
4FFF
4F43
4060
4060
40E0
40D0
4198
430F
5C06
C000
4000
ENDCHAR
STARTCHAR 2253
ENCODING 8787
SWIDTH 362 0
DWIDTH 16 0
BBX 16 16 0 -2
BITMAP
0C00
0DFE
0C86
4C86
2C84
3CC4
0C4C
0C4C
0C68
1C38
6C30
CC38
0C68
0CCE
0D87
0F02
ENDCHAR
STARTCHAR 2254
ENCODING 8788
SWIDTH 362 0
DWIDTH 16 0
BBX 16 16 0 -2
BITMAP
4400
7FFE
4606
4646
5646
5E46
4E44
466C
462C
4638
5E38
4C38
406C
40C6
4183
4301
ENDCHAR
STARTCHAR 2255
ENCODING 8789
SWIDTH 362 0
DWIDTH 16 0
BBX 16 16 0 -2
BITMAP
2006
3FFE
3000
37FC
3000
3000
37FC
320C
3218
3130
31B0
30E0
21F0
631C
4E0F
B803
ENDCHAR
STARTCHAR 2256
ENCODING 8790
SWIDTH 362 0
DWIDTH 16 0
BBX 16 16 0 -2
BITMAP
0180
2180
3FFC
218C
218C
21BC
2188
0190
1FF8
0C30
0630
0360
01C0
03E0
0C1F
F007
ENDCHAR
STARTCHAR 2257
ENCODING 8791
SWIDTH 362 0
DWIDTH 16 0
BBX 16 16 0 -2
BITMAP
0008
3018
1810
0C20
0640
3FFC
200C
200C
200C
200C
200C
200C
200C
200C
3FFC
2008
ENDCHAR
STARTCHAR 2258
ENCODING 8792
SWIDTH 362 0
DWIDTH 16 0
BBX 16 16 0 -2
BITMAP
0008
1FFC
0818
0630
03E0
03E0
0E7F
3C0E
6000
3FFC
300C
300C
300C
300C
300C
300C
ENDCHAR
STARTCHAR 2259
ENCODING 8793
SWIDTH 362 0
DWIDTH 16 0
BBX 16 16 0 -2
BITMAP
1018
1FF8
1018
1018
1018
1018
1018
1018
0000
0008
1FFC
0000
0000
0000
0003
0000
ENDCHAR
STARTCHAR 225a
ENCODING 8794
SWIDTH 362 0
DWIDTH 16 0
BBX 16 16 0 -2
BITMAP
0006
03FE
D986
CD86
C986
C9BE
C984
C980
C983
C983
C803
F803
C803
0003
007E
000C
ENDCHAR
STARTCHAR 225b
ENCODING 8795
SWIDTH 362 0
DWIDTH 16 0
BBX 16 16 0 -2
BITMAP
000C
000C
D988
D988
D988
D988
D988
D988
D988
D988
D9FF
F808
C008
0008
0008
0008
ENDCHAR
STARTCHAR 225c
ENCODING 8796
SWIDTH 362 0
DWIDTH 16 0
BBX 16 16 0 -2
BITMAP
0018
0018
D998
CD98
C998
C998
C998
C998
C998
C998
C9F8
F818
C819
0019
001F
000F
ENDCHAR
STARTCHAR 225d
ENCODING 8797
SWIDTH 362 0
DWIDTH 16 0
BBX 16 16 0 -2
BITMAP
0C00
0C20
0FF0
0860
1860
3040
20C0
7FFC
200C
200C
200C
200C
200C
200C
3FFC
2008
ENDCHAR
STARTCHAR 225e
ENCODING 8798
SWIDTH 362 0
DWIDTH 16 0
BBX 16 16 0 -2
BITMAP
0010
1018
0C30
0360
01C0
03E0
0E1C
180F
E000
1FFC
100C
1008
1008
1008
1008
1008
ENDCHAR
STARTCHAR 225f
ENCODING 8799
SWIDTH 362 0
DWIDTH 16 0
BBX 16 16 0 -2
BITMAP
0660
0660
0660
0660
7FFE
4666
4666
4466
4C66
487E
503E
6006
4006
4006
4006
4006
ENDCHAR
STARTCHAR 2260
ENCODING 8800
SWIDTH 362 0
DWIDTH 16 0
BBX 16 16 0 -2
BITMAP
3030
3030
3030
3030
FC30
3030
33FF
3030
3030
3030
3030
3C30
7030
E030
0030
0030
ENDCHAR
STARTCHAR 2261
ENCODING 8801
SWIDTH 362 0
DWIDTH 16 0
BBX 16 16 0 -2
BITMAP
0300
0300
0202
7FFF
0640
0C60
0C40
1840
30CE
60C0
C040
0040
0040
0040
00C6
0000
ENDCHAR
STARTCHAR 2262
ENCODING 8802
SWIDTH 362 0
DWIDTH 16 0
BBX 16 16 0 -2
BITMAP
0004
7FFE
0306
0306
0206
0606
0C0C
1838
3100
4180
0182
FFFF
0180
0180
0184
3FFC
ENDCHAR
STARTCHAR 2263
ENCODING 8803
SWIDTH 362 0
DWIDTH 16 0
BBX 16 16 0 -2
BITMAP
0600
0600
0FF0
1830
36E0
63C0
0E7F
780E
C630
0430
0420
0420
0C20
0C20
1820
3020
ENDCHAR
STARTCHAR 2264
ENCODING 8804
SWIDTH 362 0
DWIDTH 16 0
BBX 16 16 0 -2
BITMAP
1830
1830
1820
1F3F
31A3
3123
2323
7323
CE23
8623
0623
0C23
0C20
1820
3020
C020
ENDCHAR
STARTCHAR 2265
ENCODING 8805
SWIDTH 362 0
DWIDTH 16 0
BBX 16 16 0 -2
BITMAP
2008
7FFC
620C
630C
626C
67EC
666C
6C6C
6F6C
79CC
60CC
608C
610D
4205
CC07
9803
ENDCHAR
STARTCHAR 2266
ENCODING 8806
SWIDTH 362 0
DWIDTH 16 0
BBX 16 16 0 -2
BITMAP
0180
0180
0183
0180
1990
198C
3186
6182
01C0
0340
0260
0630
0C18
180C
3007
C002
ENDCHAR
STARTCHAR 2267
ENCODING 8807
SWIDTH 362 0
DWIDTH 16 0
BBX 16 16 0 -2
BITMAP
30C0
30C0
3080
3480
FE80
E483
24FF
6480
6C80
6C80
7880
1C80
3C81
6481
C0FF
007F
ENDCHAR
STARTCHAR 2268
ENCODING 8808
SWIDTH 362 0
DWIDTH 16 0
BBX 16 16 0 -2
BITMAP
0008
3FFC
0018
0070
00C0
0180
0183
0180
0182
01FE
0180
01FE
0180
0180
0780
0300
ENDCHAR
STARTCHAR 2269
ENCODING 8809
SWIDTH 362 0
DWIDTH 16 0
BBX 16 16 0 -2
BITMAP
0008
3FFC
0018
0070
00C0
0180
0180
0183
FFFF
0180
1DB0
199C
318E
6186
CF82
0300
ENDCHAR
STARTCHAR 226a
ENCODING 8810
SWIDTH 362 0
DWIDTH 16 0
BBX 16 16 0 -2
BITMAP
0004
7FFE
0180
0118
0108
0102
7FFF
0100
03C0
03C0
02C0
06C0
0CC1
18C3
30FF
C000
ENDCHAR
STARTCHAR 226b
ENCODING 8811
SWIDTH 362 0
DWIDTH 16 0
BBX 16 16 0 -2
BITMAP
3008
30FC
300C
304C
FE48
3C58
3C58
3C30
3C30
2C30
2C78
6CCE
6D87
4F01
CFFF
87FF
ENDCHAR
STARTCHAR 226c
ENCODING 8812
SWIDTH 362 0
DWIDTH 16 0
BBX 16 16 0 -2
BITMAP
1008
1FFC
100C
100C
100C
100C
1FFC
1060
1040
1040
10E0
30F0
3198
630C
4607
8C02
ENDCHAR
STARTCHAR 226d
ENCODING 8813
SWIDTH 362 0
DWIDTH 16 0
BBX 16 16 0 -2
BITMAP
0180
6186
6184
6184
7FFC
0184
0180
3FFC
0180
0180
0183
0180
0180
0180
0180
0100
ENDCHAR
STARTCHAR 226e
ENCODING 8814
SWIDTH 362 0
DWIDTH 16 0
BBX 16 16 0 -2
BITMAP
1000
18FE
1086
1486
D686
D686
D686
D686
D686
D69E
D684
D680
FE81
0081
00FF
007F
ENDCHAR
STARTCHAR 226f
ENCODING 8815
SWIDTH 362 0
DWIDTH 16 0
BBX 16 16 0 -2
BITMAP
0180
7186
6184
6184
7FFC
0000
3FF8
3018
3018
3018
31F8
3030
3002
3002
3FFE
1FFE
ENDCHAR
STARTCHAR 2270
ENCODING 8816
SWIDTH 362 0
DWIDTH 16 0
BBX 16 16 0 -2
BITMAP
3006
31FE
31C6
3186
F586
B5BE
B58C
B580
B583
B583
B403
B403
FC03
0003
003E
000C
ENDCHAR
STARTCHAR 2271
ENCODING 8817
SWIDTH 362 0
DWIDTH 16 0
BBX 16 16 0 -2
BITMAP
200C
300C
200C
200C
200C
3FFC
0100
0180
0180
7186
6184
6184
6184
6184
7FFC
0004
ENDCHAR
STARTCHAR 2272
ENCODING 8818
SWIDTH 362 0
DWIDTH 16 0
BBX 16 16 0 -2
BITMAP
0C00
0C10
0FF8
1830
1030
2060
40C0
0180
0180
6186
6184
6184
6184
6184
7FFC
0004
ENDCHAR
STARTCHAR 2273
ENCODING 8819
SWIDTH 362 0
DWIDTH 16 0
BBX 16 16 0 -2
BITMAP
0C20
0C30
0C20
0C20
0C21
0821
103F
611F
8180
0180
7186
6184
6184
6184
7FFC
0004
ENDCHAR
STARTCHAR 2274
ENCODING 8820
SWIDTH 362 0
DWIDTH 16 0
BBX 16 16 0 -2
BITMAP
00FE
7F00
6000
6004
6FFE
6C06
6C06
6C06
6C06
6FFC
6C00
6C00
6C02
4C02
CFFE
87FE
ENDCHAR
STARTCHAR 2275
ENCODING 8821
SWIDTH 362 0
DWIDTH 16 0
BBX 16 16 0 -2
BITMAP
0002
FFFF
1980
3180
E18C
618C
6184
6184
6184
6184
6184
6184
61BC
6188
0180
0100
ENDCHAR
STARTCHAR 2276
ENCODING 8822
SWIDTH 362 0
DWIDTH 16 0
BBX 16 16 0 -2
BITMAP
0600
0C30
1018
7FCC
3184
0180
7FFC
6184
6184
6184
6184
6184
618C
61FC
6188
0100
ENDCHAR
STARTCHAR 2277
ENCODING 8823
SWIDTH 362 0
DWIDTH 16 0
BBX 16 16 0 -2
BITMAP
1008
381E
3010
2010
6010
CE10
EC10
3810
1810
3010
2810
6430
FE60
E2C0
01FF
0080
ENDCHAR
STARTCHAR 2278
ENCODING 8824
SWIDTH 362 0
DWIDTH 16 0
BBX 16 16 0 -2
BITMAP
0100
0380
0E20
0C60
0380
0618
3CFC
3F04
0300
0304
7FFE
0206
0406
0804
307C
E018
ENDCHAR
STARTCHAR 2279
ENCODING 8825
SWIDTH 362 0
DWIDTH 16 0
BBX 16 16 0 -2
BITMAP
0180
0380
0760
0E30
181C
300F
CC30
0C30
0C30
FFFF
0C30
0C30
0830
1830
3030
6030
ENDCHAR
STARTCHAR 227a
ENCODING 8826
SWIDTH 362 0
DWIDTH 16 0
BBX 16 16 0 -2
BITMAP
0008
3FFC
0008
0008
3FF8
3008
2000
7FFC
0004
1FC4
0004
0024
7FFC
000C
00F8
0030
ENDCHAR
STARTCHAR 227b
ENCODING 8827
SWIDTH 362 0
DWIDTH 16 0
BBX 16 16 0 -2
BITMAP
0008
3FFC
0008
3FF8
3000
3FFC
200C
0008
3FF8
3000
3FFC
0004
000C
000C
00F8
0030
ENDCHAR
STARTCHAR 227c
ENCODING 8828
SWIDTH 362 0
DWIDTH 16 0
BBX 16 16 0 -2
BITMAP
0806
FCFE
0806
0886
4886
4844
C04C
CC4C
FC68
0C30
0C30
0C30
0C58
0C8E
F907
3602
ENDCHAR
STARTCHAR 227d
ENCODING 8829
SWIDTH 362 0
DWIDTH 16 0
BBX 16 16 0 -2
BITMAP
0008
7FFC
018C
018C
418C
618C
4180
4182
FFFF
0382
0782
0D86
19BE
318C
E180
0100
ENDCHAR
STARTCHAR 227e
ENCODING 8830
SWIDTH 362 0
DWIDTH 16 0
BBX 16 16 0 -2
BITMAP
0860
FC40
0840
0840
49FC
484C
C04C
CC4C
FC4C
0CCC
0CCC
0C8C
0D8C
0D0D
FB0F
3607
ENDCHAR
STARTCHAR 2321
ENCODING 8993
SWIDTH 362 0
DWIDTH 16 0
BBX 16 16 0 -2
BITMAP
0830
FC30
0820
0820
4820
4820
C030
CC70
FC70
0C58
0CC8
0CC8
0C8C
0D86
FB07
3603
ENDCHAR
STARTCHAR 2322
ENCODING 8994
SWIDTH 362 0
DWIDTH 16 0
BBX 16 16 0 -2
BITMAP
0038
07F8
3980
018C
7FFC
018C
7FFC
6180
6182
7FFF
0182
0182
0186
018E
0180
0100
ENDCHAR
STARTCHAR 2323
ENCODING 8995
SWIDTH 362 0
DWIDTH 16 0
BBX 16 16 0 -2
BITMAP
0180
03C0
0660
0C38
300F
DFFB
0018
1FF8
1010
3008
3FFC
0008
0008
0018
01F0
0020
ENDCHAR
STARTCHAR 2324
ENCODING 8996
SWIDTH 362 0
DWIDTH 16 0
BBX 16 16 0 -2
BITMAP
0602
FE06
2604
2608
2630
2402
2F86
218C
2198
21B0
21C3
6182
6184
4108
DF30
8660
ENDCHAR
STARTCHAR 2325
ENCODING 8997
SWIDTH 362 0
DWIDTH 16 0
BBX 16 16 0 -2
BITMAP
0010
7FF8
1830
1820
1862
187F
18C2
1982
1672
10C2
331A
3072
2182
6E06
407C
8008
ENDCHAR
STARTCHAR 2326
ENCODING 8998
SWIDTH 362 0
DWIDTH 16 0
BBX 16 16 0 -2
BITMAP
3000
31FE
3186
3186
7986
FD86
F186
B186
3186
319E
3184
3180
3181
3181
31FF
30FF
ENDCHAR
STARTCHAR 2327
ENCODING 8999
SWIDTH 362 0
DWIDTH 16 0
BBX 16 16 0 -2
BITMAP
003C
1FC0
1800
1FFE
1806
1806
1806
1FFE
1830
1830
1020
1020
3021
2021
603F
C01F
ENDCHAR
STARTCHAR 2328
ENCODING 9000
SWIDTH 362 0
DWIDTH 16 0
BBX 16 16 0 -2
BITMAP
0070
07F8
3980
0184
7FFE
0180
0182
FFFF
0300
03F0
0230
0630
0C31
1831
303F
C01F
ENDCHAR
STARTCHAR 2329
ENCODING 9001
SWIDTH 362 0
DWIDTH 16 0
BBX 16 16 0 -2
BITMAP
1802
11FF
10C0
14C0
FC80
11FF
1003
1C02
7802
F002
1002
1006
1006
100C
F0FC
2038
ENDCHAR
STARTCHAR 232a
ENCODING 9002
SWIDTH 362 0
DWIDTH 16 0
BBX 16 16 0 -2
BITMAP
1800
1006
1006
1506
FC84
108C
10CC
1C48
7858
F070
1030
1070
10D8
108E
F107
2602
ENDCHAR
STARTCHAR 232b
ENCODING 9003
SWIDTH 362 0
DWIDTH 16 0
BBX 16 16 0 -2
BITMAP
0002
FFFF
0000
000C
3FFC
300C
300C
300C
300C
300C
300C
300C
300C
300C
3FFC
2000
ENDCHAR
STARTCHAR 232c
ENCODING 9004
SWIDTH 362 0
DWIDTH 16 0
BBX 16 16 0 -2
BITMAP
0002
01FF
FC06
CC0C
CC18
CC30
CC60
FCC0
CC80
CD80
CD80
CD00
FD01
8101
01FF
00FF
ENDCHAR
STARTCHAR 232d
ENCODING 9005
SWIDTH 362 0
DWIDTH 16 0
BBX 16 16 0 -2
BITMAP
0600
0400
3FFC
200C
200C
200C
3FFC
200C
200C
3FFC
200C
200C
200C
200C
207C
2018
ENDCHAR
STARTCHAR 232e
ENCODING 9006
SWIDTH 362 0
DWIDTH 16 0
BBX 16 16 0 -2
BITMAP
0002
7FFF
0300
0300
0300
0330
0330
0330
7F30
0330
0330
0330
0330
0330
0333
0000
ENDCHAR
STARTCHAR 232f
ENCODING 9007
SWIDTH 362 0
DWIDTH 16 0
BBX 16 16 0 -2
BITMAP
0180
0180
218C
318C
1998
09B0
03C0
0240
0620
0C18
180E
3007
C000
0000
FFFF
0000
ENDCHAR
STARTCHAR 2330
ENCODING 9008
SWIDTH 362 0
DWIDTH 16 0
BBX 16 16 0 -2
BITMAP
0E00
7E7F
5E06
5E0C
5E18
5E30
5E60
5E40
5EC1
5AFF
5B7F
5B00
5980
D8C0
987F
901E
ENDCHAR
STARTCHAR 2331
ENCODING 9009
SWIDTH 362 0
DWIDTH 16 0
BBX 16 16 0 -2
BITMAP
0000
6FFF
4C00
4C00
4C00
4C00
FC00
0C00
4C00
4C00
4C00
4C00
4C00
C800
9800
B000
ENDCHAR
STARTCHAR 2332
ENCODING 9010
SWIDTH 362 0
DWIDTH 16 0
BBX 16 16 0 -2
BITMAP
8806
59FE
3186
3186
5986
8986
099E
1D84
3DFF
2C03
4C03
8C03
0C03
0C06
787C
3018
ENDCHAR
STARTCHAR 2333
ENCODING 9011
SWIDTH 362 0
DWIDTH 16 0
BBX 16 16 0 -2
BITMAP
0006
7FFE
0180
018C
3FFC
0180
0183
0600
0600
0FFE
0006
0006
0006
000C
01F8
0030
ENDCHAR
STARTCHAR 2334
ENCODING 9012
SWIDTH 362 0
DWIDTH 16 0
BBX 16 16 0 -2
BITMAP
181C
1018
1018
1018
1018
1018
1018
1018
1FD8
1018
1018
1018
1018
1018
1FF8
1008
ENDCHAR
STARTCHAR 2335
ENCODING 9013
SWIDTH 362 0
DWIDTH 16 0
BBX 16 16 0 -2
BITMAP
0180
7186
6184
6184
618C
618C
0180
0180
018E
0180
0180
0180
0180
0180
0183
0000
ENDCHAR
STARTCHAR 2336
ENCODING 9014
SWIDTH 362 0
DWIDTH 16 0
BBX 16 16 0 -2
BITMAP
0006
7FFE
0180
0180
0180
1980
1180
11FC
1180
1180
3180
3980
2D80
6780
43FF
80FE
ENDCHAR
STARTCHAR 2337
ENCODING 9015
SWIDTH 362 0
DWIDTH 16 0
BBX 16 16 0 -2
BITMAP
0400
0C00
580E
6666
6666
6666
6466
6C66
787E
7006
6006
6006
6006
6006
603E
400C
ENDCHAR
STARTCHAR 2338
ENCODING 9016
SWIDTH 362 0
DWIDTH 16 0
BBX 16 16 0 -2
BITMAP
1C18
1A13
FE7F
1810
0018
7FF8
0018
0018
0018
0018
0018
0008
000E
000E
0006
0002
ENDCHAR
STARTCHAR 2339
ENCODING 9017
SWIDTH 362 0
DWIDTH 16 0
BBX 16 16 0 -2
BITMAP
0300
0A10
0FF8
0818
0B18
0998
08D8
08D8
0818
09F8
7F98
6018
0018
0018
00F8
0030
ENDCHAR
STARTCHAR 233a
ENCODING 9018
SWIDTH 362 0
DWIDTH 16 0
BBX 16 16 0 -2
BITMAP
0300
0A10
0FF8
0818
0818
0818
0818
081B
081E
09FC
7FB8
6078
0198
0718
38F8
C030
ENDCHAR
STARTCHAR 233b
ENCODING 9019
SWIDTH 362 0
DWIDTH 16 0
BBX 16 16 0 -2
BITMAP
0860
1830
100C
2007
C703
3C00
6000
6000
6000
6000
6000
6000
6000
6000
DFFF
87FE
ENDCHAR
STARTCHAR 233c
ENCODING 9020
SWIDTH 362 0
DWIDTH 16 0
BBX 16 16 0 -2
BITMAP
0818
0CC0
08C0
0FF8
08C0
08C0
0FF8
0800
0800
0800
0800
0800
0800
0800
0800
0800
ENDCHAR
STARTCHAR 233d
ENCODING 9021
SWIDTH 362 0
DWIDTH 16 0
BBX 16 16 0 -2
BITMAP
00D8
0310
0210
0FD0
0210
0210
0FD0
0010
0010
0010
0010
0010
0010
0010
0010
0010
ENDCHAR
STARTCHAR 233e
ENCODING 9022
SWIDTH 362 0
DWIDTH 16 0
BBX 16 16 0 -2
BITMAP
0602
FE7F
0000
0000
4446
7E7E
4666
4666
4666
4666
4666
4666
4666
4666
4E6E
4446
ENDCHAR
STARTCHAR 233f
ENCODING 9023
SWIDTH 362 0
DWIDTH 16 0
BBX 16 16 0 -2
BITMAP
0002
7FFF
0300
0600
0C20
1818
300C
7F8E
2186
19B0
1998
318C
3186
6186
8F82
0300
ENDCHAR
STARTCHAR 2340
ENCODING 9024
SWIDTH 362 0
DWIDTH 16 0
BBX 16 16 0 -2
BITMAP
0002
FFFF
0460
0C60
1861
307F
603F
C000
FFFF
0460
0C60
0C60
0861
1861
307F
C03F
ENDCHAR
STARTCHAR 2341
ENCODING 9025
SWIDTH 362 0
DWIDTH 16 0
BBX 16 16 0 -2
BITMAP
0180
0180
0180
7FFE
6186
6186
6186
6184
0188
01FC
0180
0188
01F8
0180
0180
0100
ENDCHAR
STARTCHAR 2342
ENCODING 9026
SWIDTH 362 0
DWIDTH 16 0
BBX 16 16 0 -2
BITMAP
0300
0182
7FFF
4003
4002
4C22
7C3E
0C20
0C22
FFFF
0C20
0C20
1820
3020
6020
C020
ENDCHAR
STARTCHAR 2343
ENCODING 9027
SWIDTH 362 0
DWIDTH 16 0
BBX 16 16 0 -2
BITMAP
0300
0600
2C0C
366C
2664
2664
2664
2664
FFFF
2664
2664
2664
2664
2664
266C
224C
ENDCHAR
STARTCHAR 2344
ENCODING 9028
SWIDTH 362 0
DWIDTH 16 0
BBX 16 16 0 -2
BITMAP
0008
7FFC
0708
0608
0648
1FC8
0608
0608
0668
0F08
0F08
0F8C
16CD
267D
C627
0603
ENDCHAR
STARTCHAR 2345
ENCODING 9029
SWIDTH 362 0
DWIDTH 16 0
BBX 16 16 0 -2
BITMAP
0030
0036
003C
003C
0036
0011
001D
002F
FFF7
002C
0030
003C
0036
0019
000F
0007
ENDCHAR
STARTCHAR 2346
ENCODING 9030
SWIDTH 362 0
DWIDTH 16 0
BBX 16 16 0 -2
BITMAP
0038
1FC0
1000
1004
1FFC
1000
1800
1FFE
0000
1D98
1998
1998
1998
3198
619F
C10F
ENDCHAR
STARTCHAR 2347
ENCODING 9031
SWIDTH 362 0
DWIDTH 16 0
BBX 16 16 0 -2
BITMAP
000C
003C
00E0
0180
0180
0180
0780
0100
0602
FE7F
0C0E
1818
1818
1818
7878
3030
ENDCHAR
STARTCHAR 2348
ENCODING 9032
SWIDTH 362 0
DWIDTH 16 0
BBX 16 16 0 -2
BITMAP
0002
7FFF
0C00
0C00
0C38
0C98
09D8
0B98
1E78
18D0
1990
1610
1030
0030
0032
FFFF
ENDCHAR
STARTCHAR 2349
ENCODING 9033
SWIDTH 362 0
DWIDTH 16 0
BBX 16 16 0 -2
BITMAP
0180
01FC
7FFE
2180
318C
218C
3FFC
0188
0182
01FE
00FE
0004
3FFC
0000
0002
FFFF
ENDCHAR
STARTCHAR 234a
ENCODING 9034
SWIDTH 362 0
DWIDTH 16 0
BBX 16 16 0 -2
BITMAP
0200
0300
0182
FFFF
0830
1830
1830
1830
1830
1830
1438
3668
32CC
6386
4107
8603
ENDCHAR
STARTCHAR 234b
ENCODING 9035
SWIDTH 362 0
DWIDTH 16 0
BBX 16 16 0 -2
BITMAP
0180
0380
0660
0C30
181C
34CF
CCC0
0CC0
18C6
18C0
38C0
58C0
18C1
18C3
18FF
187E
ENDCHAR
STARTCHAR 234c
ENCODING 9036
SWIDTH 362 0
DWIDTH 16 0
BBX 16 16 0 -2
BITMAP
0C60
1820
1FFF
1000
300E
300E
7018
D030
9020
1020
1020
1020
1020
1020
11E0
1060
ENDCHAR
STARTCHAR 234d
ENCODING 9037
SWIDTH 362 0
DWIDTH 16 0
BBX 16 16 0 -2
BITMAP
0C00
1FFE
1988
1188
3188
3188
7188
D7FF
9188
1188
1188
1108
1308
1308
1208
1408
ENDCHAR
STARTCHAR 234e
ENCODING 9038
SWIDTH 362 0
DWIDTH 16 0
BBX 16 16 0 -2
BITMAP
0CC0
18C0
18C0
10FF
30B3
31B6
7130
D030
9030
1078
1068
104C
10C4
1186
1303
1601
ENDCHAR
STARTCHAR 234f
ENCODING 9039
SWIDTH 362 0
DWIDTH 16 0
BBX 16 16 0 -2
BITMAP
3010
3030
2028
2064
FCC3
25ED
246C
246C
246C
246C
244C
64CC
658D
4401
C7FF
87FF
ENDCHAR
STARTCHAR 2350
ENCODING 9040
SWIDTH 362 0
DWIDTH 16 0
BBX 16 16 0 -2
BITMAP
0180
0180
03C0
0660
0C1C
380F
FC72
19C0
1E38
18E0
1F1C
18F0
1F82
1802
1FFE
0FFE
ENDCHAR
STARTCHAR 2351
ENCODING 9041
SWIDTH 362 0
DWIDTH 16 0
BBX 16 16 0 -2
BITMAP
0180
0380
0660
0C30
191E
338F
C7C0
0E70
1C7F
3007
C010
1FF8
0030
0060
0040
0080
ENDCHAR
STARTCHAR 2352
ENCODING 9042
SWIDTH 362 0
DWIDTH 16 0
BBX 16 16 0 -2
BITMAP
0300
0180
0082
FFFF
0200
0610
0C08
1FFC
3F76
0660
0660
0460
0C61
0861
107F
603F
ENDCHAR
STARTCHAR 2353
ENCODING 9043
SWIDTH 362 0
DWIDTH 16 0
BBX 16 16 0 -2
BITMAP
0002
7FFF
0300
0180
4183
4003
CC22
8C60
0C60
0C60
0C60
0C60
0861
1861
307F
C03F
ENDCHAR
STARTCHAR 2354
ENCODING 9044
SWIDTH 362 0
DWIDTH 16 0
BBX 16 16 0 -2
BITMAP
0008
1FFC
000C
000C
3FFC
0308
0180
FFFF
0C20
0C60
0C60
0C60
0861
1861
307F
C03F
ENDCHAR
STARTCHAR 2355
ENCODING 9045
SWIDTH 362 0
DWIDTH 16 0
BBX 16 16 0 -2
BITMAP
0180
01C0
0360
0638
180F
6006
9FF8
0000
0006
7FFE
0460
0460
0C60
1860
3060
6060
ENDCHAR
STARTCHAR 2356
ENCODING 9046
SWIDTH 362 0
DWIDTH 16 0
BBX 16 16 0 -2
BITMAP
0180
03C0
0660
0C38
190F
6186
8188
0180
0198
3FF8
0C38
0660
03C0
07E0
1C3F
F00F
ENDCHAR
STARTCHAR 2357
ENCODING 9047
SWIDTH 362 0
DWIDTH 16 0
BBX 16 16 0 -2
BITMAP
0180
1998
118C
2184
4184
3FFC
0180
0100
0303
03C0
0240
0620
0C38
181C
300F
C006
ENDCHAR
STARTCHAR 2358
ENCODING 9048
SWIDTH 362 0
DWIDTH 16 0
BBX 16 16 0 -2
BITMAP
0300
0600
4404
7FFE
6006
6766
6646
6656
7FFE
6646
6646
6C76
787E
7006
603E
400C
ENDCHAR
STARTCHAR 2359
ENCODING 9049
SWIDTH 362 0
DWIDTH 16 0
BBX 16 16 0 -2
BITMAP
0608
3E7C
3648
3648
3648
7FFE
3648
3648
3648
FFFF
3648
3648
3648
3648
3E58
3658
ENDCHAR
STARTCHAR 235a
ENCODING 9050
SWIDTH 362 0
DWIDTH 16 0
BBX 16 16 0 -2
BITMAP
2004
7FFE
6664
6664
6664
FFFF
6664
6664
6664
FFFF
6664
6664
6664
6664
667C
6448
ENDCHAR
STARTCHAR 235b
ENCODING 9051
SWIDTH 362 0
DWIDTH 16 0
BBX 16 16 0 -2
BITMAP
0000
7FFF
C003
8006
0018
0180
0180
0180
0186
0380
03C0
0260
0430
081C
300F
E002
ENDCHAR
STARTCHAR 235c
ENCODING 9052
SWIDTH 362 0
DWIDTH 16 0
BBX 16 16 0 -2
BITMAP
0006
C3FE
6110
2310
0B10
1210
13FF
3010
2010
6070
E038
C01C
6014
6014
6010
0010
ENDCHAR
STARTCHAR 235d
ENCODING 9053
SWIDTH 362 0
DWIDTH 16 0
BBX 16 16 0 -2
BITMAP
0002
7FFF
0180
03A0
079C
1D86
7182
0100
0FF0
0C30
0C30
0C30
0831
1831
303F
C01F
ENDCHAR
STARTCHAR 235e
ENCODING 9054
SWIDTH 362 0
DWIDTH 16 0
BBX 16 16 0 -2
BITMAP
2008
3FFC
2048
2C68
26E8
3FF8
2208
2608
27E8
2068
2068
2069
206D
67C7
41C3
8001
ENDCHAR
STARTCHAR 235f
ENCODING 9055
SWIDTH 362 0
DWIDTH 16 0
BBX 16 16 0 -2
BITMAP
1804
1FFE
3066
4004
003C
0008
3FFC
304C
37E8
30C8
3188
3308
242D
6C2D
4FE7
8003
ENDCHAR
STARTCHAR 2360
ENCODING 9056
SWIDTH 362 0
DWIDTH 16 0
BBX 16 16 0 -2
BITMAP
0180
01FC
7F80
318C
318C
2188
0183
00FE
0C30
0C30
0C30
0C30
0831
1831
303F
C01F
ENDCHAR
STARTCHAR 2361
ENCODING 9057
SWIDTH 362 0
DWIDTH 16 0
BBX 16 16 0 -2
BITMAP
0000
FE7F
0660
4664
6666
6666
6666
67E6
6446
6006
6016
7FFE
6006
6006
7FFE
0004
ENDCHAR
STARTCHAR 2362
ENCODING 9058
SWIDTH 362 0
DWIDTH 16 0
BBX 16 16 0 -2
BITMAP
0180
0180
0180
7FFC
0180
6187
4186
43C6
4266
4736
4DBE
589E
7006
4006
C006
4006
ENDCHAR
STARTCHAR 2363
ENCODING 9059
SWIDTH 362 0
DWIDTH 16 0
BBX 16 16 0 -2
BITMAP
0640
0430
0C18
1808
0470
6467
4246
43C6
4186
43C6
4666
4C3E
5816
4006
C006
4006
ENDCHAR
STARTCHAR 2364
ENCODING 9060
SWIDTH 362 0
DWIDTH 16 0
BBX 16 16 0 -2
BITMAP
0100
0700
5C06
7006
4006
4036
4C36
4666
41C6
43E6
4736
5C16
5006
4006
7FFE
4006
ENDCHAR
STARTCHAR 2365
ENCODING 9061
SWIDTH 362 0
DWIDTH 16 0
BBX 16 16 0 -2
BITMAP
0100
0180
01B0
1FF0
0180
6187
4FF6
4186
4186
5FFE
4186
4186
4186
4106
C006
4006
ENDCHAR
STARTCHAR 2366
ENCODING 9062
SWIDTH 362 0
DWIDTH 16 0
BBX 16 16 0 -2
BITMAP
2003
1003
1932
FF32
3032
3032
3F32
3332
3332
3332
2332
2332
6302
4302
DE1E
8406
ENDCHAR
STARTCHAR 2367
ENCODING 9063
SWIDTH 362 0
DWIDTH 16 0
BBX 16 16 0 -2
BITMAP
0203
7F03
2332
1632
0C32
1E32
3332
4032
0132
7FB2
2332
1632
0C02
1E02
331E
C106
ENDCHAR
STARTCHAR 2368
ENCODING 9064
SWIDTH 362 0
DWIDTH 16 0
BBX 16 16 0 -2
BITMAP
2083
7FC3
6232
6232
6232
6232
7E32
0632
0E32
0E32
1A32
3232
6202
C202
9E1E
0606
ENDCHAR
STARTCHAR 2369
ENCODING 9065
SWIDTH 362 0
DWIDTH 16 0
BBX 16 16 0 -2
BITMAP
0203
FF03
131A
1312
1312
1312
7312
7392
53D2
D352
9312
3312
3302
6202
5E1E
8406
ENDCHAR
STARTCHAR 236a
ENCODING 9066
SWIDTH 362 0
DWIDTH 16 0
BBX 16 16 0 -2
BITMAP
3003
3003
319A
6192
4192
9992
1192
3192
2D92
7F92
6792
0192
0182
0102
1F1E
0606
ENDCHAR
STARTCHAR 236b
ENCODING 9067
SWIDTH 362 0
DWIDTH 16 0
BBX 16 16 0 -2
BITMAP
6183
6103
611A
6112
6312
6312
6012
6112
7F92
6192
6192
6192
4182
4182
C19E
8106
ENDCHAR
STARTCHAR 236c
ENCODING 9068
SWIDTH 362 0
DWIDTH 16 0
BBX 16 16 0 -2
BITMAP
3020
3030
3020
FC26
31FE
3026
3426
FE26
4C66
4C66
68C6
38BE
3B0C
3E00
67FF
C1FF
ENDCHAR
STARTCHAR 236d
ENCODING 9069
SWIDTH 362 0
DWIDTH 16 0
BBX 16 16 0 -2
BITMAP
4002
7FFF
40C0
40C0
40CC
40C0
40C0
40C6
5FFE
41A0
4130
421E
4C06
5000
C003
4000
ENDCHAR
STARTCHAR 236e
ENCODING 9070
SWIDTH 362 0
DWIDTH 16 0
BBX 16 16 0 -2
BITMAP
4002
7FFF
4004
5FFE
4040
40C0
4180
43B0
468C
4C86
5080
4080
4080
4080
C003
4000
ENDCHAR
STARTCHAR 236f
ENCODING 9071
SWIDTH 362 0
DWIDTH 16 0
BBX 16 16 0 -2
BITMAP
0002
FFFF
4018
4BFC
4E40
4840
4FFE
4860
4820
4831
4F9B
4E0E
4806
6000
7FFF
0000
ENDCHAR
STARTCHAR 2370
ENCODING 9072
SWIDTH 362 0
DWIDTH 16 0
BBX 16 16 0 -2
BITMAP
0100
0180
018C
319C
09B0
0180
0FB0
718C
C186
0182
FFFF
0180
0180
0180
0180
0100
ENDCHAR
STARTCHAR 2371
ENCODING 9073
SWIDTH 362 0
DWIDTH 16 0
BBX 16 16 0 -2
BITMAP
0100
0180
0184
7FFE
0180
1998
1998
1818
FE7F
1818
1818
1818
1811
1801
1FFF
0FFF
ENDCHAR
STARTCHAR 2372
ENCODING 9074
SWIDTH 362 0
DWIDTH 16 0
BBX 16 16 0 -2
BITMAP
0030
FF30
1830
3030
6830
CC30
8DFF
0C30
1C30
3430
6430
C430
0430
0C30
7C30
1830
ENDCHAR
STARTCHAR 2373
ENCODING 9075
SWIDTH 362 0
DWIDTH 16 0
BBX 16 16 0 -2
BITMAP
0180
0180
3198
318C
3188
3188
3FF8
3188
3188
3FF8
0188
0183
FFFF
0180
0180
0100
ENDCHAR
STARTCHAR 2374
ENCODING 9076
SWIDTH 362 0
DWIDTH 16 0
BBX 16 16 0 -2
BITMAP
0180
0380
0660
0C38
3986
E383
07C0
0C38
391F
E182
0180
7FFE
0180
0180
0180
0100
ENDCHAR
STARTCHAR 2375
ENCODING 9077
SWIDTH 362 0
DWIDTH 16 0
BBX 16 16 0 -2
BITMAP
0100
0180
0180
0186
7FFE
0180
199C
1198
1198
FDFF
1198
1198
1198
1198
1FF8
1008
ENDCHAR
STARTCHAR 2376
ENCODING 9078
SWIDTH 362 0
DWIDTH 16 0
BBX 16 16 0 -2
BITMAP
0180
0100
010C
0100
0100
7FFE
0000
0003
FFFF
0180
0160
0118
010C
0104
0100
0100
ENDCHAR
STARTCHAR 2377
ENCODING 9079
SWIDTH 362 0
DWIDTH 16 0
BBX 16 16 0 -2
BITMAP
0180
0100
0104
01FC
0100
0100
0303
0700
0610
0FF8
1830
3660
61C0
03F0
1C1F
F00E
ENDCHAR
STARTCHAR 2378
ENCODING 9080
SWIDTH 362 0
DWIDTH 16 0
BBX 16 16 0 -2
BITMAP
00C0
00C0
00FE
0080
0080
3FFF
2003
200A
3FFC
2218
2310
21E0
61E0
63B8
CE0F
B802
ENDCHAR
STARTCHAR 2379
ENCODING 9081
SWIDTH 362 0
DWIDTH 16 0
BBX 16 16 0 -2
BITMAP
8642
FE7F
C642
E642
F652
DE5A
DE4A
C642
C642
C642
FE5E
CC46
C040
C040
C040
C040
ENDCHAR
STARTCHAR 237a
ENCODING 9082
SWIDTH 362 0
DWIDTH 16 0
BBX 16 16 0 -2
BITMAP
0000
FF7F
6603
6602
6602
6602
6602
667E
6602
6602
6602
6E02
F602
C67E
0602
0400
ENDCHAR
STARTCHAR 237b
ENCODING 9083
SWIDTH 362 0
DWIDTH 16 0
BBX 16 16 0 -2
BITMAP
4002
7FFF
6000
6300
6200
6600
6440
6FE0
6060
60C0
7FFF
4080
41B0
C30C
8606
9C02
ENDCHAR
STARTCHAR 237c
ENCODING 9084
SWIDTH 362 0
DWIDTH 16 0
BBX 16 16 0 -2
BITMAP
4002
7FFF
6040
6060
6040
67FC
6040
6040
6042
7FFF
60E0
40B0
4198
C30C
8607
9C03
ENDCHAR
STARTCHAR 237d
ENCODING 9085
SWIDTH 362 0
DWIDTH 16 0
BBX 16 16 0 -2
BITMAP
4002
7FFF
6000
7FFE
6080
6080
6080
6CFC
6C8C
6C88
6C88
4C8C
4C8C
CC97
8FF7
8003
ENDCHAR
STARTCHAR 237e
ENCODING 9086
SWIDTH 362 0
DWIDTH 16 0
BBX 16 16 0 -2
BITMAP
0180
0100
0303
0700
0410
0818
38FC
3F06
1002
198C
318C
2118
6310
3118
118C
1884
ENDCHAR
STARTCHAR 2421
ENCODING 9249
SWIDTH 362 0
DWIDTH 16 0
BBX 16 16 0 -2
BITMAP
0700
0600
0C30
1818
3FFC
300C
0000
7CFC
6CCC
6CC8
6CC8
6DC8
6EC8
4C89
C18F
8307
ENDCHAR
STARTCHAR 2422
ENCODING 9250
SWIDTH 362 0
DWIDTH 16 0
BBX 16 16 0 -2
BITMAP
0660
0C30
1818
318C
6384
02C0
0460
0830
101C
2307
C600
0400
0C30
18F8
3F8C
1004
ENDCHAR
STARTCHAR 2423
ENCODING 9251
SWIDTH 362 0
DWIDTH 16 0
BBX 16 16 0 -2
BITMAP
1800
1800
300E
3180
6180
4180
8180
0183
7FFF
0300
0600
0400
0C18
18FC
3F8C
1004
ENDCHAR
STARTCHAR 2424
ENCODING 9252
SWIDTH 362 0
DWIDTH 16 0
BBX 16 16 0 -2
BITMAP
6002
607F
6002
6002
FE02
6602
6600
6602
66FF
6E46
6024
603C
6238
623C
7E67
3F83
ENDCHAR
STARTCHAR 2425
ENCODING 9253
SWIDTH 362 0
DWIDTH 16 0
BBX 16 16 0 -2
BITMAP
2004
7FFE
6186
6186
7FFE
6004
600C
620C
6208
6318
61B0
60E0
40E0
41B8
861F
9C07
ENDCHAR
STARTCHAR 2426
ENCODING 9254
SWIDTH 362 0
DWIDTH 16 0
BBX 16 16 0 -2
BITMAP
0018
181C
0C30
0660
03C0
07F8
1E1F
F1A6
0118
0102
7FFE
03C0
06C0
0CC1
38FF
E07F
ENDCHAR
STARTCHAR 2427
ENCODING 9255
SWIDTH 362 0
DWIDTH 16 0
BBX 16 16 0 -2
BITMAP
0018
181C
0C30
0660
03C0
07F8
1E1F
F306
0640
0FC0
0318
0E7C
3F8C
1180
0180
0180
ENDCHAR
STARTCHAR 2428
ENCODING 9256
SWIDTH 362 0
DWIDTH 16 0
BBX 16 16 0 -2
BITMAP
0180
0180
0180
3FFC
0180
0180
0182
FFFF
0000
1008
1FFC
1008
1008
1008
1FF8
1008
ENDCHAR
STARTCHAR 2429
ENCODING 9257
SWIDTH 362 0
DWIDTH 16 0
BBX 16 16 0 -2
BITMAP
0004
7FFE
0204
0604
060C
0C7C
1818
700C
1FFC
180C
180C
180C
1FFC
1008
0003
0000
ENDCHAR
STARTCHAR 242a
ENCODING 9258
SWIDTH 362 0
DWIDTH 16 0
BBX 16 16 0 -2
BITMAP
1018
1FF8
1018
1018
1018
1018
1FF8
0008
100C
1818
0C30
0660
00C0
FC00
C7FF
01FF
ENDCHAR
STARTCHAR 242b
ENCODING 9259
SWIDTH 362 0
DWIDTH 16 0
BBX 16 16 0 -2
BITMAP
1018
1018
1018
1018
1FF8
0000
000C
0180
0180
0183
FFFF
0180
0180
0180
0780
0300
ENDCHAR
STARTCHAR 242c
ENCODING 9260
SWIDTH 362 0
DWIDTH 16 0
BBX 16 16 0 -2
BITMAP
1018
1018
1018
1FF8
0000
3FFC
0600
0603
FFFF
0C00
1FFC
000C
000C
000C
00F8
0030
ENDCHAR
STARTCHAR 242d
ENCODING 9261
SWIDTH 362 0
DWIDTH 16 0
BBX 16 16 0 -2
BITMAP
00C0
00C0
D880
D888
DBFC
D88C
D888
DB88
D8E8
D9E8
D988
F988
C308
0309
060F
0C07
ENDCHAR
STARTCHAR 242e
ENCODING 9262
SWIDTH 362 0
DWIDTH 16 0
BBX 16 16 0 -2
BITMAP
0038
01FC
7F00
0300
0300
FFFF
0600
0400
0C08
0FFC
1C0C
2C0C
CC0C
0C0C
0FFC
0C08
ENDCHAR
STARTCHAR 242f
ENCODING 9263
SWIDTH 362 0
DWIDTH 16 0
BBX 16 16 0 -2
BITMAP
4006
7FFE
4006
4106
419E
5FFE
4C06
4C06
4C06
4C06
4C06
4FF6
43F6
4006
7FFE
4002
ENDCHAR
STARTCHAR 2430
ENCODING 9264
SWIDTH 362 0
DWIDTH 16 0
BBX 16 16 0 -2
BITMAP
4006
7FFE
4006
4036
4FF6
4006
4006
5FFE
4006
4006
4006
4FF6
4006
4006
7FFE
4002
ENDCHAR
STARTCHAR 2431
ENCODING 9265
SWIDTH 362 0
DWIDTH 16 0
BBX 16 16 0 -2
BITMAP
4006
7FFE
4306
4306
4336
4306
4306
5FFE
4306
4306
431E
43F6
41F6
4006
7FFE
4002
ENDCHAR
STARTCHAR 2432
ENCODING 9266
SWIDTH 362 0
DWIDTH 16 0
BBX 16 16 0 -2
BITMAP
4006
7FFE
4106
4186
4186
4186
4DE6
4DB6
4996
599E
518E
6186
4186
4106
7FFE
4002
ENDCHAR
STARTCHAR 2433
ENCODING 9267
SWIDTH 362 0
DWIDTH 16 0
BBX 16 16 0 -2
BITMAP
0C30
0C30
4830
2830
3830
1830
0836
0830
0830
0830
3830
E830
C830
0830
0833
0800
ENDCHAR
STARTCHAR 2434
ENCODING 9268
SWIDTH 362 0
DWIDTH 16 0
BBX 16 16 0 -2
BITMAP
3060
3060
306C
307E
FDE0
3060
3060
3060
33FF
3060
3060
3C60
7061
E061
007F
003F
ENDCHAR
STARTCHAR 2435
ENCODING 9269
SWIDTH 362 0
DWIDTH 16 0
BBX 16 16 0 -2
BITMAP
0002
FFFF
0080
0CC0
0C60
0C30
1818
119C
318E
6197
DFF0
0180
0180
0180
0186
0000
ENDCHAR
STARTCHAR 2436
ENCODING 9270
SWIDTH 362 0
DWIDTH 16 0
BBX 16 16 0 -2
BITMAP
0600
0600
0FF0
1830
36E0
63C0
0E7F
798E
C180
1FF8
0180
0180
7FFC
0180
0180
0100
ENDCHAR
STARTCHAR 2437
ENCODING 9271
SWIDTH 362 0
DWIDTH 16 0
BBX 16 16 0 -2
BITMAP
0600
0600
0FF0
1830
36E0
63C0
0E7F
780E
DFF0
0070
0080
7FFE
0180
0180
0780
0300
ENDCHAR
STARTCHAR 2438
ENCODING 9272
SWIDTH 362 0
DWIDTH 16 0
BBX 16 16 0 -2
BITMAP
0180
0180
7FFC
0180
0182
FFFF
0700
0618
67F8
3C30
1C60
63C0
01C0
0770
181F
E007
ENDCHAR
STARTCHAR 2439
ENCODING 9273
SWIDTH 362 0
DWIDTH 16 0
BBX 16 16 0 -2
BITMAP
0600
0410
7FF8
0E18
1B99
3199
621F
C608
07F8
3C18
1C30
3660
41C0
07F0
1C1F
F007
ENDCHAR
STARTCHAR 243a
ENCODING 9274
SWIDTH 362 0
DWIDTH 16 0
BBX 16 16 0 -2
BITMAP
0004
3FFE
0104
0104
0104
0104
3FFC
0004
0000
3FFC
0104
0104
0104
0104
030C
000C
ENDCHAR
STARTCHAR 243b
ENCODING 9275
SWIDTH 362 0
DWIDTH 16 0
BBX 16 16 0 -2
BITMAP
0000
1C00
18C0
11C0
3180
7B00
8E60
0C62
38FF
6186
0386
066C
0838
0070
0180
0E00
ENDCHAR
STARTCHAR 243c
ENCODING 9276
SWIDTH 362 0
DWIDTH 16 0
BBX 16 16 0 -2
BITMAP
0100
0302
7FFF
0630
0C18
180E
3FFF
C01B
1FF8
3000
3FFC
000C
000C
000C
00F8
0030
ENDCHAR
STARTCHAR 243d
ENCODING 9277
SWIDTH 362 0
DWIDTH 16 0
BBX 16 16 0 -2
BITMAP
0100
0302
7FFF
0630
0C18
198E
3187
E18B
3FF8
2180
2180
2186
3FFE
0180
0180
0100
ENDCHAR
STARTCHAR 243e
ENCODING 9278
SWIDTH 362 0
DWIDTH 16 0
BBX 16 16 0 -2
BITMAP
0100
0302
7FFF
0630
0C18
190E
3187
F18F
318C
3188
3188
3388
0300
0600
0C00
3800
ENDCHAR
STARTCHAR 243f
ENCODING 9279
SWIDTH 362 0
DWIDTH 16 0
BBX 16 16 0 -2
BITMAP
0180
0182
7FFF
0240
0430
099F
3387
C240
0530
199F
6187
C180
0180
0180
0180
0100
ENDCHAR
STARTCHAR 2440
ENCODING 9280
SWIDTH 362 0
DWIDTH 16 0
BBX 16 16 0 -2
BITMAP
0300
0600
4404
7FFE
6106
6186
6196
7FF6
6386
6346
6266
663E
6C1E
7006
6006
4004
ENDCHAR
STARTCHAR 2441
ENCODING 9281
SWIDTH 362 0
DWIDTH 16 0
BBX 16 16 0 -2
BITMAP
2002
61FF
6060
6C60
FE63
ECC0
6CC0
6CC2
4CFF
C802
F802
3002
3C06
6606
C07C
0018
ENDCHAR
STARTCHAR 2442
ENCODING 9282
SWIDTH 362 0
DWIDTH 16 0
BBX 16 16 0 -2
BITMAP
2106
61FE
6186
6D86
FD86
ED86
6D86
6D86
4D80
C980
F980
3180
3D81
6781
C1FF
00FF
ENDCHAR
STARTCHAR 2443
ENCODING 9283
SWIDTH 362 0
DWIDTH 16 0
BBX 16 16 0 -2
BITMAP
20C0
60C0
60C0
68C0
FFFC
E8CC
68CC
68CC
48EC
D8FC
F8BC
318C
398C
6F0D
C20F
0407
ENDCHAR
STARTCHAR 2444
ENCODING 9284
SWIDTH 362 0
DWIDTH 16 0
BBX 16 16 0 -2
BITMAP
3006
31FE
300C
3018
F830
3030
3030
3BFF
7030
F030
3030
3030
3030
3030
F0F0
6060
ENDCHAR
STARTCHAR 2445
ENCODING 9285
SWIDTH 362 0
DWIDTH 16 0
BBX 16 16 0 -2
BITMAP
0460
7E40
0C40
18CC
10CC
13FF
1088
3D88
F198
5118
1318
13F0
1078
10CC
F186
2603
ENDCHAR
STARTCHAR 2446
ENCODING 9286
SWIDTH 362 0
DWIDTH 16 0
BBX 16 16 0 -2
BITMAP
0300
4180
7FFF
C003
8004
0180
0082
FFFF
1800
1800
1800
1800
1800
1800
1FFE
0FFE
ENDCHAR
STARTCHAR 2447
ENCODING 9287
SWIDTH 362 0
DWIDTH 16 0
BBX 16 16 0 -2
BITMAP
0300
4180
7FFF
C003
801C
0300
0202
7FFF
0600
0FFC
000C
0008
0008
0018
01F8
0030
ENDCHAR
STARTCHAR 2448
ENCODING 9288
SWIDTH 362 0
DWIDTH 16 0
BBX 16 16 0 -2
BITMAP
0300
4180
7FFF
C003
801C
0000
0002
7FFF
0600
0FFC
000C
0008
0008
0018
01F8
0030
ENDCHAR
STARTCHAR 2449
ENCODING 9289
SWIDTH 362 0
DWIDTH 16 0
BBX 16 16 0 -2
BITMAP
0300
4180
7FFF
C103
8994
1998
1990
1990
1990
1990
1990
1190
3198
619F
C180
0100
ENDCHAR
STARTCHAR 244a
ENCODING 9290
SWIDTH 362 0
DWIDTH 16 0
BBX 16 16 0 -2
BITMAP
0300
4180
7FFF
C003
8864
0FE0
0C60
0C60
0C66
0C60
0C60
0C61
0861
1861
307F
C03F
ENDCHAR
STARTCHAR 244b
ENCODING 9291
SWIDTH 362 0
DWIDTH 16 0
BBX 16 16 0 -2
BITMAP
0180
0180
1DB0
198C
3186
6182
0180
010C
7FFE
0004
0004
1FFC
0004
0004
000C
000C
ENDCHAR
STARTCHAR 244c
ENCODING 9292
SWIDTH 362 0
DWIDTH 16 0
BBX 16 16 0 -2
BITMAP
0180
0180
1DB0
198C
3186
6182
0180
610C
7FFE
6004
6024
6FF4
6004
6004
607C
6008
ENDCHAR
STARTCHAR 244d
ENCODING 9293
SWIDTH 362 0
DWIDTH 16 0
BBX 16 16 0 -2
BITMAP
2006
7FFE
6006
6006
6006
7FFE
6000
6004
67FE
6006
6006
67FE
6006
4006
C006
9FFF
ENDCHAR
STARTCHAR 244e
ENCODING 9294
SWIDTH 362 0
DWIDTH 16 0
BBX 16 16 0 -2
BITMAP
2006
7FFE
6006
6006
7FFE
6004
67FE
6006
6406
6604
6C06
6403
6002
4006
C03E
800C
ENDCHAR
STARTCHAR 244f
ENCODING 9295
SWIDTH 362 0
DWIDTH 16 0
BBX 16 16 0 -2
BITMAP
4006
7FFE
6006
6006
7FFE
6062
6060
6C62
6FFF
6C62
6C62
4C62
4C7E
CC66
8060
8040
ENDCHAR
STARTCHAR 2450
ENCODING 9296
SWIDTH 362 0
DWIDTH 16 0
BBX 16 16 0 -2
BITMAP
4006
7FFE
6006
6006
6006
6006
6490
66D8
6498
6498
6498
4498
4C99
CC99
989F
B08F
ENDCHAR
STARTCHAR 2451
ENCODING 9297
SWIDTH 362 0
DWIDTH 16 0
BBX 16 16 0 -2
BITMAP
7006
6004
7FFC
6004
0000
4004
7FFE
6006
6006
6004
6000
6000
4000
C000
8000
8000
ENDCHAR
STARTCHAR 2452
ENCODING 9298
SWIDTH 362 0
DWIDTH 16 0
BBX 16 16 0 -2
BITMAP
0180
7186
6184
7FFC
0300
4C00
7FFF
C003
9FF4
0060
0380
0600
1802
1002
1FFE
0FFE
ENDCHAR
STARTCHAR 2453
ENCODING 9299
SWIDTH 362 0
DWIDTH 16 0
BBX 16 16 0 -2
BITMAP
1030
1830
1830
DAB6
DAB6
DAB6
DAB6
DAB6
DAB6
DAB4
1830
1030
3031
3031
603F
C01F
ENDCHAR
STARTCHAR 2454
ENCODING 9300
SWIDTH 362 0
DWIDTH 16 0
BBX 16 16 0 -2
BITMAP
0180
7186
6184
7FFC
0300
0D80
1300
0630
0C60
0CC0
0380
0310
0408
19FC
7E06
3000
ENDCHAR
STARTCHAR 2455
ENCODING 9301
SWIDTH 362 0
DWIDTH 16 0
BBX 16 16 0 -2
BITMAP
3020
3030
3010
31FF
F480
B480
B480
B480
B480
B480
B480
B480
FC80
00C0
00FF
0000
ENDCHAR
STARTCHAR 2456
ENCODING 9302
SWIDTH 362 0
DWIDTH 16 0
BBX 16 16 0 -2
BITMAP
3030
3030
3033
3030
F430
B432
B5FF
B406
B40C
B418
B460
B4C0
FD81
0101
01FF
00FF
ENDCHAR
STARTCHAR 2457
ENCODING 9303
SWIDTH 362 0
DWIDTH 16 0
BBX 16 16 0 -2
BITMAP
30C0
30C0
30C0
30C0
F5FC
B4CC
B4CC
B5CC
B4EC
B4FC
B48C
B58C
FD8C
030D
020F
0407
ENDCHAR
STARTCHAR 2458
ENCODING 9304
SWIDTH 362 0
DWIDTH 16 0
BBX 16 16 0 -2
BITMAP
0180
7186
6184
6184
7FFC
0300
0300
0630
0C60
0EC0
0380
0310
0C08
19FC
7F06
3000
ENDCHAR
STARTCHAR 2459
ENCODING 9305
SWIDTH 362 0
DWIDTH 16 0
BBX 16 16 0 -2
BITMAP
0C00
0C00
0C38
1C38
1830
31E0
6070
4118
0180
0180
7186
6184
6184
6184
7FFC
0004
ENDCHAR
STARTCHAR 245a
ENCODING 9306
SWIDTH 362 0
DWIDTH 16 0
BBX 16 16 0 -2
BITMAP
2018
6018
6018
6018
FCDA
64DB
64DA
E4DA
64DA
74DA
7CDA
6DDA
66DA
44DA
C0FE
8002
ENDCHAR
STARTCHAR 245b
ENCODING 9307
SWIDTH 362 0
DWIDTH 16 0
BBX 16 16 0 -2
BITMAP
0180
0083
FFFF
3000
3000
3000
3FFC
0000
108C
198C
118C
118C
318C
318C
618C
C08C
ENDCHAR
STARTCHAR 245c
ENCODING 9308
SWIDTH 362 0
DWIDTH 16 0
BBX 16 16 0 -2
BITMAP
30C0
30C0
30C0
31E0
3318
360C
3806
3FFE
1084
3086
210C
4218
6308
3184
18C6
0842
ENDCHAR
STARTCHAR 245d
ENCODING 9309
SWIDTH 362 0
DWIDTH 16 0
BBX 16 16 0 -2
BITMAP
00FE
7F00
6000
6004
6FFE
6C46
6C46
6C46
6CC6
6C04
6C00
6C00
6C02
4C02
CFFE
87FE
ENDCHAR
STARTCHAR 245e
ENCODING 9310
SWIDTH 362 0
DWIDTH 16 0
BBX 16 16 0 -2
BITMAP
0300
0300
0603
0E70
0C60
09E0
1E60
2466
C7FE
0466
0466
0466
0466
046E
0060
0040
ENDCHAR
STARTCHAR 245f
ENCODING 9311
SWIDTH 362 0
DWIDTH 16 0
BBX 16 16 0 -2
BITMAP
3020
3030
3410
FFFF
B4C0
B4C0
B4C0
B4C0
B4C0
B4C0
B4C0
BCC0
30C0
30C0
30FF
3000
ENDCHAR
STARTCHAR 2460
ENCODING 9312
SWIDTH 362 0
DWIDTH 16 0
BBX 16 16 0 -2
BITMAP
3000
3002
34FE
FE00
B400
B400
B400
B404
B47E
B400
B400
BC00
3000
3000
31FF
3000
ENDCHAR
STARTCHAR 2461
ENCODING 9313
SWIDTH 362 0
DWIDTH 16 0
BBX 16 16 0 -2
BITMAP
0600
0C10
0FF8
1C30
63E0
03E0
0E7F
398F
C180
3FFC
318C
3188
3188
31F8
3190
0100
ENDCHAR
STARTCHAR 2462
ENCODING 9314
SWIDTH 362 0
DWIDTH 16 0
BBX 16 16 0 -2
BITMAP
0180
4083
7FFF
6080
60C0
6062
7FFE
6600
6600
6600
6600
4600
4600
C600
87FE
8000
ENDCHAR
STARTCHAR 2463
ENCODING 9315
SWIDTH 362 0
DWIDTH 16 0
BBX 16 16 0 -2
BITMAP
0180
4083
7FFF
6000
600C
60C0
60C0
60C0
60C6
60C0
60C0
40C0
40C0
C0C0
80C0
80C0
ENDCHAR
STARTCHAR 2464
ENCODING 9316
SWIDTH 362 0
DWIDTH 16 0
BBX 16 16 0 -2
BITMAP
0180
4083
7FFF
60D0
60C8
608C
6082
7FFF
60C0
60C0
6040
4060
4031
C01B
800F
8007
ENDCHAR
STARTCHAR 2465
ENCODING 9317
SWIDTH 362 0
DWIDTH 16 0
BBX 16 16 0 -2
BITMAP
0180
4083
7FFF
60C0
60C0
60BC
63E0
6080
6080
7FFF
6080
4080
4081
C083
80FF
807E
ENDCHAR
STARTCHAR 2466
ENCODING 9318
SWIDTH 362 0
DWIDTH 16 0
BBX 16 16 0 -2
BITMAP
0180
4083
7FFF
60C0
60C0
6180
6310
6618
6730
60E0
60C0
4188
4706
CFFF
8F83
8401
ENDCHAR
STARTCHAR 2467
ENCODING 9319
SWIDTH 362 0
DWIDTH 16 0
BBX 16 16 0 -2
BITMAP
1010
1818
1818
1818
181B
1818
1878
1E58
1BD8
19D8
1BD8
1E78
1818
1818
1FF8
1010
ENDCHAR
STARTCHAR 2468
ENCODING 9320
SWIDTH 362 0
DWIDTH 16 0
BBX 16 16 0 -2
BITMAP
0800
FDFE
0860
0860
4862
4BFF
C060
CC40
FCC6
0CC6
0C06
0C06
0C06
0C04
F87C
3018
ENDCHAR
STARTCHAR 2469
ENCODING 9321
SWIDTH 362 0
DWIDTH 16 0
BBX 16 16 0 -2
BITMAP
0008
7FFC
018C
018C
418C
600C
4000
4002
FFFF
0382
0782
0D86
19BE
318C
E180
0100
ENDCHAR
STARTCHAR 246a
ENCODING 9322
SWIDTH 362 0
DWIDTH 16 0
BBX 16 16 0 -2
BITMAP
0820
FC10
0850
0878
4858
4848
C0C8
CCCC
FCCC
0C86
0D86
0D03
0F03
0E00
F803
3000
ENDCHAR
STARTCHAR 246b
ENCODING 9323
SWIDTH 362 0
DWIDTH 16 0
BBX 16 16 0 -2
BITMAP
0180
0180
3FFC
018C
218C
3188
6186
6386
0386
025E
0434
0818
3007
C002
0003
0000
ENDCHAR
STARTCHAR 246c
ENCODING 9324
SWIDTH 362 0
DWIDTH 16 0
BBX 16 16 0 -2
BITMAP
0018
000C
0008
1FF8
0008
0008
3FF8
0008
000C
000C
0004
1FFC
0004
0004
000C
000C
ENDCHAR
STARTCHAR 246d
ENCODING 9325
SWIDTH 362 0
DWIDTH 16 0
BBX 16 16 0 -2
BITMAP
0060
0060
0860
FC4C
0C4C
0FFF
0CCC
0CCC
7C88
0D88
0D98
0DF0
0C38
0C6E
0083
0301
ENDCHAR
STARTCHAR 246e
ENCODING 9326
SWIDTH 362 0
DWIDTH 16 0
BBX 16 16 0 -2
BITMAP
0100
0980
199C
3186
6182
4180
0198
000C
0008
0008
FFFF
0008
0008
0008
3FF8
0008
ENDCHAR
STARTCHAR 246f
ENCODING 9327
SWIDTH 362 0
DWIDTH 16 0
BBX 16 16 0 -2
BITMAP
0000
7FFE
0200
020C
0238
02E0
0206
020C
0230
02C6
0206
021C
03E0
0300
FFFF
0000
ENDCHAR
STARTCHAR 2470
ENCODING 9328
SWIDTH 362 0
DWIDTH 16 0
BBX 16 16 0 -2
BITMAP
0006
0006
030C
1818
1860
1802
1806
180C
1818
1870
1803
1806
1F8C
F018
C030
00C0
ENDCHAR
STARTCHAR 2471
ENCODING 9329
SWIDTH 362 0
DWIDTH 16 0
BBX 16 16 0 -2
BITMAP
0180
0380
03C0
0660
0C30
181E
3007
D81B
1830
1868
1998
1830
18CC
1918
1860
1380
ENDCHAR
STARTCHAR 2472
ENCODING 9330
SWIDTH 362 0
DWIDTH 16 0
BBX 16 16 0 -2
BITMAP
3004
31FE
3000
3000
7803
FCC0
F0C0
B182
31FF
3002
3002
3002
3006
3006
307C
3018
ENDCHAR
STARTCHAR 2473
ENCODING 9331
SWIDTH 362 0
DWIDTH 16 0
BBX 16 16 0 -2
BITMAP
3002
31FF
3002
3002
7882
FD82
F180
B183
31FF
3003
3003
3003
3003
3006
30FC
3018
ENDCHAR
STARTCHAR 2474
ENCODING 9332
SWIDTH 362 0
DWIDTH 16 0
BBX 16 16 0 -2
BITMAP
3030
3030
3030
3030
78B0
FDB4
F1B4
B1B2
3133
3333
3231
3431
3030
3030
30F0
3060
ENDCHAR
STARTCHAR 2475
ENCODING 9333
SWIDTH 362 0
DWIDTH 16 0
BBX 16 16 0 -2
BITMAP
300E
3078
31E0
3060
7860
FC60
F062
B3FF
3060
3060
3060
3060
3061
3061
307F
303F
ENDCHAR
STARTCHAR 2476
ENCODING 9334
SWIDTH 362 0
DWIDTH 16 0
BBX 16 16 0 -2
BITMAP
0060
0268
7F6C
0366
0260
FFFF
0260
0264
0266
026C
023C
0038
0039
007D
018F
0707
ENDCHAR
STARTCHAR 2477
ENCODING 9335
SWIDTH 362 0
DWIDTH 16 0
BBX 16 16 0 -2
BITMAP
007C
7FC0
6004
7FFE
6006
6006
7FFE
6060
6040
6040
6FFE
6040
4040
4040
8040
8040
ENDCHAR
STARTCHAR 2478
ENCODING 9336
SWIDTH 362 0
DWIDTH 16 0
BBX 16 16 0 -2
BITMAP
007C
7FC0
6004
7FFE
6006
6006
7FFE
6400
6600
661C
67E0
6600
4601
4603
87FF
83FE
ENDCHAR
STARTCHAR 2479
ENCODING 9337
SWIDTH 362 0
DWIDTH 16 0
BBX 16 16 0 -2
BITMAP
1870
106C
1066
1462
FE63
1060
1060
1C60
7820
F030
1030
1010
1019
100D
F007
2003
ENDCHAR
STARTCHAR 247a
ENCODING 9338
SWIDTH 362 0
DWIDTH 16 0
BBX 16 16 0 -2
BITMAP
0300
0180
FFFF
0000
2008
3FFC
300C
300C
300C
3FFC
300C
300C
300C
300C
3FFC
3008
ENDCHAR
STARTCHAR 247b
ENCODING 9339
SWIDTH 362 0
DWIDTH 16 0
BBX 16 16 0 -2
BITMAP
2008
3FFC
3008
3008
3008
3008
3008
3008
3FF8
0000
0002
FFFF
0000
0000
000E
0000
ENDCHAR
STARTCHAR 247c
ENCODING 9340
SWIDTH 362 0
DWIDTH 16 0
BBX 16 16 0 -2
BITMAP
0030
0030
FC20
CC20
CC20
CC20
CC30
FC70
CC70
CC58
CCC8
CCC8
FD8C
8306
0607
0C03
ENDCHAR
STARTCHAR 247d
ENCODING 9341
SWIDTH 362 0
DWIDTH 16 0
BBX 16 16 0 -2
BITMAP
4830
7C30
4C30
4C30
4C30
7C30
4C30
4C30
4C38
4C68
4C68
4CCC
CCC4
CD86
BF03
9E03
ENDCHAR
STARTCHAR 247e
ENCODING 9342
SWIDTH 362 0
DWIDTH 16 0
BBX 16 16 0 -2
BITMAP
0008
3FFC
200C
200C
200C
200C
200C
210C
2180
0183
FFFF
0980
1998
3186
C182
0100
ENDCHAR
STARTCHAR 2521
ENCODING 9505
SWIDTH 362 0
DWIDTH 16 0
BBX 16 16 0 -2
BITMAP
0004
3FFE
0018
0460
0380
01C0
0060
01A0
0180
FFFF
0180
0990
198C
6186
C182
0100
ENDCHAR
STARTCHAR 2522
ENCODING 9506
SWIDTH 362 0
DWIDTH 16 0
BBX 16 16 0 -2
BITMAP
1818
1018
11D8
FD98
1198
3198
3998
3D98
7598
71FF
D018
9018
1018
1019
101F
100F
ENDCHAR
STARTCHAR 2523
ENCODING 9507
SWIDTH 362 0
DWIDTH 16 0
BBX 16 16 0 -2
BITMAP
0180
C180
6180
21FF
0B23
0B26
1620
1030
3070
2070
E0C8
C0CC
618C
6306
6607
1C03
ENDCHAR
STARTCHAR 2524
ENCODING 9508
SWIDTH 362 0
DWIDTH 16 0
BBX 16 16 0 -2
BITMAP
88C0
FCC0
CCC0
CCC3
CCFF
CDB2
CD30
CC30
CC30
CC78
CC68
FC4C
D8C4
C186
C303
C603
ENDCHAR
STARTCHAR 2525
ENCODING 9509
SWIDTH 362 0
DWIDTH 16 0
BBX 16 16 0 -2
BITMAP
0002
FFFF
0000
0000
7FFE
0080
0080
0080
1880
18FC
1880
1880
1880
1880
18C3
0000
ENDCHAR
STARTCHAR 2526
ENCODING 9510
SWIDTH 362 0
DWIDTH 16 0
BBX 16 16 0 -2
BITMAP
01C0
1980
11FC
1180
1180
FFFF
3000
3000
3000
3FFC
3000
3000
3002
3002
3FFE
0000
ENDCHAR
STARTCHAR 2527
ENCODING 9511
SWIDTH 362 0
DWIDTH 16 0
BBX 16 16 0 -2
BITMAP
0630
7E30
3020
3420
3EFF
6623
6623
6423
FC63
9C63
1863
10C3
30C3
2183
433E
860C
ENDCHAR
STARTCHAR 2528
ENCODING 9512
SWIDTH 362 0
DWIDTH 16 0
BBX 16 16 0 -2
BITMAP
0600
7EFC
30C4
34C4
3EC4
66C4
66C4
64C4
FCC4
9CC4
18C4
1084
3184
2305
4607
8C07
ENDCHAR
STARTCHAR 2529
ENCODING 9513
SWIDTH 362 0
DWIDTH 16 0
BBX 16 16 0 -2
BITMAP
3000
3FFE
2000
7FFC
4000
FFFC
800C
0C08
0308
0188
0008
002C
01CC
1F05
3807
0003
ENDCHAR
STARTCHAR 252a
ENCODING 9514
SWIDTH 362 0
DWIDTH 16 0
BBX 16 16 0 -2
BITMAP
3000
3FFE
2000
7FFC
4000
FFFC
800C
00C8
7FE8
0848
0848
184C
184C
30C5
67C7
C183
ENDCHAR
STARTCHAR 252b
ENCODING 9515
SWIDTH 362 0
DWIDTH 16 0
BBX 16 16 0 -2
BITMAP
0300
0183
FFFF
0180
0180
0186
0F8C
07D8
07E0
05A0
0DB0
0998
118E
2187
C780
0300
ENDCHAR
STARTCHAR 252c
ENCODING 9516
SWIDTH 362 0
DWIDTH 16 0
BBX 16 16 0 -2
BITMAP
4002
7FFF
6040
6060
6060
6363
7FF4
6178
6370
6368
6268
466C
4C67
D863
B3E0
80C0
ENDCHAR
STARTCHAR 252d
ENCODING 9517
SWIDTH 362 0
DWIDTH 16 0
BBX 16 16 0 -2
BITMAP
2070
3060
1066
0060
8860
4BFE
7806
100C
3030
3060
6180
E300
6201
6601
67FF
23FF
ENDCHAR
STARTCHAR 252e
ENCODING 9518
SWIDTH 362 0
DWIDTH 16 0
BBX 16 16 0 -2
BITMAP
2004
33FE
1184
0184
8984
49C4
79B4
1194
3184
3184
6184
E184
6304
6305
6607
2C07
ENDCHAR
STARTCHAR 252f
ENCODING 9519
SWIDTH 362 0
DWIDTH 16 0
BBX 16 16 0 -2
BITMAP
2030
3030
1026
007F
89A0
4820
7820
1020
33FF
3020
6020
E020
6020
6021
603F
201F
ENDCHAR
STARTCHAR 2530
ENCODING 9520
SWIDTH 362 0
DWIDTH 16 0
BBX 16 16 0 -2
BITMAP
2060
3240
13C6
01C3
8982
4986
7BC6
1044
306C
3038
6030
E038
604C
6086
6307
2603
ENDCHAR
STARTCHAR 2531
ENCODING 9521
SWIDTH 362 0
DWIDTH 16 0
BBX 16 16 0 -2
BITMAP
20C0
30CC
108C
018C
8988
4918
7B18
1330
3030
3078
6068
E0CC
6184
6306
6603
2C03
ENDCHAR
STARTCHAR 2532
ENCODING 9522
SWIDTH 362 0
DWIDTH 16 0
BBX 16 16 0 -2
BITMAP
0008
3FFC
0C18
0660
03C0
07F8
381F
C183
018C
311C
1BB0
0240
0420
0818
300F
E003
ENDCHAR
STARTCHAR 2533
ENCODING 9523
SWIDTH 362 0
DWIDTH 16 0
BBX 16 16 0 -2
BITMAP
0300
0200
0430
0818
38FC
3E0C
1104
0180
218C
1998
0BC0
0260
0430
0818
300F
E003
ENDCHAR
STARTCHAR 2534
ENCODING 9524
SWIDTH 362 0
DWIDTH 16 0
BBX 16 16 0 -2
BITMAP
0000
0300
0180
03C0
0260
0630
0C18
180C
3007
6003
8000
0000
4846
4463
C623
8221
ENDCHAR
STARTCHAR 2535
ENCODING 9525
SWIDTH 362 0
DWIDTH 16 0
BBX 16 16 0 -2
BITMAP
4602
64FF
4402
4442
4446
FC46
0466
0424
7C3C
4438
4418
4438
442C
C466
C4C7
8583
ENDCHAR
STARTCHAR 2536
ENCODING 9526
SWIDTH 362 0
DWIDTH 16 0
BBX 16 16 0 -2
BITMAP
1800
59FF
5810
5C10
7E10
D810
9810
1810
1C10
F810
D810
1810
1810
1810
18F0
1020
ENDCHAR
STARTCHAR 2537
ENCODING 9527
SWIDTH 362 0
DWIDTH 16 0
BBX 16 16 0 -2
BITMAP
8830
5830
3036
307F
59B0
8830
0830
1C30
3DFF
2C30
4C30
8C30
0C30
0C31
783F
301F
ENDCHAR
STARTCHAR 2538
ENCODING 9528
SWIDTH 362 0
DWIDTH 16 0
BBX 16 16 0 -2
BITMAP
0002
FFFF
0180
0180
0186
0180
0990
1998
1990
1990
1990
319E
619E
4180
0103
0000
ENDCHAR
STARTCHAR 2539
ENCODING 9529
SWIDTH 362 0
DWIDTH 16 0
BBX 16 16 0 -2
BITMAP
0002
FFFF
0100
6180
6180
7FFE
6180
4180
8180
018C
3FFC
0180
0180
0180
0183
0000
ENDCHAR
STARTCHAR 253a
ENCODING 9530
SWIDTH 362 0
DWIDTH 16 0
BBX 16 16 0 -2
BITMAP
2104
6186
6184
61FC
6184
6184
7FFC
6184
6184
6184
7FFC
6184
6184
4184
C184
8104
ENDCHAR
STARTCHAR 253b
ENCODING 9531
SWIDTH 362 0
DWIDTH 16 0
BBX 16 16 0 -2
BITMAP
0008
3FFC
0000
0002
7FFF
0186
0184
1980
1184
11FE
1180
3180
3D80
2780
43FF
80FF
ENDCHAR
STARTCHAR 253c
ENCODING 9532
SWIDTH 362 0
DWIDTH 16 0
BBX 16 16 0 -2
BITMAP
0600
0408
3FFC
3008
3008
3008
3008
3FF8
3188
0180
0180
0180
0180
0180
0180
0100
ENDCHAR
STARTCHAR 253d
ENCODING 9533
SWIDTH 362 0
DWIDTH 16 0
BBX 16 16 0 -2
BITMAP
0600
040C
3FFC
300C
300C
300C
300C
3FFC
3180
0180
0180
0180
0180
0181
01FF
00FE
ENDCHAR
STARTCHAR 253e
ENCODING 9534
SWIDTH 362 0
DWIDTH 16 0
BBX 16 16 0 -2
BITMAP
0002
FFFF
6000
6000
6003
6000
6000
6004
6FFE
6C06
6C06
6C06
4C06
4C06
CFFE
8C04
ENDCHAR
STARTCHAR 253f
ENCODING 9535
SWIDTH 362 0
DWIDTH 16 0
BBX 16 16 0 -2
BITMAP
0002
FFFF
02C0
0640
0660
0C60
1820
3030
703E
D006
1006
1006
1006
1006
1FFE
1004
ENDCHAR
STARTCHAR 2540
ENCODING 9536
SWIDTH 362 0
DWIDTH 16 0
BBX 16 16 0 -2
BITMAP
3000
11FF
0406
7E0C
0C18
1830
1060
3840
74C0
D580
9180
1180
1181
1181
11FF
10FF
ENDCHAR
STARTCHAR 2541
ENCODING 9537
SWIDTH 362 0
DWIDTH 16 0
BBX 16 16 0 -2
BITMAP
007C
3F80
0180
0180
0182
7FFF
0380
07C0
0DB0
1998
318F
6183
8180
0180
7FFE
0000
ENDCHAR
STARTCHAR 2542
ENCODING 9538
SWIDTH 362 0
DWIDTH 16 0
BBX 16 16 0 -2
BITMAP
1800
1800
180C
30C0
2080
4080
0082
7FFF
0080
3080
30CC
30C0
3080
3080
30C3
3000
ENDCHAR
STARTCHAR 2543
ENCODING 9539
SWIDTH 362 0
DWIDTH 16 0
BBX 16 16 0 -2
BITMAP
4006
7FFE
4006
4016
5FFE
539E
4AD6
4E76
4C66
4E76
5BFE
719E
4206
4006
401E
400C
ENDCHAR
STARTCHAR 2544
ENCODING 9540
SWIDTH 362 0
DWIDTH 16 0
BBX 16 16 0 -2
BITMAP
2006
7FFE
6666
6666
6666
6666
6666
6666
0660
0660
0460
0C60
0861
1861
307F
603F
ENDCHAR
STARTCHAR 2545
ENCODING 9541
SWIDTH 362 0
DWIDTH 16 0
BBX 16 16 0 -2
BITMAP
200C
606C
6664
61C4
6664
6C3C
000C
3000
2000
3FFC
2000
2000
2002
3002
3FFE
0000
ENDCHAR
STARTCHAR 2546
ENCODING 9542
SWIDTH 362 0
DWIDTH 16 0
BBX 16 16 0 -2
BITMAP
0180
0100
0126
3FFC
0118
0130
FFFF
0180
0704
0FFE
3860
6060
8060
0060
03E0
00C0
ENDCHAR
STARTCHAR 2547
ENCODING 9543
SWIDTH 362 0
DWIDTH 16 0
BBX 16 16 0 -2
BITMAP
4006
7FFE
6186
6186
63C6
6276
64B6
6996
7186
61C6
6326
6636
781E
6006
601E
400C
ENDCHAR
STARTCHAR 2548
ENCODING 9544
SWIDTH 362 0
DWIDTH 16 0
BBX 16 16 0 -2
BITMAP
0800
7DFF
4810
4810
6810
5810
4810
4810
5810
7810
4810
4810
C810
C810
B8F0
9820
ENDCHAR
STARTCHAR 2549
ENCODING 9545
SWIDTH 362 0
DWIDTH 16 0
BBX 16 16 0 -2
BITMAP
0600
0600
0C30
18F8
3FCC
1004
1018
1818
1B98
18D8
1818
17D8
1618
3018
2078
4030
ENDCHAR
STARTCHAR 254a
ENCODING 9546
SWIDTH 362 0
DWIDTH 16 0
BBX 16 16 0 -2
BITMAP
0180
4184
6186
6186
6346
6666
6C3E
7816
6026
6006
6006
6016
7FF6
6006
7FFE
0004
ENDCHAR
STARTCHAR 254b
ENCODING 9547
SWIDTH 362 0
DWIDTH 16 0
BBX 16 16 0 -2
BITMAP
4242
6666
4666
4666
4666
4666
7E7E
4006
4006
4406
7E7E
4006
4006
4006
7FFE
4002
ENDCHAR
STARTCHAR 254c
ENCODING 9548
SWIDTH 362 0
DWIDTH 16 0
BBX 16 16 0 -2
BITMAP
1C18
1810
FF7F
1810
1810
0000
0003
1800
1800
1800
1800
1800
1800
1800
1FFE
0000
ENDCHAR
STARTCHAR 254d
ENCODING 9549
SWIDTH 362 0
DWIDTH 16 0
BBX 16 16 0 -2
BITMAP
1C18
1A13
FE7F
1810
000C
001C
0030
00E0
0080
0080
0080
0080
0080
0080
0780
0180
ENDCHAR
STARTCHAR 254e
ENCODING 9550
SWIDTH 362 0
DWIDTH 16 0
BBX 16 16 0 -2
BITMAP
1C18
1A13
FE7F
1810
0003
1800
1800
1800
1800
1800
1800
1000
3000
3000
6000
4000
ENDCHAR
STARTCHAR 254f
ENCODING 9551
SWIDTH 362 0
DWIDTH 16 0
BBX 16 16 0 -2
BITMAP
1C18
1A13
FE7F
1810
000E
0006
0036
00C6
0306
1C06
7006
6006
000C
000C
00FC
0038
ENDCHAR
STARTCHAR 2550
ENCODING 9552
SWIDTH 362 0
DWIDTH 16 0
BBX 16 16 0 -2
BITMAP
1C18
1A13
FE7F
1810
0080
60C0
6080
6080
6080
6080
6080
6080
6282
7C82
60FE
407E
ENDCHAR
STARTCHAR 2551
ENCODING 9553
SWIDTH 362 0
DWIDTH 16 0
BBX 16 16 0 -2
BITMAP
1C18
1A13
FE7F
1810
0180
0100
0100
0100
0380
0380
0240
0660
0C38
181C
3007
C002
ENDCHAR
STARTCHAR 2552
ENCODING 9554
SWIDTH 362 0
DWIDTH 16 0
BBX 16 16 0 -2
BITMAP
1C18
1810
FF7F
1810
1810
3FFC
0180
0180
0182
FFFF
0180
0180
0180
0180
0780
0300
ENDCHAR
STARTCHAR 2553
ENCODING 9555
SWIDTH 362 0
DWIDTH 16 0
BBX 16 16 0 -2
BITMAP
0300
0180
0082
7FFF
0380
0280
06C6
0C4C
0C58
1860
3820
6830
8818
080F
0807
0800
ENDCHAR
STARTCHAR 2554
ENCODING 9556
SWIDTH 362 0
DWIDTH 16 0
BBX 16 16 0 -2
BITMAP
0002
7FFF
0180
0300
0F0C
198C
60F8
00E0
01E0
0770
0C58
304C
C0C7
00C3
0F80
0300
ENDCHAR
STARTCHAR 2555
ENCODING 9557
SWIDTH 362 0
DWIDTH 16 0
BBX 16 16 0 -2
BITMAP
0300
0210
1FF8
1818
1FF8
1818
1818
1FF8
1818
1838
1FD8
7818
2018
0018
00F8
0030
ENDCHAR
STARTCHAR 2556
ENCODING 9558
SWIDTH 362 0
DWIDTH 16 0
BBX 16 16 0 -2
BITMAP
00FC
7FC0
6000
6006
7FFE
6080
6088
6CFC
6C8C
6C8C
6C8C
6C8C
6C8C
4FFD
C00F
8007
ENDCHAR
STARTCHAR 2557
ENCODING 9559
SWIDTH 362 0
DWIDTH 16 0
BBX 16 16 0 -2
BITMAP
0008
63FC
300C
100C
000D
F007
3003
23FC
780C
580C
180D
3005
3003
7801
DFFF
03FE
ENDCHAR
STARTCHAR 2558
ENCODING 9560
SWIDTH 362 0
DWIDTH 16 0
BBX 16 16 0 -2
BITMAP
0004
C7FE
6086
2086
0086
F086
3086
6086
708E
709C
3080
3080
6080
F000
DFFF
03FC
ENDCHAR
STARTCHAR 2559
ENCODING 9561
SWIDTH 362 0
DWIDTH 16 0
BBX 16 16 0 -2
BITMAP
00C0
C0C0
60C8
23FC
00C8
F0C8
30C8
60C8
7088
7188
3189
330F
660F
F000
DFFF
03FC
ENDCHAR
STARTCHAR 255a
ENCODING 9562
SWIDTH 362 0
DWIDTH 16 0
BBX 16 16 0 -2
BITMAP
0122
7F3F
0032
0036
01B4
603C
6036
4132
FFB3
01B1
01B1
01BF
0137
0330
3F30
0E30
ENDCHAR
STARTCHAR 255b
ENCODING 9563
SWIDTH 362 0
DWIDTH 16 0
BBX 16 16 0 -2
BITMAP
0222
FF7F
0366
0364
C36C
C36C
C366
C262
C063
C061
C063
C163
CE7E
F864
E060
4060
ENDCHAR
STARTCHAR 255c
ENCODING 9564
SWIDTH 362 0
DWIDTH 16 0
BBX 16 16 0 -2
BITMAP
0C22
0C3F
0FB2
7C36
0834
083C
0836
FFF2
0833
0831
0831
083F
0837
0FB0
0E30
0430
ENDCHAR
STARTCHAR 255d
ENCODING 9565
SWIDTH 362 0
DWIDTH 16 0
BBX 16 16 0 -2
BITMAP
8830
FD13
C9FF
D900
D100
D100
D900
C900
CD00
CD00
CD00
FF00
DB00
C200
C200
C400
ENDCHAR
STARTCHAR 255e
ENCODING 9566
SWIDTH 362 0
DWIDTH 16 0
BBX 16 16 0 -2
BITMAP
4002
7FFF
6240
6660
6662
7658
7ED8
6E98
6618
6618
6618
4618
4418
CC18
8878
9030
ENDCHAR
STARTCHAR 255f
ENCODING 9567
SWIDTH 362 0
DWIDTH 16 0
BBX 16 16 0 -2
BITMAP
0000
7FFF
0100
1980
1980
1FF8
1180
2180
4182
7FFF
0640
0640
0441
0841
307F
E07F
ENDCHAR
STARTCHAR 2560
ENCODING 9568
SWIDTH 362 0
DWIDTH 16 0
BBX 16 16 0 -2
BITMAP
0180
0180
0180
7FFE
6186
6186
6186
6184
0188
01FC
0008
0108
01F8
0180
0180
0100
ENDCHAR
STARTCHAR 2561
ENCODING 9569
SWIDTH 362 0
DWIDTH 16 0
BBX 16 16 0 -2
BITMAP
007C
3F80
0180
1998
1998
FFFF
1998
1190
018C
0180
0180
0183
FFFF
0180
0180
0100
ENDCHAR
STARTCHAR 2562
ENCODING 9570
SWIDTH 362 0
DWIDTH 16 0
BBX 16 16 0 -2
BITMAP
007E
7FC0
60C0
60C4
6FFC
60C0
6FFE
60C6
60DE
60C4
6FFC
68C4
68CC
48DC
C8C8
80C0
ENDCHAR
STARTCHAR 2563
ENCODING 9571
SWIDTH 362 0
DWIDTH 16 0
BBX 16 16 0 -2
BITMAP
0000
FF7F
2C18
2C18
2D98
6F98
C718
0018
FF18
3018
3618
2318
0218
0218
1E78
0C18
ENDCHAR
STARTCHAR 2564
ENCODING 9572
SWIDTH 362 0
DWIDTH 16 0
BBX 16 16 0 -2
BITMAP
2004
3FFE
21C6
2186
27F6
2186
2196
3FFE
2026
27F6
2066
2186
6186
6186
C79E
818C
ENDCHAR
STARTCHAR 2565
ENCODING 9573
SWIDTH 362 0
DWIDTH 16 0
BBX 16 16 0 -2
BITMAP
0004
7FFE
0000
6004
7FFE
6026
67E6
6466
67E6
6406
6406
67FC
63F8
6000
6003
0000
ENDCHAR
STARTCHAR 2566
ENCODING 9574
SWIDTH 362 0
DWIDTH 16 0
BBX 16 16 0 -2
BITMAP
0004
7FFE
0000
6004
7FFE
6026
67E6
6466
67E6
6406
6606
67E6
601E
6004
0003
0000
ENDCHAR
STARTCHAR 2567
ENCODING 9575
SWIDTH 362 0
DWIDTH 16 0
BBX 16 16 0 -2
BITMAP
0000
7FFE
0000
0000
31FC
310C
310C
310C
31FC
310C
310C
310C
31FC
3108
0002
FFFF
ENDCHAR
STARTCHAR 2568
ENCODING 9576
SWIDTH 362 0
DWIDTH 16 0
BBX 16 16 0 -2
BITMAP
0004
7FFE
1030
1830
1B30
3330
233C
7B37
CE33
0630
0C30
1830
6030
C030
0003
0000
ENDCHAR
STARTCHAR 2569
ENCODING 9577
SWIDTH 362 0
DWIDTH 16 0
BBX 16 16 0 -2
BITMAP
0660
6666
6666
6666
7E7E
0664
0660
05C0
0180
0180
0380
0660
0C30
181C
3007
C003
ENDCHAR
STARTCHAR 256a
ENCODING 9578
SWIDTH 362 0
DWIDTH 16 0
BBX 16 16 0 -2
BITMAP
0C04
19FC
1800
1000
3003
3000
7000
D000
91FE
1106
1106
1106
1106
1106
11FE
1102
ENDCHAR
STARTCHAR 256b
ENCODING 9579
SWIDTH 362 0
DWIDTH 16 0
BBX 16 16 0 -2
BITMAP
1C08
1BFC
180C
300C
300F
7040
7060
B060
37FC
3664
3664
366C
367C
3268
3060
3040
ENDCHAR
STARTCHAR 256c
ENCODING 9580
SWIDTH 362 0
DWIDTH 16 0
BBX 16 16 0 -2
BITMAP
0C34
1836
1822
13FF
3020
3020
703E
D08E
908C
10CC
1048
1038
1030
1078
118F
1706
ENDCHAR
STARTCHAR 256d
ENCODING 9581
SWIDTH 362 0
DWIDTH 16 0
BBX 16 16 0 -2
BITMAP
0C70
1866
1862
1060
37FF
3060
7070
F0F0
B0F8
31EC
316E
3267
3463
3860
3060
3060
ENDCHAR
STARTCHAR 256e
ENCODING 9582
SWIDTH 362 0
DWIDTH 16 0
BBX 16 16 0 -2
BITMAP
0C70
1860
1860
1062
37FF
3060
7070
F0F0
B0F8
31EC
316E
3267
3463
3860
3062
37FF
ENDCHAR
STARTCHAR 256f
ENCODING 9583
SWIDTH 362 0
DWIDTH 16 0
BBX 16 16 0 -2
BITMAP
0C70
1860
1863
1070
30D8
308C
7107
D663
9044
13FE
1046
10C6
1086
1184
137C
1618
ENDCHAR
STARTCHAR 2570
ENCODING 9584
SWIDTH 362 0
DWIDTH 16 0
BBX 16 16 0 -2
BITMAP
0D04
19FE
1906
1106
3106
3106
7106
D1FE
9104
1000
1004
11FE
1000
1000
1003
1000
ENDCHAR
STARTCHAR 2571
ENCODING 9585
SWIDTH 362 0
DWIDTH 16 0
BBX 16 16 0 -2
BITMAP
0D80
1980
1902
13FF
3360
3660
7460
F060
B07E
3060
3060
3060
3060
3060
3063
3000
ENDCHAR
STARTCHAR 2572
ENCODING 9586
SWIDTH 362 0
DWIDTH 16 0
BBX 16 16 0 -2
BITMAP
0D80
1980
1900
13FF
3220
3620
7020
F1A0
B124
3326
3223
3623
3C20
3020
31E0
3060
ENDCHAR
STARTCHAR 2573
ENCODING 9587
SWIDTH 362 0
DWIDTH 16 0
BBX 16 16 0 -2
BITMAP
0C06
197F
19C0
1100
3103
3100
7120
D160
9162
117F
1160
1360
1360
1261
167F
143F
ENDCHAR
STARTCHAR 2574
ENCODING 9588
SWIDTH 362 0
DWIDTH 16 0
BBX 16 16 0 -2
BITMAP
00C0
0C30
1C1C
3307
C730
0C18
1CFC
3C04
11C0
1980
19FC
798C
1991
1803
1FFF
0FFE
ENDCHAR
STARTCHAR 2575
ENCODING 9589
SWIDTH 362 0
DWIDTH 16 0
BBX 16 16 0 -2
BITMAP
0300
0180
FFFF
0010
1FF8
1818
1818
1818
1FF0
0660
0460
0C60
0C61
1861
307F
C03F
ENDCHAR
STARTCHAR 2576
ENCODING 9590
SWIDTH 362 0
DWIDTH 16 0
BBX 16 16 0 -2
BITMAP
0010
0430
0220
3FFE
2006
2006
3006
3004
2330
2330
2230
2230
6631
4C31
D83F
B01F
ENDCHAR
STARTCHAR 2577
ENCODING 9591
SWIDTH 362 0
DWIDTH 16 0
BBX 16 16 0 -2
BITMAP
0600
0C30
1FF0
3064
7FFE
3006
3006
3FFE
3334
3330
3330
3330
2231
6631
4C3F
981F
ENDCHAR
STARTCHAR 2578
ENCODING 9592
SWIDTH 362 0
DWIDTH 16 0
BBX 16 16 0 -2
BITMAP
0030
1FF0
1800
1808
1FF8
1800
1FF8
1800
1803
0C60
0C70
0C60
0861
1861
307F
C03F
ENDCHAR
STARTCHAR 2579
ENCODING 9593
SWIDTH 362 0
DWIDTH 16 0
BBX 16 16 0 -2
BITMAP
0180
03C0
0660
0C38
1FFF
6186
8188
01FC
0180
3FF8
0818
0660
03C0
07E0
1C3F
F00F
ENDCHAR
STARTCHAR 257a
ENCODING 9594
SWIDTH 362 0
DWIDTH 16 0
BBX 16 16 0 -2
BITMAP
1C18
1810
1833
1830
1810
1810
1FF0
0810
0006
0080
00C0
0660
0C30
1818
300F
C002
ENDCHAR
STARTCHAR 257b
ENCODING 9595
SWIDTH 362 0
DWIDTH 16 0
BBX 16 16 0 -2
BITMAP
0600
0600
3C18
300C
3008
3008
3FF8
3008
3008
3FF8
0008
0C10
180C
1806
3003
6001
ENDCHAR
STARTCHAR 257c
ENCODING 9596
SWIDTH 362 0
DWIDTH 16 0
BBX 16 16 0 -2
BITMAP
0078
1FC0
1800
1804
1FFE
1830
1830
1830
1833
0080
00C0
0660
0C30
1818
300F
C002
ENDCHAR
STARTCHAR 257d
ENCODING 9597
SWIDTH 362 0
DWIDTH 16 0
BBX 16 16 0 -2
BITMAP
0440
0E20
0C18
180E
3307
C303
2608
3FFC
3008
3008
3008
3008
3008
3008
3008
3008
ENDCHAR
STARTCHAR 257e
ENCODING 9598
SWIDTH 362 0
DWIDTH 16 0
BBX 16 16 0 -2
BITMAP
0440
0E20
0C18
180E
3007
C003
300C
300C
203C
266C
23CC
23CC
266C
3C3C
300C
300C
ENDCHAR
STARTCHAR 2621
ENCODING 9761
SWIDTH 362 0
DWIDTH 16 0
BBX 16 16 0 -2
BITMAP
4006
7FFE
4206
4306
4196
5FFE
4006
4FF6
4C36
4C26
4C26
4FE6
4C26
4006
401E
400C
ENDCHAR
STARTCHAR 2622
ENCODING 9762
SWIDTH 362 0
DWIDTH 16 0
BBX 16 16 0 -2
BITMAP
0180
0180
4184
7FFE
6186
6DB6
65B6
65E6
6186
63E6
6DB6
799E
6186
6186
619E
410C
ENDCHAR
STARTCHAR 2623
ENCODING 9763
SWIDTH 362 0
DWIDTH 16 0
BBX 16 16 0 -2
BITMAP
4006
7FFE
4186
4986
4DB6
49B6
4DB6
49A6
4186
5D9E
5996
5996
5FF6
4016
401E
400C
ENDCHAR
STARTCHAR 2624
ENCODING 9764
SWIDTH 362 0
DWIDTH 16 0
BBX 16 16 0 -2
BITMAP
0070
C060
60F0
2098
090E
0BFF
1400
11C0
3180
21FE
E180
C180
6180
6182
61FE
00FE
ENDCHAR
STARTCHAR 2625
ENCODING 9765
SWIDTH 362 0
DWIDTH 16 0
BBX 16 16 0 -2
BITMAP
0180
6187
519E
4DB6
4DB6
45E6
7FFE
4802
0FF0
0830
0830
0830
1831
1031
303F
C01F
ENDCHAR
STARTCHAR 2626
ENCODING 9766
SWIDTH 362 0
DWIDTH 16 0
BBX 16 16 0 -2
BITMAP
3018
300C
2188
2188
21E8
2188
2188
21A8
3FE8
2308
2348
2668
6CED
6F2D
4407
8003
ENDCHAR
STARTCHAR 2627
ENCODING 9767
SWIDTH 362 0
DWIDTH 16 0
BBX 16 16 0 -2
BITMAP
6018
600C
6188
6148
6D68
6D68
6F68
6F48
6108
6D68
6968
6968
6F6D
486D
C007
8003
ENDCHAR
STARTCHAR 2628
ENCODING 9768
SWIDTH 362 0
DWIDTH 16 0
BBX 16 16 0 -2
BITMAP
0008
3FFC
0180
19B0
1FF8
7917
5B96
5BD6
5A76
5C36
5816
58F6
5876
4006
C006
4006
ENDCHAR
STARTCHAR 2629
ENCODING 9769
SWIDTH 362 0
DWIDTH 16 0
BBX 16 16 0 -2
BITMAP
0C03
0C03
0D9A
1812
1E12
3312
6192
5C92
9812
1812
1012
3212
2302
7F02
E11E
0006
ENDCHAR
STARTCHAR 262a
ENCODING 9770
SWIDTH 362 0
DWIDTH 16 0
BBX 16 16 0 -2
BITMAP
0C03
1C03
1A32
3332
61A2
FEA2
8022
3022
2022
3F22
2022
2022
2002
2102
3F1E
1F06
ENDCHAR
STARTCHAR 262b
ENCODING 9771
SWIDTH 362 0
DWIDTH 16 0
BBX 16 16 0 -2
BITMAP
1003
1803
301A
3312
6312
FD92
4112
3792
3D92
6D92
4B12
9212
CB02
6D82
359E
3686
ENDCHAR
STARTCHAR 262c
ENCODING 9772
SWIDTH 362 0
DWIDTH 16 0
BBX 16 16 0 -2
BITMAP
4003
6003
609A
7FD2
5E92
5E92
DE92
FE92
B692
1792
3612
2612
6642
47C2
C3DE
8006
ENDCHAR
STARTCHAR 262d
ENCODING 9773
SWIDTH 362 0
DWIDTH 16 0
BBX 16 16 0 -2
BITMAP
3030
1830
0B30
1832
30FF
2633
6632
6632
1E32
0F22
1A62
3242
63DE
C305
83FF
01FF
ENDCHAR
STARTCHAR 262e
ENCODING 9774
SWIDTH 362 0
DWIDTH 16 0
BBX 16 16 0 -2
BITMAP
0660
044C
7FFE
7FFC
6442
7FFF
0C42
184E
6304
0304
7FFE
0206
0406
0804
307C
E018
ENDCHAR
STARTCHAR 262f
ENCODING 9775
SWIDTH 362 0
DWIDTH 16 0
BBX 16 16 0 -2
BITMAP
00C0
1CC0
7080
21FF
21EB
216B
3F6B
327B
205B
20DB
20B3
25B3
3B63
32C3
019E
000C
ENDCHAR
STARTCHAR 2630
ENCODING 9776
SWIDTH 362 0
DWIDTH 16 0
BBX 16 16 0 -2
BITMAP
41C0
6180
4182
41B0
4130
7E30
4030
4033
43FF
4030
4028
4C64
70C6
6083
4103
0601
ENDCHAR
STARTCHAR 2631
ENCODING 9777
SWIDTH 362 0
DWIDTH 16 0
BBX 16 16 0 -2
BITMAP
3000
3000
3FFC
2000
2000
3FFE
1FFE
0000
1C18
1813
FFFF
1810
1FF0
1810
1830
1830
ENDCHAR
STARTCHAR 2632
ENCODING 9778
SWIDTH 362 0
DWIDTH 16 0
BBX 16 16 0 -2
BITMAP
3000
3000
3FFC
2000
3000
3FFE
1FFE
1800
1804
3FFC
6180
7FFF
0340
0638
0C0E
7003
ENDCHAR
STARTCHAR 2633
ENCODING 9779
SWIDTH 362 0
DWIDTH 16 0
BBX 16 16 0 -2
BITMAP
0180
0380
0640
0DB0
199E
31F7
C180
018C
7FFC
1800
1008
1FFC
1002
1002
1FFE
0FFE
ENDCHAR
STARTCHAR 2634
ENCODING 9780
SWIDTH 362 0
DWIDTH 16 0
BBX 16 16 0 -2
BITMAP
4002
7FFF
40C0
40C0
40C6
5FFE
40C0
40C0
47F8
4618
4618
4618
4618
4618
C003
4000
ENDCHAR
STARTCHAR 2635
ENCODING 9781
SWIDTH 362 0
DWIDTH 16 0
BBX 16 16 0 -2
BITMAP
4002
7FFF
4040
4660
4640
47FC
4C40
4840
40CC
40C0
4040
4040
40C6
4000
C003
4000
ENDCHAR
STARTCHAR 2636
ENCODING 9782
SWIDTH 362 0
DWIDTH 16 0
BBX 16 16 0 -2
BITMAP
0002
FFFF
4002
5FFF
4040
4844
4FFE
48E6
4896
499E
4F06
4C1E
480C
6000
7FFF
0000
ENDCHAR
STARTCHAR 2637
ENCODING 9783
SWIDTH 362 0
DWIDTH 16 0
BBX 16 16 0 -2
BITMAP
0002
FFFF
40C0
40C8
46CC
44C8
4CC8
44C8
4CCC
4CCC
4CCC
4CCC
4FFC
6000
7FFF
0000
ENDCHAR
STARTCHAR 2638
ENCODING 9784
SWIDTH 362 0
DWIDTH 16 0
BBX 16 16 0 -2
BITMAP
0002
FFFF
4410
4618
4798
46D8
4C9E
4D9A
539B
6318
4318
4618
5818
6000
7FFF
0000
ENDCHAR
STARTCHAR 2639
ENCODING 9785
SWIDTH 362 0
DWIDTH 16 0
BBX 16 16 0 -2
BITMAP
1C18
9810
D810
7810
3810
1813
FFFF
1810
1810
1810
191C
1D96
36D3
3251
6010
C010
ENDCHAR
STARTCHAR 263a
ENCODING 9786
SWIDTH 362 0
DWIDTH 16 0
BBX 16 16 0 -2
BITMAP
0004
7FFC
0180
318C
19B0
0B80
0670
0C1C
3107
C181
0182
FFFF
0180
0180
0180
0100
ENDCHAR
STARTCHAR 263b
ENCODING 9787
SWIDTH 362 0
DWIDTH 16 0
BBX 16 16 0 -2
BITMAP
0098
7DF8
1198
1198
1198
3F99
E11F
420F
0580
0180
0182
FFFF
0180
0180
0180
0100
ENDCHAR
STARTCHAR 263c
ENCODING 9788
SWIDTH 362 0
DWIDTH 16 0
BBX 16 16 0 -2
BITMAP
0180
0182
01FF
0180
4186
7FFE
4306
4376
5FFE
4666
4666
4FC6
41C6
43F6
4636
5806
ENDCHAR
STARTCHAR 263d
ENCODING 9789
SWIDTH 362 0
DWIDTH 16 0
BBX 16 16 0 -2
BITMAP
4002
7FFF
60C0
60C0
60C4
6FFC
60C0
60C0
60C6
60C0
6180
4110
4308
C7FC
8F86
8400
ENDCHAR
STARTCHAR 263e
ENCODING 9790
SWIDTH 362 0
DWIDTH 16 0
BBX 16 16 0 -2
BITMAP
4002
7FFF
6040
6060
6C44
6C46
6C46
6FFE
6044
6C46
6C46
4846
4FFE
C042
8040
8040
ENDCHAR
STARTCHAR 263f
ENCODING 9791
SWIDTH 362 0
DWIDTH 16 0
BBX 16 16 0 -2
BITMAP
4002
7FFF
6700
6600
660C
66C0
6C40
6840
6042
7FFF
60E0
41B0
4118
C20C
8407
9802
ENDCHAR
STARTCHAR 2640
ENCODING 9792
SWIDTH 362 0
DWIDTH 16 0
BBX 16 16 0 -2
BITMAP
0700
0600
0C30
1818
3FFC
300C
4003
C1C3
C18E
3FFC
3188
3188
3188
31F8
3190
0100
ENDCHAR
STARTCHAR 2641
ENCODING 9793
SWIDTH 362 0
DWIDTH 16 0
BBX 16 16 0 -2
BITMAP
0700
0600
0C30
1818
3FFC
318C
218C
318C
218C
3FFC
0180
0188
1FF8
0180
0182
FFFF
ENDCHAR
STARTCHAR 2642
ENCODING 9794
SWIDTH 362 0
DWIDTH 16 0
BBX 16 16 0 -2
BITMAP
0180
0102
7FFF
4644
3C38
1818
300F
7FFB
8838
0C30
0660
03C0
03C0
0670
181F
F00E
ENDCHAR
STARTCHAR 2643
ENCODING 9795
SWIDTH 362 0
DWIDTH 16 0
BBX 16 16 0 -2
BITMAP
0180
018C
7FFE
6184
7FFC
6184
7FFC
0188
7FFC
0818
0C30
0660
03C0
07E0
1C3F
F00E
ENDCHAR
STARTCHAR 2644
ENCODING 9796
SWIDTH 362 0
DWIDTH 16 0
BBX 16 16 0 -2
BITMAP
4200
7FFE
4246
4246
4246
7E46
3264
322C
FF2C
3338
3238
2238
622C
4646
DEC3
8D81
ENDCHAR
STARTCHAR 2645
ENCODING 9797
SWIDTH 362 0
DWIDTH 16 0
BBX 16 16 0 -2
BITMAP
1018
1FF8
1018
1018
1018
1FF8
0000
7FFC
000C
0008
0008
FFFF
0C10
180C
3006
6002
ENDCHAR
STARTCHAR 2646
ENCODING 9798
SWIDTH 362 0
DWIDTH 16 0
BBX 16 16 0 -2
BITMAP
0104
01FE
D986
D986
D986
DBFF
D986
D986
D986
DBFF
D986
F986
C186
0186
019E
010C
ENDCHAR
STARTCHAR 2647
ENCODING 9799
SWIDTH 362 0
DWIDTH 16 0
BBX 16 16 0 -2
BITMAP
0000
03FF
D840
CC40
C8C4
C8FE
C8C6
C886
C884
C984
C9FC
F80C
C80C
0008
000F
0000
ENDCHAR
STARTCHAR 2648
ENCODING 9800
SWIDTH 362 0
DWIDTH 16 0
BBX 16 16 0 -2
BITMAP
1008
1FFC
1008
1008
1008
1FF8
0000
FFFF
6260
6260
6660
6C3E
781E
6000
7FFE
3FFF
ENDCHAR
STARTCHAR 2649
ENCODING 9801
SWIDTH 362 0
DWIDTH 16 0
BBX 16 16 0 -2
BITMAP
1008
1FFC
1008
1008
1FF8
1000
0002
FFFF
1D98
1990
1990
1990
1991
3191
619F
C10F
ENDCHAR
STARTCHAR 264a
ENCODING 9802
SWIDTH 362 0
DWIDTH 16 0
BBX 16 16 0 -2
BITMAP
0810
1FF8
1810
1810
1810
1810
1FF0
0000
4006
7FFE
4186
4186
4186
4186
7FFE
4002
ENDCHAR
STARTCHAR 264b
ENCODING 9803
SWIDTH 362 0
DWIDTH 16 0
BBX 16 16 0 -2
BITMAP
0030
0030
D830
D830
D9B0
D930
D932
D930
D930
D930
D930
FB30
C330
03B0
04FF
083E
ENDCHAR
STARTCHAR 264c
ENCODING 9804
SWIDTH 362 0
DWIDTH 16 0
BBX 16 16 0 -2
BITMAP
00C0
00C0
D9FF
D900
DB06
DA00
D804
D9FE
D81C
D830
D860
F8C0
C101
0301
03FF
01FF
ENDCHAR
STARTCHAR 264d
ENCODING 9805
SWIDTH 362 0
DWIDTH 16 0
BBX 16 16 0 -2
BITMAP
0008
03FC
D8C8
D8C8
D8C8
DBF8
D8C8
D8C8
D8E8
D8C8
D8C8
F888
C188
0309
060F
0C07
ENDCHAR
STARTCHAR 264e
ENCODING 9806
SWIDTH 362 0
DWIDTH 16 0
BBX 16 16 0 -2
BITMAP
0018
03F8
D998
D998
D998
D994
D9BE
D986
D94C
DB4C
DB38
FA30
C638
046C
0CC7
0B02
ENDCHAR
STARTCHAR 264f
ENCODING 9807
SWIDTH 362 0
DWIDTH 16 0
BBX 16 16 0 -2
BITMAP
1018
0E70
01C0
03E0
0E18
3B0C
4300
7FFF
0600
0408
0FFC
1C0C
3C08
6C08
0C08
0C08
ENDCHAR
STARTCHAR 2650
ENCODING 9808
SWIDTH 362 0
DWIDTH 16 0
BBX 16 16 0 -2
BITMAP
1C00
180C
1FFE
3364
6664
0CC4
198C
337C
0E18
0010
1FF8
1018
1018
1018
1018
1018
ENDCHAR
STARTCHAR 2651
ENCODING 9809
SWIDTH 362 0
DWIDTH 16 0
BBX 16 16 0 -2
BITMAP
4006
7FFE
4206
4106
419E
4386
4106
4306
4206
4626
4C36
59FE
5E1E
5806
7FFE
4002
ENDCHAR
STARTCHAR 2652
ENCODING 9810
SWIDTH 362 0
DWIDTH 16 0
BBX 16 16 0 -2
BITMAP
4006
7FFE
4016
5EFE
569E
569E
5E56
4C76
4C76
4E76
4B56
519E
7106
4006
7FFE
4002
ENDCHAR
STARTCHAR 2653
ENCODING 9811
SWIDTH 362 0
DWIDTH 16 0
BBX 16 16 0 -2
BITMAP
4006
7FFE
4026
4FF6
4C26
4C26
4FE6
4C06
4C06
47FE
4006
4006
5FFE
4006
7FFE
4002
ENDCHAR
STARTCHAR 2654
ENCODING 9812
SWIDTH 362 0
DWIDTH 16 0
BBX 16 16 0 -2
BITMAP
4006
7FFE
4006
4FF6
4236
4226
4226
5FFE
4226
4226
4226
4226
4FE6
4006
7FFE
4002
ENDCHAR
STARTCHAR 2655
ENCODING 9813
SWIDTH 362 0
DWIDTH 16 0
BBX 16 16 0 -2
BITMAP
4006
7FFE
4006
5FF6
5996
5996
5996
5FF6
5806
580E
580E
5FFE
4FFE
4006
7FFE
4002
ENDCHAR
STARTCHAR 2656
ENCODING 9814
SWIDTH 362 0
DWIDTH 16 0
BBX 16 16 0 -2
BITMAP
4006
7FFE
401E
5FFE
4186
59F6
5986
5996
5FFE
401E
401E
4036
41F6
4026
7FFE
4002
ENDCHAR
STARTCHAR 2657
ENCODING 9815
SWIDTH 362 0
DWIDTH 16 0
BBX 16 16 0 -2
BITMAP
4006
7FFE
403E
4306
4306
4266
4466
4CC6
4386
4366
4636
4DFE
5E1E
4806
7FFE
4002
ENDCHAR
STARTCHAR 2658
ENCODING 9816
SWIDTH 362 0
DWIDTH 16 0
BBX 16 16 0 -2
BITMAP
4006
7FFE
4006
4836
4FF6
4836
4836
4836
4C36
4C36
4006
4016
5FFE
4006
7FFE
4002
ENDCHAR
STARTCHAR 2659
ENCODING 9817
SWIDTH 362 0
DWIDTH 16 0
BBX 16 16 0 -2
BITMAP
4006
7FFE
4126
5FE6
4666
4666
467E
4666
4666
4666
4466
4C66
5866
5006
7FFE
4002
ENDCHAR
STARTCHAR 265a
ENCODING 9818
SWIDTH 362 0
DWIDTH 16 0
BBX 16 16 0 -2
BITMAP
4006
7FFE
4006
59F6
5F86
5986
59BE
58C6
58C6
58C6
594E
5E6E
583E
401E
7FFE
4002
ENDCHAR
STARTCHAR 265b
ENCODING 9819
SWIDTH 362 0
DWIDTH 16 0
BBX 16 16 0 -2
BITMAP
4006
7FFE
4186
46C6
4666
4C36
4C7E
536E
4266
4666
4466
49E6
50C6
4006
7FFE
4002
ENDCHAR
STARTCHAR 265c
ENCODING 9820
SWIDTH 362 0
DWIDTH 16 0
BBX 16 16 0 -2
BITMAP
4006
7FFE
4186
46C6
4666
4C36
4B1E
530E
4246
4666
4C36
5F1E
4C06
4006
7FFE
4002
ENDCHAR
STARTCHAR 265d
ENCODING 9821
SWIDTH 362 0
DWIDTH 16 0
BBX 16 16 0 -2
BITMAP
3000
31FF
3030
3030
FC30
3030
3030
3032
31FE
3030
3030
3C30
7030
E030
0033
0000
ENDCHAR
STARTCHAR 265e
ENCODING 9822
SWIDTH 362 0
DWIDTH 16 0
BBX 16 16 0 -2
BITMAP
0018
1FF8
0000
7FFE
0420
0420
0C20
0820
1020
2180
0180
1FFC
0180
0180
0182
FFFF
ENDCHAR
STARTCHAR 265f
ENCODING 9823
SWIDTH 362 0
DWIDTH 16 0
BBX 16 16 0 -2
BITMAP
3004
31FE
3006
3006
FDFC
3180
3186
3106
3006
3006
3006
3C0C
707C
E008
0003
0000
ENDCHAR
STARTCHAR 2660
ENCODING 9824
SWIDTH 362 0
DWIDTH 16 0
BBX 16 16 0 -2
BITMAP
3002
33FF
3030
3030
FC60
30C6
3186
318C
3078
3030
3060
3C40
70C6
E19F
03E3
0101
ENDCHAR
STARTCHAR 2661
ENCODING 9825
SWIDTH 362 0
DWIDTH 16 0
BBX 16 16 0 -2
BITMAP
0180
0180
1188
1998
1198
7DBE
1198
1198
1198
7DFE
0180
0180
0181
0181
01FF
00FF
ENDCHAR
STARTCHAR 2662
ENCODING 9826
SWIDTH 362 0
DWIDTH 16 0
BBX 16 16 0 -2
BITMAP
3180
3106
33FE
3300
FB0C
3000
3000
33FC
300C
300C
300C
3C0C
700C
E005
0007
0003
ENDCHAR
STARTCHAR 2663
ENCODING 9827
SWIDTH 362 0
DWIDTH 16 0
BBX 16 16 0 -2
BITMAP
3084
31FE
3184
3184
FD8E
318C
3184
3184
33FF
3184
3184
3D84
7184
E304
023C
0408
ENDCHAR
STARTCHAR 2664
ENCODING 9828
SWIDTH 362 0
DWIDTH 16 0
BBX 16 16 0 -2
BITMAP
3180
3180
3183
3103
FF03
3213
31FB
3193
30F3
3073
30DB
3D8B
7203
E006
003E
000C
ENDCHAR
STARTCHAR 2665
ENCODING 9829
SWIDTH 362 0
DWIDTH 16 0
BBX 16 16 0 -2
BITMAP
0180
0198
1998
3D98
6598
C794
FFB2
01E3
0180
0184
7FFE
0180
0180
0180
0183
0000
ENDCHAR
STARTCHAR 2666
ENCODING 9830
SWIDTH 362 0
DWIDTH 16 0
BBX 16 16 0 -2
BITMAP
0100
318C
318C
218C
3FFC
0188
0180
7FFF
0100
0180
018C
0180
0180
0180
0183
0000
ENDCHAR
STARTCHAR 2667
ENCODING 9831
SWIDTH 362 0
DWIDTH 16 0
BBX 16 16 0 -2
BITMAP
0604
04FE
644C
344C
1438
0C38
083C
1867
3183
4100
0180
018C
7FFC
0180
0182
FFFF
ENDCHAR
STARTCHAR 2668
ENCODING 9832
SWIDTH 362 0
DWIDTH 16 0
BBX 16 16 0 -2
BITMAP
1800
1804
3FFE
2046
5FE6
0046
1FE6
0004
007C
0118
0180
018C
7FFC
0180
0182
FFFF
ENDCHAR
STARTCHAR 2669
ENCODING 9833
SWIDTH 362 0
DWIDTH 16 0
BBX 16 16 0 -2
BITMAP
4618
6410
6410
6410
6410
7C14
44FE
0410
4C10
6C10
6410
6410
4410
C410
8433
8400
ENDCHAR
STARTCHAR 266a
ENCODING 9834
SWIDTH 362 0
DWIDTH 16 0
BBX 16 16 0 -2
BITMAP
1818
1810
1C10
7E10
1810
1812
1FFE
1810
1810
1810
FF10
1810
1810
1810
1833
1000
ENDCHAR
STARTCHAR 266b
ENCODING 9835
SWIDTH 362 0
DWIDTH 16 0
BBX 16 16 0 -2
BITMAP
0180
0086
7FFE
1000
1000
1000
1FFC
0000
0018
0180
0180
0183
FFFF
0180
0184
3FFC
ENDCHAR
STARTCHAR 266c
ENCODING 9836
SWIDTH 362 0
DWIDTH 16 0
BBX 16 16 0 -2
BITMAP
0600
0600
0FF0
1830
36E0
63C0
0E7F
790E
D180
1988
3FF8
2180
4186
0180
0180
0100
ENDCHAR
STARTCHAR 266d
ENCODING 9837
SWIDTH 362 0
DWIDTH 16 0
BBX 16 16 0 -2
BITMAP
0700
0600
060C
0C0C
1C18
3398
40F0
00E0
0180
0700
1C00
6000
4844
4462
C623
8221
ENDCHAR
STARTCHAR 266e
ENCODING 9838
SWIDTH 362 0
DWIDTH 16 0
BBX 16 16 0 -2
BITMAP
2008
31FC
20CC
6CCC
7CFC
6CCC
4CCC
ECCC
99FC
18CC
18CC
308C
318C
630D
460F
8C07
ENDCHAR
STARTCHAR 266f
ENCODING 9839
SWIDTH 362 0
DWIDTH 16 0
BBX 16 16 0 -2
BITMAP
0100
0302
7FFF
0630
0C18
186E
3667
C363
1060
0C60
0460
3FFC
0060
0060
0060
0060
ENDCHAR
STARTCHAR 2670
ENCODING 9840
SWIDTH 362 0
DWIDTH 16 0
BBX 16 16 0 -2
BITMAP
0100
0302
7FFF
0630
0C18
180E
300F
FFFF
0380
0620
0C60
0FC0
0330
0C1C
3FFC
3004
ENDCHAR
STARTCHAR 2671
ENCODING 9841
SWIDTH 362 0
DWIDTH 16 0
BBX 16 16 0 -2
BITMAP
0606
FFFE
46C6
3C4C
1838
3C38
66CF
C583
0630
0433
FFFF
0860
1840
17E0
077C
780E
ENDCHAR
STARTCHAR 2672
ENCODING 9842
SWIDTH 362 0
DWIDTH 16 0
BBX 16 16 0 -2
BITMAP
0008
3FFC
0002
FFFF
0E08
1804
7FFE
7402
0630
0433
FFFF
0860
1840
17E0
077C
780E
ENDCHAR
STARTCHAR 2673
ENCODING 9843
SWIDTH 362 0
DWIDTH 16 0
BBX 16 16 0 -2
BITMAP
0002
FFFF
0180
7186
6184
6184
618C
640C
0630
0433
FFFF
0860
1840
17E0
077C
780E
ENDCHAR
STARTCHAR 2674
ENCODING 9844
SWIDTH 362 0
DWIDTH 16 0
BBX 16 16 0 -2
BITMAP
200E
61F8
6198
6D98
FD98
ED9B
6DFF
6D98
4D98
C998
F998
3188
3D8C
67A5
C1C7
0183
ENDCHAR
STARTCHAR 2675
ENCODING 9845
SWIDTH 362 0
DWIDTH 16 0
BBX 16 16 0 -2
BITMAP
2030
6070
6078
68CC
FD87
EB83
6EC0
69FE
4986
DB06
FA06
3006
3806
6C06
C03C
0008
ENDCHAR
STARTCHAR 2676
ENCODING 9846
SWIDTH 362 0
DWIDTH 16 0
BBX 16 16 0 -2
BITMAP
0402
7EFF
6406
6408
6418
E418
6418
75FF
7C18
7C18
6418
6418
6418
6418
6E78
0030
ENDCHAR
STARTCHAR 2677
ENCODING 9847
SWIDTH 362 0
DWIDTH 16 0
BBX 16 16 0 -2
BITMAP
0180
0188
3FFC
0180
2184
6106
6064
60E4
6084
6184
61BC
618C
6184
6184
6784
6304
ENDCHAR
STARTCHAR 2678
ENCODING 9848
SWIDTH 362 0
DWIDTH 16 0
BBX 16 16 0 -2
BITMAP
0830
7C70
0870
10C8
30CC
3187
338B
3ECC
F088
7088
3088
3188
3188
3108
F208
6408
ENDCHAR
STARTCHAR 2679
ENCODING 9849
SWIDTH 362 0
DWIDTH 16 0
BBX 16 16 0 -2
BITMAP
0300
4180
7FFF
C603
8604
07F8
0C00
0C08
0FFC
000C
000A
FFFF
0008
0018
01F8
0030
ENDCHAR
STARTCHAR 267a
ENCODING 9850
SWIDTH 362 0
DWIDTH 16 0
BBX 16 16 0 -2
BITMAP
0300
4180
7FFF
C003
8304
0182
7FFF
0600
0608
07FC
0408
0C08
0808
1818
30F8
C030
ENDCHAR
STARTCHAR 267b
ENCODING 9851
SWIDTH 362 0
DWIDTH 16 0
BBX 16 16 0 -2
BITMAP
0300
4180
7FFF
C003
800C
7FFC
0180
19FC
1180
1180
3FFC
000C
000C
000C
007C
0018
ENDCHAR
STARTCHAR 267c
ENCODING 9852
SWIDTH 362 0
DWIDTH 16 0
BBX 16 16 0 -2
BITMAP
0180
7FFF
4003
DC16
98F8
1F02
1804
0FFE
07FC
1800
1804
1FFC
1802
1802
1FFE
0FFE
ENDCHAR
STARTCHAR 267d
ENCODING 9853
SWIDTH 362 0
DWIDTH 16 0
BBX 16 16 0 -2
BITMAP
0300
4180
7FFF
C603
8614
3FF8
0411
0C11
181F
E00F
1FF8
0430
0260
03C0
0F7F
F80F
ENDCHAR
STARTCHAR 267e
ENCODING 9854
SWIDTH 362 0
DWIDTH 16 0
BBX 16 16 0 -2
BITMAP
0300
4180
7FFF
C003
80C4
0660
0C30
181C
303F
C632
0610
0410
0C10
1830
31F0
6060
ENDCHAR
STARTCHAR 2721
ENCODING 10017
SWIDTH 362 0
DWIDTH 16 0
BBX 16 16 0 -2
BITMAP
0180
0184
7FFE
0108
1FF8
0303
FFFF
0C18
1812
3FFF
E010
0310
0190
0010
00F0
0020
ENDCHAR
STARTCHAR 2722
ENCODING 10018
SWIDTH 362 0
DWIDTH 16 0
BBX 16 16 0 -2
BITMAP
0180
3188
1998
0990
4DB3
C003
DC02
9800
1808
1FFC
1800
1800
1802
1804
1FFC
0FFC
ENDCHAR
STARTCHAR 2723
ENCODING 10019
SWIDTH 362 0
DWIDTH 16 0
BBX 16 16 0 -2
BITMAP
0180
1990
198C
3186
61B2
C1E0
0380
1D00
7180
0182
7FFE
0340
0660
0C30
181F
F00E
ENDCHAR
STARTCHAR 2724
ENCODING 10020
SWIDTH 362 0
DWIDTH 16 0
BBX 16 16 0 -2
BITMAP
0180
1990
198C
3186
61B2
C1E0
0380
1D00
7180
11A0
19B8
318C
6186
C182
0F80
0300
ENDCHAR
STARTCHAR 2725
ENCODING 10021
SWIDTH 362 0
DWIDTH 16 0
BBX 16 16 0 -2
BITMAP
3018
3068
304C
30C6
FF83
3C60
3CFE
3C86
3D06
2C06
2C06
6C06
6C3D
4C09
CFFF
87FF
ENDCHAR
STARTCHAR 2726
ENCODING 10022
SWIDTH 362 0
DWIDTH 16 0
BBX 16 16 0 -2
BITMAP
4102
7FFF
4102
4102
4302
437E
4002
4002
407F
4033
4032
4032
C062
C0C6
819E
030C
ENDCHAR
STARTCHAR 2727
ENCODING 10023
SWIDTH 362 0
DWIDTH 16 0
BBX 16 16 0 -2
BITMAP
4006
7FFE
6006
6006
7FFE
6062
6040
7FFF
6040
604C
6FFC
4218
41B0
C0E0
831F
9C0E
ENDCHAR
STARTCHAR 2728
ENCODING 10024
SWIDTH 362 0
DWIDTH 16 0
BBX 16 16 0 -2
BITMAP
4006
7FFE
6006
6006
7FFE
6098
6FD0
6190
6310
62D0
6710
7E10
4211
C211
8E1F
860F
ENDCHAR
STARTCHAR 2729
ENCODING 10025
SWIDTH 362 0
DWIDTH 16 0
BBX 16 16 0 -2
BITMAP
4006
7FFE
6006
6006
6006
6006
6000
6FFE
6C06
6C06
6C06
4FFE
4C06
CC06
8C06
8C04
ENDCHAR
STARTCHAR 272a
ENCODING 10026
SWIDTH 362 0
DWIDTH 16 0
BBX 16 16 0 -2
BITMAP
4004
7FFC
6CC8
6C98
6CD8
6CD8
7C8C
788C
78CC
7808
6006
4003
0002
0002
007E
000C
ENDCHAR
STARTCHAR 272b
ENCODING 10027
SWIDTH 362 0
DWIDTH 16 0
BBX 16 16 0 -2
BITMAP
0120
7FE0
0660
0C60
3F60
E860
0861
0863
783F
1180
0180
7186
6184
6184
618C
600C
ENDCHAR
STARTCHAR 272c
ENCODING 10028
SWIDTH 362 0
DWIDTH 16 0
BBX 16 16 0 -2
BITMAP
0180
7186
6184
6184
7FFC
0180
0180
3FFC
0180
3FFC
0180
0183
FFFF
0180
0180
0100
ENDCHAR
STARTCHAR 272d
ENCODING 10029
SWIDTH 362 0
DWIDTH 16 0
BBX 16 16 0 -2
BITMAP
3002
31FF
3018
3030
F460
B4C2
B486
B4CC
B478
B438
B430
B464
FCC2
019F
01E1
0101
ENDCHAR
STARTCHAR 272e
ENCODING 10030
SWIDTH 362 0
DWIDTH 16 0
BBX 16 16 0 -2
BITMAP
3030
3030
3020
3020
F5FF
B460
B468
B44C
B4D8
B4D0
B4B0
B5B0
FD66
0243
04FF
00C1
ENDCHAR
STARTCHAR 272f
ENCODING 10031
SWIDTH 362 0
DWIDTH 16 0
BBX 16 16 0 -2
BITMAP
3018
3010
3010
3010
F6F3
B4FE
B458
B458
B4D4
B4D4
B494
B592
FD13
0213
00F0
0020
ENDCHAR
STARTCHAR 2730
ENCODING 10032
SWIDTH 362 0
DWIDTH 16 0
BBX 16 16 0 -2
BITMAP
0180
7186
6184
7FFC
1000
1800
3000
3FFC
210C
0108
0308
FFFF
0630
0C1C
3806
E003
ENDCHAR
STARTCHAR 2731
ENCODING 10033
SWIDTH 362 0
DWIDTH 16 0
BBX 16 16 0 -2
BITMAP
0180
7186
6184
6184
7FFC
0000
1C30
1830
1830
1830
1C30
1678
3668
22CC
4187
8703
ENDCHAR
STARTCHAR 2732
ENCODING 10034
SWIDTH 362 0
DWIDTH 16 0
BBX 16 16 0 -2
BITMAP
1818
5810
5810
5C10
7E92
D993
9992
1992
1D92
F992
D992
1992
1992
1992
19FE
1002
ENDCHAR
STARTCHAR 2733
ENCODING 10035
SWIDTH 362 0
DWIDTH 16 0
BBX 16 16 0 -2
BITMAP
30C0
30C0
30C3
3083
F503
B663
B463
B443
B4DB
B5FB
B58B
B403
FC03
0002
003E
000C
ENDCHAR
STARTCHAR 2734
ENCODING 10036
SWIDTH 362 0
DWIDTH 16 0
BBX 16 16 0 -2
BITMAP
4898
7CF8
6C98
6C98
6C98
6F98
6D99
471B
C60F
8580
0180
7186
6184
6184
618C
600C
ENDCHAR
STARTCHAR 2735
ENCODING 10037
SWIDTH 362 0
DWIDTH 16 0
BBX 16 16 0 -2
BITMAP
4406
7E7E
4466
4466
47E6
4426
4006
403E
4004
0180
0180
7186
6184
6184
618C
600C
ENDCHAR
STARTCHAR 2736
ENCODING 10038
SWIDTH 362 0
DWIDTH 16 0
BBX 16 16 0 -2
BITMAP
0000
4132
3332
1326
0264
064C
FC88
344C
3266
3332
2133
6193
6010
F000
DFFF
03FE
ENDCHAR
STARTCHAR 2737
ENCODING 10039
SWIDTH 362 0
DWIDTH 16 0
BBX 16 16 0 -2
BITMAP
0006
7FFE
0184
318C
1990
0183
FFFF
0188
01B8
01E0
0180
0780
1D80
E180
0F80
0300
ENDCHAR
STARTCHAR 2738
ENCODING 10040
SWIDTH 362 0
DWIDTH 16 0
BBX 16 16 0 -2
BITMAP
0008
3FFC
0208
FFFF
0208
0608
3FF8
0CC0
18C4
3FFE
68C4
C8C4
08CC
08FC
08C8
00C0
ENDCHAR
STARTCHAR 2739
ENCODING 10041
SWIDTH 362 0
DWIDTH 16 0
BBX 16 16 0 -2
BITMAP
0002
FFFF
0308
07FC
1C38
67E0
0380
1D80
6180
3FFC
318C
3188
3188
31F8
3190
0100
ENDCHAR
STARTCHAR 273a
ENCODING 10042
SWIDTH 362 0
DWIDTH 16 0
BBX 16 16 0 -2
BITMAP
0002
FFFF
0300
0660
06C0
0380
0610
1FF8
1F08
0188
3FFC
318C
3188
31F8
3190
0100
ENDCHAR
STARTCHAR 273b
ENCODING 10043
SWIDTH 362 0
DWIDTH 16 0
BBX 16 16 0 -2
BITMAP
3118
3198
3118
FD18
B518
B518
B5FF
B518
B518
B518
B518
BD18
3119
3159
319F
310F
ENDCHAR
STARTCHAR 273c
ENCODING 10044
SWIDTH 362 0
DWIDTH 16 0
BBX 16 16 0 -2
BITMAP
3000
31FF
3583
FF82
B582
B582
B582
B5FE
B582
B582
B582
BD82
3182
31FE
3182
3080
ENDCHAR
STARTCHAR 273d
ENCODING 10045
SWIDTH 362 0
DWIDTH 16 0
BBX 16 16 0 -2
BITMAP
3030
3030
3420
FE3F
B420
B420
B436
B586
B486
B48C
B44C
BC78
3030
307C
318F
3703
ENDCHAR
STARTCHAR 273e
ENCODING 10046
SWIDTH 362 0
DWIDTH 16 0
BBX 16 16 0 -2
BITMAP
007E
7FC0
61C0
6183
7FFF
6182
7FFF
6183
6DBA
6D9A
699A
699A
69FA
4996
C186
8180
ENDCHAR
STARTCHAR 273f
ENCODING 10047
SWIDTH 362 0
DWIDTH 16 0
BBX 16 16 0 -2
BITMAP
0180
0380
0660
0C38
383F
EC32
0640
0180
318C
318C
218C
218C
21FC
2198
0180
0100
ENDCHAR
STARTCHAR 2740
ENCODING 10048
SWIDTH 362 0
DWIDTH 16 0
BBX 16 16 0 -2
BITMAP
0180
0380
0660
0C38
3FEF
E002
000C
01C0
0180
3FFC
218C
218C
218C
21B8
2180
0100
ENDCHAR
STARTCHAR 2741
ENCODING 10049
SWIDTH 362 0
DWIDTH 16 0
BBX 16 16 0 -2
BITMAP
04C0
0E30
181C
3FFF
C21A
0618
0C38
1870
6180
218C
3FFC
218C
218C
21BC
2198
0100
ENDCHAR
STARTCHAR 2742
ENCODING 10050
SWIDTH 362 0
DWIDTH 16 0
BBX 16 16 0 -2
BITMAP
0400
7DFF
1010
9610
5410
7410
7810
1010
FE10
1010
1010
1010
1010
1010
10F0
1020
ENDCHAR
STARTCHAR 2743
ENCODING 10051
SWIDTH 362 0
DWIDTH 16 0
BBX 16 16 0 -2
BITMAP
0180
4083
7FFF
6000
6006
710C
698C
6CD8
64F0
6060
60C0
4180
4300
C780
9CFF
8000
ENDCHAR
STARTCHAR 2744
ENCODING 10052
SWIDTH 362 0
DWIDTH 16 0
BBX 16 16 0 -2
BITMAP
0180
4083
7FFF
6004
6FFE
6210
6210
6210
6212
7FFF
6210
4610
4610
C410
8C10
9810
ENDCHAR
STARTCHAR 2745
ENCODING 10053
SWIDTH 362 0
DWIDTH 16 0
BBX 16 16 0 -2
BITMAP
0180
4083
7FFF
6700
6600
67FE
6CC6
6CCC
78C8
60C0
60E0
41A0
4330
C618
8C0F
B007
ENDCHAR
STARTCHAR 2746
ENCODING 10054
SWIDTH 362 0
DWIDTH 16 0
BBX 16 16 0 -2
BITMAP
0180
4083
7FFF
6300
637E
6246
6646
6E26
6E2C
763C
6618
4638
4638
C66C
86C7
8783
ENDCHAR
STARTCHAR 2747
ENCODING 10055
SWIDTH 362 0
DWIDTH 16 0
BBX 16 16 0 -2
BITMAP
0180
4083
7FFF
603C
6FFC
6C40
6C40
6C46
6FFE
6C60
6C60
4C30
4C31
CF9B
8C0F
8407
ENDCHAR
STARTCHAR 2748
ENCODING 10056
SWIDTH 362 0
DWIDTH 16 0
BBX 16 16 0 -2
BITMAP
0180
4083
7FFF
6002
67FF
6400
6408
67FC
650C
6488
64D8
4C70
4C70
D8D8
938F
AE03
ENDCHAR
STARTCHAR 2749
ENCODING 10057
SWIDTH 362 0
DWIDTH 16 0
BBX 16 16 0 -2
BITMAP
1C00
1810
1FF8
1010
3FF8
3FD8
0018
00F0
0020
0630
0432
FFFF
0C30
0C30
1830
3030
ENDCHAR
STARTCHAR 274a
ENCODING 10058
SWIDTH 362 0
DWIDTH 16 0
BBX 16 16 0 -2
BITMAP
1C00
1810
1FF8
1010
3FF8
7FFE
0018
00F0
0020
0630
0432
FFFF
0C30
0C30
1830
3030
ENDCHAR
STARTCHAR 274b
ENCODING 10059
SWIDTH 362 0
DWIDTH 16 0
BBX 16 16 0 -2
BITMAP
0300
0180
7FFE
0000
0E30
0C0C
1806
6002
0430
0630
0432
FFFF
0C30
0C30
1830
3030
ENDCHAR
STARTCHAR 274c
ENCODING 10060
SWIDTH 362 0
DWIDTH 16 0
BBX 16 16 0 -2
BITMAP
0C20
0C30
0C20
0C26
7FFE
0C20
0C20
0820
0810
0C18
0812
FE7F
0810
1810
1010
2010
ENDCHAR
STARTCHAR 274d
ENCODING 10061
SWIDTH 362 0
DWIDTH 16 0
BBX 16 16 0 -2
BITMAP
0220
0330
0316
0310
01B8
01E2
03F6
1C3E
6004
0630
0432
FFFF
0C30
0C30
1830
3030
ENDCHAR
STARTCHAR 274e
ENCODING 10062
SWIDTH 362 0
DWIDTH 16 0
BBX 16 16 0 -2
BITMAP
2008
3FFC
3188
3188
33C8
3668
3C08
3078
3010
0630
0432
FFFF
0C30
0C30
1830
3030
ENDCHAR
STARTCHAR 274f
ENCODING 10063
SWIDTH 362 0
DWIDTH 16 0
BBX 16 16 0 -2
BITMAP
0030
0134
3FB2
0030
FFFF
0030
0730
0630
6630
4730
4D90
48D8
5049
400D
FFE7
0003
ENDCHAR
STARTCHAR 2750
ENCODING 10064
SWIDTH 362 0
DWIDTH 16 0
BBX 16 16 0 -2
BITMAP
01B0
0118
FFFF
0181
00E3
003F
000F
1FF8
1018
1FF8
1018
1FF8
3018
3018
60F8
C030
ENDCHAR
STARTCHAR 2751
ENCODING 10065
SWIDTH 362 0
DWIDTH 16 0
BBX 16 16 0 -2
BITMAP
0800
FFFF
0840
0840
48C4
48FE
C0C6
CC86
FC84
0D84
0DFC
0C0C
0C0C
0C08
F80F
3000
ENDCHAR
STARTCHAR 2752
ENCODING 10066
SWIDTH 362 0
DWIDTH 16 0
BBX 16 16 0 -2
BITMAP
0802
FDFF
0818
0830
4860
48C2
C186
CDCC
FC78
0C38
0C30
0C64
0CC2
0D9F
F9E1
3101
ENDCHAR
STARTCHAR 2753
ENCODING 10067
SWIDTH 362 0
DWIDTH 16 0
BBX 16 16 0 -2
BITMAP
0830
FC60
084C
0988
4878
4830
C066
CCC3
FFFF
0D91
0C10
0C10
0C10
0C10
F810
3010
ENDCHAR
STARTCHAR 2754
ENCODING 10068
SWIDTH 362 0
DWIDTH 16 0
BBX 16 16 0 -2
BITMAP
2206
3606
260C
2618
7FE0
2602
2606
260C
3798
3630
2643
2606
660C
6618
C630
8660
ENDCHAR
STARTCHAR 2755
ENCODING 10069
SWIDTH 362 0
DWIDTH 16 0
BBX 16 16 0 -2
BITMAP
1904
19FE
3186
2186
4D86
0BFE
1986
3186
3187
7186
9186
1186
1186
1186
119E
1104
ENDCHAR
STARTCHAR 2756
ENCODING 10070
SWIDTH 362 0
DWIDTH 16 0
BBX 16 16 0 -2
BITMAP
1818
1818
3018
2018
4C18
09D8
199A
3198
3198
7198
9198
1198
1198
1198
119B
1000
ENDCHAR
STARTCHAR 2757
ENCODING 10071
SWIDTH 362 0
DWIDTH 16 0
BBX 16 16 0 -2
BITMAP
1840
1820
3333
2333
4F33
0B3B
1B6B
334F
33CF
7387
9303
1303
1303
1303
131F
1306
ENDCHAR
STARTCHAR 2758
ENCODING 10072
SWIDTH 362 0
DWIDTH 16 0
BBX 16 16 0 -2
BITMAP
19CC
198C
3188
2188
4D88
1988
3188
318C
71DC
F1DC
B17C
333E
3336
3232
3463
38C3
ENDCHAR
STARTCHAR 2759
ENCODING 10073
SWIDTH 362 0
DWIDTH 16 0
BBX 16 16 0 -2
BITMAP
19C0
1980
3183
2183
4F03
0A03
19FB
3003
3003
7013
91FB
1003
1003
1006
103E
100C
ENDCHAR
STARTCHAR 275a
ENCODING 10074
SWIDTH 362 0
DWIDTH 16 0
BBX 16 16 0 -2
BITMAP
1818
19D0
3190
2192
4DFE
0910
1B10
3010
3033
7030
9010
1010
1010
1010
1010
1010
ENDCHAR
STARTCHAR 275b
ENCODING 10075
SWIDTH 362 0
DWIDTH 16 0
BBX 16 16 0 -2
BITMAP
1902
19FF
3180
2180
4D86
09C6
19C6
31A6
31A4
713C
9118
1318
123C
1666
14C3
1181
ENDCHAR
STARTCHAR 275c
ENCODING 10076
SWIDTH 362 0
DWIDTH 16 0
BBX 16 16 0 -2
BITMAP
0100
0DC0
0CCC
2C06
6C12
4FF2
07F0
0600
0618
3FF8
1C30
1B60
61C0
03F8
0E1F
7006
ENDCHAR
STARTCHAR 275d
ENCODING 10077
SWIDTH 362 0
DWIDTH 16 0
BBX 16 16 0 -2
BITMAP
0008
3FFC
0180
0180
0180
0180
0186
7FFE
0000
0180
0CC0
4C46
4803
CC1B
8FF1
07F0
ENDCHAR
STARTCHAR 275e
ENCODING 10078
SWIDTH 362 0
DWIDTH 16 0
BBX 16 16 0 -2
BITMAP
0180
0180
0180
3FFC
0180
0180
0180
7FFE
0000
0100
0C80
4CC0
4806
CC1B
CFF1
07F0
ENDCHAR
STARTCHAR 275f
ENCODING 10079
SWIDTH 362 0
DWIDTH 16 0
BBX 16 16 0 -2
BITMAP
0008
3FFC
010C
1B0C
070C
078C
0C8C
18F8
3030
4100
0C80
4CC0
4806
CC1B
CFF1
07F0
ENDCHAR
STARTCHAR 2760
ENCODING 10080
SWIDTH 362 0
DWIDTH 16 0
BBX 16 16 0 -2
BITMAP
0C00
080C
1FFC
3FF0
60E0
0180
0600
0806
180C
1FFC
0000
0DC0
4CC6
CC1B
CFF1
07F0
ENDCHAR
STARTCHAR 2761
ENCODING 10081
SWIDTH 362 0
DWIDTH 16 0
BBX 16 16 0 -2
BITMAP
0180
0380
0640
0C30
181C
3007
C018
1FF8
0000
0180
0CC0
4C46
4803
CC1B
8FF1
07F0
ENDCHAR
STARTCHAR 2762
ENCODING 10082
SWIDTH 362 0
DWIDTH 16 0
BBX 16 16 0 -2
BITMAP
3002
31FF
3302
3208
78CC
FCC8
F0C8
B0C8
30C8
30C8
30C8
3088
3188
3109
330F
3607
ENDCHAR
STARTCHAR 2763
ENCODING 10083
SWIDTH 362 0
DWIDTH 16 0
BBX 16 16 0 -2
BITMAP
3030
3034
303E
31F0
7830
FC30
F1FE
B030
3030
3033
33FF
3030
3030
3030
3030
3030
ENDCHAR
STARTCHAR 2764
ENCODING 10084
SWIDTH 362 0
DWIDTH 16 0
BBX 16 16 0 -2
BITMAP
3002
31FF
3132
3132
7932
FD32
F132
B102
3100
3100
3100
3100
3101
3103
31FF
3000
ENDCHAR
STARTCHAR 2765
ENCODING 10085
SWIDTH 362 0
DWIDTH 16 0
BBX 16 16 0 -2
BITMAP
3002
33FF
3030
3030
79B2
FDBF
F1B2
B1B2
31B2
31FE
3002
3002
3002
3006
307C
3018
ENDCHAR
STARTCHAR 2766
ENCODING 10086
SWIDTH 362 0
DWIDTH 16 0
BBX 16 16 0 -2
BITMAP
31C0
3180
3183
3183
7B03
FE03
F1FB
B003
3003
3013
31FB
3003
3003
3006
303E
300C
ENDCHAR
STARTCHAR 2767
ENCODING 10087
SWIDTH 362 0
DWIDTH 16 0
BBX 16 16 0 -2
BITMAP
3008
30FC
308C
308C
788C
FD87
F100
B2FE
3086
30CC
3048
3038
3030
307C
30CF
3703
ENDCHAR
STARTCHAR 2768
ENCODING 10088
SWIDTH 362 0
DWIDTH 16 0
BBX 16 16 0 -2
BITMAP
30C0
30C0
30C3
3183
7903
FE63
F043
B0C3
3093
31FB
318B
3003
3003
3006
303E
300C
ENDCHAR
STARTCHAR 2769
ENCODING 10089
SWIDTH 362 0
DWIDTH 16 0
BBX 16 16 0 -2
BITMAP
30C0
30C0
3080
31FF
79EB
FD6B
F36B
B27B
305B
30DB
30B3
31B3
3363
32C3
319E
300C
ENDCHAR
STARTCHAR 276a
ENCODING 10090
SWIDTH 362 0
DWIDTH 16 0
BBX 16 16 0 -2
BITMAP
3020
3860
2C40
21D8
FDF8
2198
2D98
2998
3998
3D98
3598
3D18
4F19
8F19
061F
0C0F
ENDCHAR
STARTCHAR 276b
ENCODING 10091
SWIDTH 362 0
DWIDTH 16 0
BBX 16 16 0 -2
BITMAP
0030
0036
0022
7FFF
6020
6020
61A0
6DA6
6DB6
6DBC
699C
7F99
7339
606D
C187
8703
ENDCHAR
STARTCHAR 276c
ENCODING 10092
SWIDTH 362 0
DWIDTH 16 0
BBX 16 16 0 -2
BITMAP
0030
0036
0022
FFFF
0820
1820
1027
2226
6626
1C3C
183C
3218
6F39
F9ED
40C7
0703
ENDCHAR
STARTCHAR 276d
ENCODING 10093
SWIDTH 362 0
DWIDTH 16 0
BBX 16 16 0 -2
BITMAP
0C70
4C6C
3866
3862
5BFF
8C60
0C60
1C66
146C
242C
4438
0431
0C39
0C6F
78C7
1F03
ENDCHAR
STARTCHAR 276e
ENCODING 10094
SWIDTH 362 0
DWIDTH 16 0
BBX 16 16 0 -2
BITMAP
007C
7FC0
6004
7FFE
6006
6006
7FFE
6460
6666
66FE
7F66
6664
4641
4603
87FF
83FE
ENDCHAR
STARTCHAR 276f
ENCODING 10095
SWIDTH 362 0
DWIDTH 16 0
BBX 16 16 0 -2
BITMAP
3023
33F3
3032
3032
FB32
3332
3302
3A32
73F2
F032
3032
3032
3032
3032
F3E2
60C2
ENDCHAR
STARTCHAR 2770
ENCODING 10096
SWIDTH 362 0
DWIDTH 16 0
BBX 16 16 0 -2
BITMAP
3002
33FF
30C0
30C0
F884
30FE
3086
3986
7184
F184
31FC
300C
300C
3008
F00F
6000
ENDCHAR
STARTCHAR 2771
ENCODING 10097
SWIDTH 362 0
DWIDTH 16 0
BBX 16 16 0 -2
BITMAP
3004
31FE
31B0
31B0
F9B0
3120
3122
3BFF
7060
F078
3070
30D0
30D1
3191
F31F
6C0F
ENDCHAR
STARTCHAR 2772
ENCODING 10098
SWIDTH 362 0
DWIDTH 16 0
BBX 16 16 0 -2
BITMAP
1800
1102
11FF
1583
FD82
1182
1182
1D82
79FE
F182
1182
1182
1182
11FE
F182
2100
ENDCHAR
STARTCHAR 2773
ENCODING 10099
SWIDTH 362 0
DWIDTH 16 0
BBX 16 16 0 -2
BITMAP
3060
3040
33FC
304C
F8CC
30CD
318F
3B27
7430
F020
3033
3030
3020
3020
F020
6020
ENDCHAR
STARTCHAR 2774
ENCODING 10100
SWIDTH 362 0
DWIDTH 16 0
BBX 16 16 0 -2
BITMAP
30DC
30D8
3098
3198
F998
339C
339A
3F9B
7199
F199
3198
3198
3198
3198
F198
6118
ENDCHAR
STARTCHAR 2775
ENCODING 10101
SWIDTH 362 0
DWIDTH 16 0
BBX 16 16 0 -2
BITMAP
30D8
30C8
30C4
3186
F903
33FD
30C0
38C4
70FE
F006
3006
3004
300C
300C
F0F8
6030
ENDCHAR
STARTCHAR 2776
ENCODING 10102
SWIDTH 362 0
DWIDTH 16 0
BBX 16 16 0 -2
BITMAP
3070
3060
3050
30CC
F986
3303
360C
38CC
70C4
F0C4
3084
3084
3184
310C
F37C
6618
ENDCHAR
STARTCHAR 2777
ENCODING 10103
SWIDTH 362 0
DWIDTH 16 0
BBX 16 16 0 -2
BITMAP
3010
3008
30C8
30CC
F884
3186
31A6
3933
7363
F260
3040
30CC
3086
318E
F1FB
6101
ENDCHAR
STARTCHAR 2778
ENCODING 10104
SWIDTH 362 0
DWIDTH 16 0
BBX 16 16 0 -2
BITMAP
C018
CC10
CC10
CC1F
CC10
CC10
CC36
CE47
DA46
D324
E1AC
C018
C018
FE2C
7F47
0183
ENDCHAR
STARTCHAR 2779
ENCODING 10105
SWIDTH 362 0
DWIDTH 16 0
BBX 16 16 0 -2
BITMAP
6018
6010
6210
7F1F
C210
8210
2236
3247
1246
0224
022C
0218
0618
062C
3C47
0983
ENDCHAR
STARTCHAR 277a
ENCODING 10106
SWIDTH 362 0
DWIDTH 16 0
BBX 16 16 0 -2
BITMAP
1C00
1FFE
3C18
6630
03E0
01E0
0E3F
F037
1FF0
00C0
0182
7FFF
0180
0180
0F80
0300
ENDCHAR
STARTCHAR 277b
ENCODING 10107
SWIDTH 362 0
DWIDTH 16 0
BBX 16 16 0 -2
BITMAP
0002
FFFF
1C1C
3006
6003
C101
0183
0C00
0400
07FC
0C0C
0C0C
180C
300C
60F8
C030
ENDCHAR
STARTCHAR 277c
ENCODING 10108
SWIDTH 362 0
DWIDTH 16 0
BBX 16 16 0 -2
BITMAP
0002
FFFF
0C18
180E
3007
E00F
3FFC
300C
300C
300C
3FFC
300C
300C
300C
3FFC
3008
ENDCHAR
STARTCHAR 277d
ENCODING 10109
SWIDTH 362 0
DWIDTH 16 0
BBX 16 16 0 -2
BITMAP
0060
0030
FC30
CFFF
CD80
CD80
CD80
FD80
CD80
CD80
CD80
CD80
FD80
8180
00FF
0000
ENDCHAR
STARTCHAR 277e
ENCODING 10110
SWIDTH 362 0
DWIDTH 16 0
BBX 16 16 0 -2
BITMAP
2008
3FFC
3008
3008
3FF8
3008
3008
3FF8
0008
0018
3018
1010
0830
0C20
0C63
0000
ENDCHAR
STARTCHAR 2821
ENCODING 10273
SWIDTH 362 0
DWIDTH 16 0
BBX 16 16 0 -2
BITMAP
2008
3FFC
3008
3FF8
3008
3008
3FF8
0000
FFFF
1830
0C60
06C0
0380
07E0
183F
E00F
ENDCHAR
STARTCHAR 2822
ENCODING 10274
SWIDTH 362 0
DWIDTH 16 0
BBX 16 16 0 -2
BITMAP
2008
3FFC
200C
200C
3FFC
200C
300C
2008
0008
3FFC
3008
3008
3008
3008
3FF8
3008
ENDCHAR
STARTCHAR 2823
ENCODING 10275
SWIDTH 362 0
DWIDTH 16 0
BBX 16 16 0 -2
BITMAP
3018
0E30
03C0
03F0
0E1C
7006
0003
0000
200C
300C
200C
3FFC
200C
200C
3FFC
2008
ENDCHAR
STARTCHAR 2824
ENCODING 10276
SWIDTH 362 0
DWIDTH 16 0
BBX 16 16 0 -2
BITMAP
00F8
3F80
0180
0180
FFFF
0180
0180
0180
0108
3FFC
200C
200C
3FFC
200C
300C
300C
ENDCHAR
STARTCHAR 2825
ENCODING 10277
SWIDTH 362 0
DWIDTH 16 0
BBX 16 16 0 -2
BITMAP
0C00
0818
1FF8
3430
6360
01C0
0370
0C3F
3007
FFFC
300C
3008
3FF8
3008
3FF8
3008
ENDCHAR
STARTCHAR 2826
ENCODING 10278
SWIDTH 362 0
DWIDTH 16 0
BBX 16 16 0 -2
BITMAP
0242
FF7F
7662
6462
6462
647E
6462
6462
6462
647E
6462
6442
64C2
47C2
C19E
8306
ENDCHAR
STARTCHAR 2827
ENCODING 10279
SWIDTH 362 0
DWIDTH 16 0
BBX 16 16 0 -2
BITMAP
0003
0860
0C70
0860
1860
303F
E01F
0008
3FFC
3008
3FF8
3008
3FF8
2008
6078
C018
ENDCHAR
STARTCHAR 2828
ENCODING 10280
SWIDTH 362 0
DWIDTH 16 0
BBX 16 16 0 -2
BITMAP
0C22
0C7F
CC63
CC63
CC63
CC7F
CC63
CC63
CA63
DB7F
F1E3
E163
C043
FEC3
7F9F
0106
ENDCHAR
STARTCHAR 2829
ENCODING 10281
SWIDTH 362 0
DWIDTH 16 0
BBX 16 16 0 -2
BITMAP
4800
7DFF
4C66
4C44
4C44
7C44
4C44
4C44
4C44
4C44
4C44
4CC4
CCC4
CC84
BD07
9A07
ENDCHAR
STARTCHAR 282a
ENCODING 10282
SWIDTH 362 0
DWIDTH 16 0
BBX 16 16 0 -2
BITMAP
0180
0182
7FFF
0180
3FFC
018C
018F
018C
018C
3FFC
03C0
07E0
0DB8
318F
E183
0100
ENDCHAR
STARTCHAR 282b
ENCODING 10283
SWIDTH 362 0
DWIDTH 16 0
BBX 16 16 0 -2
BITMAP
0180
0180
018C
0180
0180
0180
7FFE
0180
0180
FFFF
0180
0990
198C
6186
C182
0100
ENDCHAR
STARTCHAR 282c
ENCODING 10284
SWIDTH 362 0
DWIDTH 16 0
BBX 16 16 0 -2
BITMAP
2004
6006
6016
6FF6
6006
6006
7FFE
0184
0180
FFFF
0180
0990
198C
6186
C182
0100
ENDCHAR
STARTCHAR 282d
ENCODING 10285
SWIDTH 362 0
DWIDTH 16 0
BBX 16 16 0 -2
BITMAP
1870
1060
1060
FC7F
1043
30C3
3883
3DB2
751E
7004
D00C
9008
1010
1020
10C0
1180
ENDCHAR
STARTCHAR 282e
ENCODING 10286
SWIDTH 362 0
DWIDTH 16 0
BBX 16 16 0 -2
BITMAP
18C0
10C0
10C3
FCC3
1083
3103
3803
3CFF
7403
7003
D003
9003
1003
1006
103E
100C
ENDCHAR
STARTCHAR 282f
ENCODING 10287
SWIDTH 362 0
DWIDTH 16 0
BBX 16 16 0 -2
BITMAP
4006
7FFE
6006
7FFE
6600
6606
6FFE
68C4
70C0
60E0
41A0
4330
C618
CC0C
9807
B003
ENDCHAR
STARTCHAR 2830
ENCODING 10288
SWIDTH 362 0
DWIDTH 16 0
BBX 16 16 0 -2
BITMAP
10C0
18C0
10C0
14C3
D6FF
D7B2
D730
D630
D630
D678
D668
D64C
FEC4
0186
0303
0603
ENDCHAR
STARTCHAR 2831
ENCODING 10289
SWIDTH 362 0
DWIDTH 16 0
BBX 16 16 0 -2
BITMAP
6060
6060
6660
407F
80D3
0496
7F10
0C10
1838
3038
6028
C06C
8264
FEC6
FF83
0303
ENDCHAR
STARTCHAR 2832
ENCODING 10290
SWIDTH 362 0
DWIDTH 16 0
BBX 16 16 0 -2
BITMAP
1060
1840
30C0
36FF
6693
C596
ED10
3810
1838
3038
3028
646C
C664
FAC6
C183
0303
ENDCHAR
STARTCHAR 2833
ENCODING 10291
SWIDTH 362 0
DWIDTH 16 0
BBX 16 16 0 -2
BITMAP
01C0
0180
198C
1180
1180
1180
FFFF
0000
0300
0300
030E
0300
0300
0300
0303
0000
ENDCHAR
STARTCHAR 2834
ENCODING 10292
SWIDTH 362 0
DWIDTH 16 0
BBX 16 16 0 -2
BITMAP
01C0
1980
11FC
1180
1180
FFFF
0100
0180
7FFC
6184
6184
6184
6184
61BC
619C
0100
ENDCHAR
STARTCHAR 2835
ENCODING 10293
SWIDTH 362 0
DWIDTH 16 0
BBX 16 16 0 -2
BITMAP
1030
1830
1A20
1820
5820
7E20
4630
E470
BC70
9C58
08C8
18C8
118C
2306
4607
8C03
ENDCHAR
STARTCHAR 2836
ENCODING 10294
SWIDTH 362 0
DWIDTH 16 0
BBX 16 16 0 -2
BITMAP
0002
FCFE
2010
2010
7C10
6C10
4DFF
CC10
B810
1810
1810
3010
3010
6010
40F0
8020
ENDCHAR
STARTCHAR 2837
ENCODING 10295
SWIDTH 362 0
DWIDTH 16 0
BBX 16 16 0 -2
BITMAP
0002
FDFE
2000
2000
7C03
6CC0
4CC0
CC80
B9FE
1806
1806
3006
3006
6004
407C
8018
ENDCHAR
STARTCHAR 2838
ENCODING 10296
SWIDTH 362 0
DWIDTH 16 0
BBX 16 16 0 -2
BITMAP
0070
FC6C
2066
2062
7C63
6C60
4C60
CC60
B820
1830
1830
3010
3019
600D
4007
8003
ENDCHAR
STARTCHAR 2839
ENCODING 10297
SWIDTH 362 0
DWIDTH 16 0
BBX 16 16 0 -2
BITMAP
0030
FC30
2030
2030
7C30
6C32
4DFE
CC30
B830
1830
1830
3030
3030
6030
4033
8000
ENDCHAR
STARTCHAR 283a
ENCODING 10298
SWIDTH 362 0
DWIDTH 16 0
BBX 16 16 0 -2
BITMAP
0084
FCC6
2084
2084
7C84
6CE4
4CB4
CCB4
B894
1884
1884
3184
3184
6305
4607
8C07
ENDCHAR
STARTCHAR 283b
ENCODING 10299
SWIDTH 362 0
DWIDTH 16 0
BBX 16 16 0 -2
BITMAP
00C0
FCC0
20C2
20FF
7C83
6D83
4F43
CC63
B833
1803
1803
3003
3003
6006
403E
800C
ENDCHAR
STARTCHAR 283c
ENCODING 10300
SWIDTH 362 0
DWIDTH 16 0
BBX 16 16 0 -2
BITMAP
000E
FC3C
21E0
2060
7C60
6C60
4C62
CDFF
B860
1860
1860
3060
3061
6061
407F
803F
ENDCHAR
STARTCHAR 283d
ENCODING 10301
SWIDTH 362 0
DWIDTH 16 0
BBX 16 16 0 -2
BITMAP
0300
FFFF
0000
0008
1FFC
1108
1188
100B
FFFF
3108
3188
300B
3FFF
0018
01F0
0060
ENDCHAR
STARTCHAR 283e
ENCODING 10302
SWIDTH 362 0
DWIDTH 16 0
BBX 16 16 0 -2
BITMAP
60C0
40C0
7EFE
40C0
42C1
7CFF
607F
0600
7E06
4003
4002
4002
4002
4602
783E
6006
ENDCHAR
STARTCHAR 283f
ENCODING 10303
SWIDTH 362 0
DWIDTH 16 0
BBX 16 16 0 -2
BITMAP
0818
7C10
B0B6
31B3
3192
FD92
3192
3192
3592
FD96
3196
3010
3011
3001
3FFF
1FFF
ENDCHAR
STARTCHAR 2840
ENCODING 10304
SWIDTH 362 0
DWIDTH 16 0
BBX 16 16 0 -2
BITMAP
198C
1198
2310
3118
1988
0018
07F8
0100
0100
3FFC
0100
7FFE
0100
0101
01FF
01FE
ENDCHAR
STARTCHAR 2841
ENCODING 10305
SWIDTH 362 0
DWIDTH 16 0
BBX 16 16 0 -2
BITMAP
21C6
3184
1184
0184
8FFF
4984
7984
1184
3184
3184
6184
E184
6184
6184
61FC
2184
ENDCHAR
STARTCHAR 2842
ENCODING 10306
SWIDTH 362 0
DWIDTH 16 0
BBX 16 16 0 -2
BITMAP
2002
31FF
1110
0310
8B10
4BFF
7810
1010
3190
30F0
6030
E01E
6017
6013
61F0
2020
ENDCHAR
STARTCHAR 2843
ENCODING 10307
SWIDTH 362 0
DWIDTH 16 0
BBX 16 16 0 -2
BITMAP
4198
2198
0198
01D8
8FD8
D198
5198
11D8
3398
2798
6198
E198
6198
6199
679F
210F
ENDCHAR
STARTCHAR 2844
ENCODING 10308
SWIDTH 362 0
DWIDTH 16 0
BBX 16 16 0 -2
BITMAP
2030
3030
1020
0023
8FFF
4820
79A6
11A4
31A4
31A4
61A4
E124
6326
6227
6420
2020
ENDCHAR
STARTCHAR 2845
ENCODING 10309
SWIDTH 362 0
DWIDTH 16 0
BBX 16 16 0 -2
BITMAP
2002
33FF
10C0
00C0
88C6
48C6
7986
1186
336C
363C
6018
E030
6060
60C0
6180
2700
ENDCHAR
STARTCHAR 2846
ENCODING 10310
SWIDTH 362 0
DWIDTH 16 0
BBX 16 16 0 -2
BITMAP
2030
3030
1020
0020
8833
4830
7830
1070
3070
3048
60C8
E0CC
6186
6307
66FB
2C01
ENDCHAR
STARTCHAR 2847
ENCODING 10311
SWIDTH 362 0
DWIDTH 16 0
BBX 16 16 0 -2
BITMAP
2006
31FE
1106
0106
8906
4BFF
7906
1106
3106
3106
63FF
E106
6106
6106
6106
2106
ENDCHAR
STARTCHAR 2848
ENCODING 10312
SWIDTH 362 0
DWIDTH 16 0
BBX 16 16 0 -2
BITMAP
2030
3030
1020
01A4
8B26
4B23
7E23
1420
3020
3320
60C0
E060
6030
6018
600F
2003
ENDCHAR
STARTCHAR 2849
ENCODING 10313
SWIDTH 362 0
DWIDTH 16 0
BBX 16 16 0 -2
BITMAP
2060
3040
13FC
004C
88CC
48CD
798F
1327
3430
3020
6033
E030
6020
6020
6020
2020
ENDCHAR
STARTCHAR 284a
ENCODING 10314
SWIDTH 362 0
DWIDTH 16 0
BBX 16 16 0 -2
BITMAP
21CC
318C
118C
018C
898C
4907
7A00
150C
308C
308C
6058
E070
6070
60DC
618F
2603
ENDCHAR
STARTCHAR 284b
ENCODING 10315
SWIDTH 362 0
DWIDTH 16 0
BBX 16 16 0 -2
BITMAP
3030
3030
3026
347F
BDA0
F820
7020
3020
33FF
3020
3020
6820
6C21
4421
803F
001F
ENDCHAR
STARTCHAR 284c
ENCODING 10316
SWIDTH 362 0
DWIDTH 16 0
BBX 16 16 0 -2
BITMAP
0600
0420
0FF0
0860
1040
20C0
0140
0220
0C18
180F
6007
0000
4846
4463
C623
8221
ENDCHAR
STARTCHAR 284d
ENCODING 10317
SWIDTH 362 0
DWIDTH 16 0
BBX 16 16 0 -2
BITMAP
0E02
7E7F
5E63
5E7B
5E6F
5E67
5E63
5E63
5E7F
5A62
5B60
5B60
59C0
D8C0
987F
901E
ENDCHAR
STARTCHAR 284e
ENCODING 10318
SWIDTH 362 0
DWIDTH 16 0
BBX 16 16 0 -2
BITMAP
00F8
3F80
010C
1188
1890
0300
0303
0300
0600
07FC
040C
000C
000C
0018
03F0
0060
ENDCHAR
STARTCHAR 284f
ENCODING 10319
SWIDTH 362 0
DWIDTH 16 0
BBX 16 16 0 -2
BITMAP
4C18
6CD8
4CD8
4C98
4CDF
FDDB
0C9B
0C9B
7C9A
4C9A
4C98
4C80
4C81
CC81
CCFF
8C7F
ENDCHAR
STARTCHAR 2850
ENCODING 10320
SWIDTH 362 0
DWIDTH 16 0
BBX 16 16 0 -2
BITMAP
4C84
6CFE
4C86
4C86
4C86
4CA6
40B6
409E
7C86
4C86
4C86
4C86
CD86
CD07
8F07
8E03
ENDCHAR
STARTCHAR 2851
ENCODING 10321
SWIDTH 362 0
DWIDTH 16 0
BBX 16 16 0 -2
BITMAP
4C60
6C60
4C66
4C64
4CEF
4CCC
40C4
40CC
7C8C
4D8C
4DC8
4C38
CC3C
CC66
8CC3
8F01
ENDCHAR
STARTCHAR 2852
ENCODING 10322
SWIDTH 362 0
DWIDTH 16 0
BBX 16 16 0 -2
BITMAP
1870
586C
5866
5C62
7E63
D860
9860
1860
1C20
F830
D830
1810
1819
180D
1807
1003
ENDCHAR
STARTCHAR 2853
ENCODING 10323
SWIDTH 362 0
DWIDTH 16 0
BBX 16 16 0 -2
BITMAP
1800
59FF
5983
5D82
7F82
D982
9982
1982
1D82
F982
D982
1982
1982
1982
19FE
1080
ENDCHAR
STARTCHAR 2854
ENCODING 10324
SWIDTH 362 0
DWIDTH 16 0
BBX 16 16 0 -2
BITMAP
1830
5830
5836
5C7F
7FB0
D830
9830
1830
1DFF
F830
D830
1830
1830
1831
183F
101F
ENDCHAR
STARTCHAR 2855
ENCODING 10325
SWIDTH 362 0
DWIDTH 16 0
BBX 16 16 0 -2
BITMAP
0802
59FF
3022
3022
5022
99FE
1B20
1B20
3BFF
6823
C823
0823
082F
1826
7820
3020
ENDCHAR
STARTCHAR 2856
ENCODING 10326
SWIDTH 362 0
DWIDTH 16 0
BBX 16 16 0 -2
BITMAP
0802
59FE
3000
3000
5000
9803
1BFF
1848
3848
68C8
C8C8
08C8
0988
1909
7B0F
3607
ENDCHAR
STARTCHAR 2857
ENCODING 10327
SWIDTH 362 0
DWIDTH 16 0
BBX 16 16 0 -2
BITMAP
0830
5830
3030
33FF
5030
9830
19B6
19B6
39B6
69B6
C9B6
09B6
0936
1B37
7A30
3030
ENDCHAR
STARTCHAR 2858
ENCODING 10328
SWIDTH 362 0
DWIDTH 16 0
BBX 16 16 0 -2
BITMAP
0802
5BFF
3030
3030
5136
9933
1932
1932
3932
6932
C932
0932
0932
1936
7830
3030
ENDCHAR
STARTCHAR 2859
ENCODING 10329
SWIDTH 362 0
DWIDTH 16 0
BBX 16 16 0 -2
BITMAP
0806
59FE
3046
3066
517E
997E
197E
197E
3B7E
697E
C866
0846
08C6
18C7
7987
3303
ENDCHAR
STARTCHAR 285a
ENCODING 10330
SWIDTH 362 0
DWIDTH 16 0
BBX 16 16 0 -2
BITMAP
0804
5BFE
30C4
30C4
50C4
9BF4
18C4
18C4
38C4
6BF4
C8C4
08C4
08C5
18C7
78C3
30C1
ENDCHAR
STARTCHAR 285b
ENCODING 10331
SWIDTH 362 0
DWIDTH 16 0
BBX 16 16 0 -2
BITMAP
0802
59FF
3100
3142
517F
9962
1962
1962
3962
697E
C966
0960
0B61
1B61
7A7F
343F
ENDCHAR
STARTCHAR 285c
ENCODING 10332
SWIDTH 362 0
DWIDTH 16 0
BBX 16 16 0 -2
BITMAP
0800
59FF
3018
3030
5060
98C2
1986
19CC
3878
6838
C830
0864
08C2
199F
7BE1
3101
ENDCHAR
STARTCHAR 285d
ENCODING 10333
SWIDTH 362 0
DWIDTH 16 0
BBX 16 16 0 -2
BITMAP
08C0
58C0
3080
31FF
51B3
9936
1B30
1830
3830
6878
C868
084C
08C4
1986
7B03
3601
ENDCHAR
STARTCHAR 285e
ENCODING 10334
SWIDTH 362 0
DWIDTH 16 0
BBX 16 16 0 -2
BITMAP
081E
59F6
3126
3126
5126
9926
1926
1926
3926
6926
CB26
0B26
0B22
1A23
7E23
3C21
ENDCHAR
STARTCHAR 285f
ENCODING 10335
SWIDTH 362 0
DWIDTH 16 0
BBX 16 16 0 -2
BITMAP
00C0
0CC0
FCC3
3080
3100
3202
39FF
3006
3018
3030
3060
3CC0
F181
C101
01FF
01FF
ENDCHAR
STARTCHAR 2860
ENCODING 10336
SWIDTH 362 0
DWIDTH 16 0
BBX 16 16 0 -2
BITMAP
0070
0C60
FC60
3040
30C0
3098
3990
3130
3320
3260
3040
3CC4
F082
C19F
03E3
0101
ENDCHAR
STARTCHAR 2861
ENCODING 10337
SWIDTH 362 0
DWIDTH 16 0
BBX 16 16 0 -2
BITMAP
0180
0083
FFFF
3000
3000
3FFC
1FFE
0000
7FFE
0180
0180
3FFC
0180
0180
0183
0000
ENDCHAR
STARTCHAR 2862
ENCODING 10338
SWIDTH 362 0
DWIDTH 16 0
BBX 16 16 0 -2
BITMAP
0030
0430
FE20
D622
D7FF
D623
D622
FE22
D662
D662
D662
D6C2
FEC2
8186
033C
0608
ENDCHAR
STARTCHAR 2863
ENCODING 10339
SWIDTH 362 0
DWIDTH 16 0
BBX 16 16 0 -2
BITMAP
0180
0104
7FFE
0206
0406
0804
30FC
6018
8004
7FFE
6186
6186
7FFE
6186
6186
6004
ENDCHAR
STARTCHAR 2864
ENCODING 10340
SWIDTH 362 0
DWIDTH 16 0
BBX 16 16 0 -2
BITMAP
0180
4184
7FFE
6186
7FFE
6186
7FFC
0008
7FFC
3008
3008
3078
3012
3002
3FFE
1FFE
ENDCHAR
STARTCHAR 2865
ENCODING 10341
SWIDTH 362 0
DWIDTH 16 0
BBX 16 16 0 -2
BITMAP
0080
20C3
3FFF
A000
E002
FFFF
2060
2060
6060
E060
6060
6060
6060
4060
C060
8040
ENDCHAR
STARTCHAR 2866
ENCODING 10342
SWIDTH 362 0
DWIDTH 16 0
BBX 16 16 0 -2
BITMAP
0080
20C3
3FFF
A0C0
E080
E080
20E0
20B8
608E
E086
6082
6080
6080
4080
C080
8080
ENDCHAR
STARTCHAR 2867
ENCODING 10343
SWIDTH 362 0
DWIDTH 16 0
BBX 16 16 0 -2
BITMAP
0080
20C3
3FFF
A408
E7FC
E608
2608
2608
6608
E608
6608
6608
6408
4C09
D80F
B007
ENDCHAR
STARTCHAR 2868
ENCODING 10344
SWIDTH 362 0
DWIDTH 16 0
BBX 16 16 0 -2
BITMAP
0080
20C3
3FFF
A21C
E318
E218
2218
2218
6218
E218
6218
6618
6418
4C18
D8F8
8030
ENDCHAR
STARTCHAR 2869
ENCODING 10345
SWIDTH 362 0
DWIDTH 16 0
BBX 16 16 0 -2
BITMAP
0008
3FFC
3648
3648
FFFF
0000
FFFF
1000
3004
3FFE
0006
0006
0006
000C
01F8
0030
ENDCHAR
STARTCHAR 286a
ENCODING 10346
SWIDTH 362 0
DWIDTH 16 0
BBX 16 16 0 -2
BITMAP
0180
0380
0660
0C30
181E
300F
DFF8
1018
1018
1FF8
1018
1018
1FF8
1018
1018
1018
ENDCHAR
STARTCHAR 286b
ENCODING 10347
SWIDTH 362 0
DWIDTH 16 0
BBX 16 16 0 -2
BITMAP
6018
6010
6410
7C10
D010
91FF
1010
FE10
1010
1010
3810
3C10
2410
4610
C010
8010
ENDCHAR
STARTCHAR 286c
ENCODING 10348
SWIDTH 362 0
DWIDTH 16 0
BBX 16 16 0 -2
BITMAP
0006
0016
3FF6
0006
0006
0004
3000
3004
3FFE
6180
0182
FFFF
0360
0638
180F
E003
ENDCHAR
STARTCHAR 286d
ENCODING 10349
SWIDTH 362 0
DWIDTH 16 0
BBX 16 16 0 -2
BITMAP
0002
FFFF
6000
6006
7FFE
6000
6006
6000
6000
6FFE
6C06
6C06
4C06
4C06
CFFE
8C04
ENDCHAR
STARTCHAR 286e
ENCODING 10350
SWIDTH 362 0
DWIDTH 16 0
BBX 16 16 0 -2
BITMAP
3000
300C
3FFC
2000
3000
3FFC
0000
000C
3FFC
0000
0003
0180
1998
318E
6183
8101
ENDCHAR
STARTCHAR 286f
ENCODING 10351
SWIDTH 362 0
DWIDTH 16 0
BBX 16 16 0 -2
BITMAP
1C00
79FF
1083
1082
FE86
3046
3844
3C4C
746C
7438
D030
9038
106C
10C6
1183
1701
ENDCHAR
STARTCHAR 2870
ENCODING 10352
SWIDTH 362 0
DWIDTH 16 0
BBX 16 16 0 -2
BITMAP
1CC0
78C0
10C0
10C0
FEC0
30C3
38FF
3CC0
74C0
74C0
D0C0
90C0
10C1
10C1
10FF
107F
ENDCHAR
STARTCHAR 2871
ENCODING 10353
SWIDTH 362 0
DWIDTH 16 0
BBX 16 16 0 -2
BITMAP
2070
3060
0460
FE60
0460
0470
446C
4C66
6C63
6861
2860
3A60
3C60
E060
0060
0060
ENDCHAR
STARTCHAR 2872
ENCODING 10354
SWIDTH 362 0
DWIDTH 16 0
BBX 16 16 0 -2
BITMAP
0300
0184
7FFE
1018
0810
0C23
FFFF
1010
1FF8
1818
1818
1818
1018
3019
601F
C00F
ENDCHAR
STARTCHAR 2873
ENCODING 10355
SWIDTH 362 0
DWIDTH 16 0
BBX 16 16 0 -2
BITMAP
4006
7FFE
4006
4016
671E
579E
4EF6
4676
4F36
497E
70CE
4106
4016
5FFE
401E
400C
ENDCHAR
STARTCHAR 2874
ENCODING 10356
SWIDTH 362 0
DWIDTH 16 0
BBX 16 16 0 -2
BITMAP
2004
7FFE
6666
6C7E
7004
0008
1FF8
0402
7FFF
0C00
0C18
0818
0018
0010
01F0
0060
ENDCHAR
STARTCHAR 2875
ENCODING 10357
SWIDTH 362 0
DWIDTH 16 0
BBX 16 16 0 -2
BITMAP
0180
0100
0126
3FFC
0118
0130
0363
01C0
0100
0204
0FFE
1840
6040
C040
00C3
0000
ENDCHAR
STARTCHAR 2876
ENCODING 10358
SWIDTH 362 0
DWIDTH 16 0
BBX 16 16 0 -2
BITMAP
4886
7DFE
4D86
4D86
7D86
5D86
4D86
4D86
4D80
7D80
4D80
4D80
CD81
CD81
BDFF
98FF
ENDCHAR
STARTCHAR 2877
ENCODING 10359
SWIDTH 362 0
DWIDTH 16 0
BBX 16 16 0 -2
BITMAP
4830
7C30
4C20
4C3F
7C20
5C20
4CFC
4C0C
4C18
7C30
4C60
4CC0
CD81
CD81
BDFF
98FF
ENDCHAR
STARTCHAR 2878
ENCODING 10360
SWIDTH 362 0
DWIDTH 16 0
BBX 16 16 0 -2
BITMAP
4800
7C30
4C20
4C64
7C46
5CC4
4D8C
4CD8
4C38
7C30
4C20
4C64
CCC2
CDFF
BDC1
9800
ENDCHAR
STARTCHAR 2879
ENCODING 10361
SWIDTH 362 0
DWIDTH 16 0
BBX 16 16 0 -2
BITMAP
0882
7D83
4992
4992
6992
5992
4992
4992
5992
7992
4992
4912
C912
CB12
BA02
9C02
ENDCHAR
STARTCHAR 287a
ENCODING 10362
SWIDTH 362 0
DWIDTH 16 0
BBX 16 16 0 -2
BITMAP
4006
7FFE
4006
5FF6
4006
4026
4FF6
4DA6
4CA6
4CE6
4FA6
4E26
48E6
5066
401E
400C
ENDCHAR
STARTCHAR 287b
ENCODING 10363
SWIDTH 362 0
DWIDTH 16 0
BBX 16 16 0 -2
BITMAP
2004
7FFE
6004
6FF4
6004
2004
1FF8
1018
1398
10D8
1018
31D8
3E18
2418
60F8
C030
ENDCHAR
STARTCHAR 287c
ENCODING 10364
SWIDTH 362 0
DWIDTH 16 0
BBX 16 16 0 -2
BITMAP
2002
7FFF
60C0
60C0
64C0
64FC
6404
6404
6404
6404
64FC
64C0
60C0
60C0
60C3
6000
ENDCHAR
STARTCHAR 287d
ENCODING 10365
SWIDTH 362 0
DWIDTH 16 0
BBX 16 16 0 -2
BITMAP
6006
6186
6186
6196
7FF6
6346
6266
663E
6816
6046
67E6
6006
6FF6
6006
7FFE
0004
ENDCHAR
STARTCHAR 287e
ENCODING 10366
SWIDTH 362 0
DWIDTH 16 0
BBX 16 16 0 -2
BITMAP
0300
0308
1FFC
1008
1FF8
1008
1FF8
1008
1FF8
0180
0180
0180
0180
0180
0180
0180
ENDCHAR
STARTCHAR 2921
ENCODING 10529
SWIDTH 362 0
DWIDTH 16 0
BBX 16 16 0 -2
BITMAP
0002
7FFF
0700
0C10
1808
307C
7FC6
3182
0182
7FFE
0180
018C
3FFC
0180
0182
FFFF
ENDCHAR
STARTCHAR 2922
ENCODING 10530
SWIDTH 362 0
DWIDTH 16 0
BBX 16 16 0 -2
BITMAP
1C18
1A13
FE7F
1810
0006
0386
0106
0106
1B06
0F06
0606
0606
0406
080C
307C
6018
ENDCHAR
STARTCHAR 2923
ENCODING 10531
SWIDTH 362 0
DWIDTH 16 0
BBX 16 16 0 -2
BITMAP
0C18
0C13
FE7F
0810
0C30
0C30
0C30
0C30
FFFF
0C30
0C30
0830
1830
1030
2030
4030
ENDCHAR
STARTCHAR 2924
ENCODING 10532
SWIDTH 362 0
DWIDTH 16 0
BBX 16 16 0 -2
BITMAP
1C18
1A13
FE7F
1810
0180
01FC
0100
7FF8
0018
0018
0018
0008
000C
000D
0007
0003
ENDCHAR
STARTCHAR 2925
ENCODING 10533
SWIDTH 362 0
DWIDTH 16 0
BBX 16 16 0 -2
BITMAP
1C18
1810
FF7F
1810
00C0
00C0
18C0
10C0
10C0
10A0
11B0
131C
160C
1800
1FFE
0000
ENDCHAR
STARTCHAR 2926
ENCODING 10534
SWIDTH 362 0
DWIDTH 16 0
BBX 16 16 0 -2
BITMAP
1C18
1A13
FF7F
1990
0380
0640
0C30
1F1C
360F
C412
0FF8
0018
0018
0018
01F0
0060
ENDCHAR
STARTCHAR 2927
ENCODING 10535
SWIDTH 362 0
DWIDTH 16 0
BBX 16 16 0 -2
BITMAP
1C18
1810
FFFF
1810
1B10
0180
0188
3FFC
0038
0070
0180
0700
1C00
7800
E7FF
01FC
ENDCHAR
STARTCHAR 2928
ENCODING 10536
SWIDTH 362 0
DWIDTH 16 0
BBX 16 16 0 -2
BITMAP
1C18
1810
FFFF
1810
1810
0CC0
0CC0
18C0
18C6
38C0
78C0
D8C0
18C1
18C1
18FF
107F
ENDCHAR
STARTCHAR 2929
ENCODING 10537
SWIDTH 362 0
DWIDTH 16 0
BBX 16 16 0 -2
BITMAP
00C0
60C0
60C0
60C8
67FC
64CC
64C8
64C8
67F8
64D8
60C8
6FFC
6E06
6000
7FFF
0000
ENDCHAR
STARTCHAR 292a
ENCODING 10538
SWIDTH 362 0
DWIDTH 16 0
BBX 16 16 0 -2
BITMAP
0060
7FE0
01C0
0300
0F0C
199C
63F0
06E0
18E0
61F0
0358
0C4C
38C7
C0C3
0F80
0300
ENDCHAR
STARTCHAR 292b
ENCODING 10539
SWIDTH 362 0
DWIDTH 16 0
BBX 16 16 0 -2
BITMAP
0300
0184
7FFE
1018
0830
0C20
0644
3FFC
0180
0180
0183
0180
0180
0180
0180
0100
ENDCHAR
STARTCHAR 292c
ENCODING 10540
SWIDTH 362 0
DWIDTH 16 0
BBX 16 16 0 -2
BITMAP
2006
7FFE
6000
6000
7FFC
6000
6000
7FFE
6190
6990
6D90
6998
4988
49EC
CF87
8C03
ENDCHAR
STARTCHAR 292d
ENCODING 10541
SWIDTH 362 0
DWIDTH 16 0
BBX 16 16 0 -2
BITMAP
0070
C060
6060
2060
0064
F3FE
3060
6060
7060
7060
37FF
3000
6000
F000
DFFF
03FC
ENDCHAR
STARTCHAR 292e
ENCODING 10542
SWIDTH 362 0
DWIDTH 16 0
BBX 16 16 0 -2
BITMAP
019C
6198
3198
1198
07FF
F198
3198
2198
79B0
59E2
1982
31FE
30FC
7800
DFFF
03FE
ENDCHAR
STARTCHAR 292f
ENCODING 10543
SWIDTH 362 0
DWIDTH 16 0
BBX 16 16 0 -2
BITMAP
0060
C040
607C
27E0
0040
F040
30CC
60C0
7040
7040
3042
307C
607C
F000
DFFF
03FC
ENDCHAR
STARTCHAR 2930
ENCODING 10544
SWIDTH 362 0
DWIDTH 16 0
BBX 16 16 0 -2
BITMAP
0018
1FF8
1018
1018
1FF8
1000
200C
318C
218C
218C
3FFC
000C
000C
600C
3FFC
3FF8
ENDCHAR
STARTCHAR 2931
ENCODING 10545
SWIDTH 362 0
DWIDTH 16 0
BBX 16 16 0 -2
BITMAP
C622
C43F
C432
C436
C434
C43C
FFF6
C432
C433
C431
C431
C43F
CC37
DC70
E7F0
47B0
ENDCHAR
STARTCHAR 2932
ENCODING 10546
SWIDTH 362 0
DWIDTH 16 0
BBX 16 16 0 -2
BITMAP
2422
323F
6332
41B6
C0B4
FF3C
6336
6332
6333
6331
6331
633F
63F7
43B0
C130
8030
ENDCHAR
STARTCHAR 2933
ENCODING 10547
SWIDTH 362 0
DWIDTH 16 0
BBX 16 16 0 -2
BITMAP
2122
7FBF
6132
6136
6134
7FFC
6136
6132
6133
FFF1
6131
613F
6137
6130
4F30
8230
ENDCHAR
STARTCHAR 2934
ENCODING 10548
SWIDTH 362 0
DWIDTH 16 0
BBX 16 16 0 -2
BITMAP
0004
1FFC
1218
1210
1130
1130
11A0
11E0
31C3
00C0
0660
0630
0C18
181C
300F
C003
ENDCHAR
STARTCHAR 2935
ENCODING 10549
SWIDTH 362 0
DWIDTH 16 0
BBX 16 16 0 -2
BITMAP
4804
7DFE
4C0C
4848
5830
5033
4BFF
4C32
4C30
4430
4C30
7C30
4830
4030
41F0
4060
ENDCHAR
STARTCHAR 2936
ENCODING 10550
SWIDTH 362 0
DWIDTH 16 0
BBX 16 16 0 -2
BITMAP
0000
FF7F
0000
0000
4646
4646
4646
4646
4E4E
4646
4646
4646
4646
4646
5E5E
4C4C
ENDCHAR
STARTCHAR 2937
ENCODING 10551
SWIDTH 362 0
DWIDTH 16 0
BBX 16 16 0 -2
BITMAP
0002
FFFF
0180
4184
7FFE
6306
6366
6736
799E
6186
6366
6636
6C16
7006
7FFE
4004
ENDCHAR
STARTCHAR 2938
ENCODING 10552
SWIDTH 362 0
DWIDTH 16 0
BBX 16 16 0 -2
BITMAP
0002
FFFF
0C30
181C
300C
4000
400E
6026
6476
63E6
61C6
63E6
6636
7C16
6006
6004
ENDCHAR
STARTCHAR 2939
ENCODING 10553
SWIDTH 362 0
DWIDTH 16 0
BBX 16 16 0 -2
BITMAP
1818
1810
1810
1810
FEFF
1810
1830
1838
3C38
3428
246C
6654
7AF6
4082
C103
8601
ENDCHAR
STARTCHAR 293a
ENCODING 10554
SWIDTH 362 0
DWIDTH 16 0
BBX 16 16 0 -2
BITMAP
007C
3FE0
1198
1DB8
0DE6
03C0
07F0
0D9C
3186
FFFC
000C
0008
0008
0008
0078
0018
ENDCHAR
STARTCHAR 293b
ENCODING 10555
SWIDTH 362 0
DWIDTH 16 0
BBX 16 16 0 -2
BITMAP
0180
0180
3F80
0180
3F80
4184
7FFE
6186
7FFE
4180
01FC
0180
01FC
0180
0180
0100
ENDCHAR
STARTCHAR 293c
ENCODING 10556
SWIDTH 362 0
DWIDTH 16 0
BBX 16 16 0 -2
BITMAP
0038
07FC
7980
0180
FFFF
2188
399C
19B0
7FFE
0380
07E0
0FB0
1D9C
318F
E183
0100
ENDCHAR
STARTCHAR 293d
ENCODING 10557
SWIDTH 362 0
DWIDTH 16 0
BBX 16 16 0 -2
BITMAP
0300
0208
1FFC
1008
1008
1008
1004
1FFE
1000
1FFF
1043
0063
7FC3
0083
011E
020C
ENDCHAR
STARTCHAR 293e
ENCODING 10558
SWIDTH 362 0
DWIDTH 16 0
BBX 16 16 0 -2
BITMAP
0606
5F5F
6060
4040
4040
4040
4646
7E7E
4040
4040
4040
4040
4040
4243
7E7F
4040
ENDCHAR
STARTCHAR 293f
ENCODING 10559
SWIDTH 362 0
DWIDTH 16 0
BBX 16 16 0 -2
BITMAP
0370
1F60
F060
0260
7B60
4DE0
C460
8060
4360
4360
4160
4161
4161
4163
7F7F
403E
ENDCHAR
STARTCHAR 2940
ENCODING 10560
SWIDTH 362 0
DWIDTH 16 0
BBX 16 16 0 -2
BITMAP
0003
0180
3198
318C
3188
3FF8
0180
3FFC
018C
FFFF
018C
3FFC
0180
0180
0F80
0300
ENDCHAR
STARTCHAR 2941
ENCODING 10561
SWIDTH 362 0
DWIDTH 16 0
BBX 16 16 0 -2
BITMAP
0300
0183
FFFF
1FF8
1818
1FF8
1000
1FF8
0018
1018
1FF8
1800
3000
3000
6000
C000
ENDCHAR
STARTCHAR 2942
ENCODING 10562
SWIDTH 362 0
DWIDTH 16 0
BBX 16 16 0 -2
BITMAP
1C30
19BC
1B23
3221
3422
73FE
7020
B020
37FF
3070
3070
30C8
30CC
3186
3303
3C01
ENDCHAR
STARTCHAR 2943
ENCODING 10563
SWIDTH 362 0
DWIDTH 16 0
BBX 16 16 0 -2
BITMAP
0C04
19FE
180C
1098
3070
3030
7010
D030
9030
13FF
1070
10F8
11BE
1337
1633
1030
ENDCHAR
STARTCHAR 2944
ENCODING 10564
SWIDTH 362 0
DWIDTH 16 0
BBX 16 16 0 -2
BITMAP
0C02
1BFF
1862
1062
3062
3062
73FE
D002
9000
13FF
1063
1062
1062
1062
1062
1002
ENDCHAR
STARTCHAR 2945
ENCODING 10565
SWIDTH 362 0
DWIDTH 16 0
BBX 16 16 0 -2
BITMAP
0D00
19FF
1910
1110
3110
31FF
7103
D102
9102
11FE
1112
1110
1110
1110
1333
1100
ENDCHAR
STARTCHAR 2946
ENCODING 10566
SWIDTH 362 0
DWIDTH 16 0
BBX 16 16 0 -2
BITMAP
0C00
1BFF
1830
1030
3232
33FF
7333
D333
933B
136F
13C7
1387
1303
1303
13FF
1302
ENDCHAR
STARTCHAR 2947
ENCODING 10567
SWIDTH 362 0
DWIDTH 16 0
BBX 16 16 0 -2
BITMAP
1C30
1830
1B36
3333
3222
73FE
7222
B222
33FE
3222
3036
303C
3038
306D
3187
3703
ENDCHAR
STARTCHAR 2948
ENCODING 10568
SWIDTH 362 0
DWIDTH 16 0
BBX 16 16 0 -2
BITMAP
1C00
1BDF
1A5B
325B
327B
7203
7203
B004
31FE
3086
308C
3058
3030
3078
318F
3703
ENDCHAR
STARTCHAR 2949
ENCODING 10569
SWIDTH 362 0
DWIDTH 16 0
BBX 16 16 0 -2
BITMAP
1DC0
1980
1982
31FF
3360
7260
7066
B060
3060
3060
307E
3060
3060
3060
3063
3000
ENDCHAR
STARTCHAR 294a
ENCODING 10570
SWIDTH 362 0
DWIDTH 16 0
BBX 16 16 0 -2
BITMAP
1CC0
18C4
18FE
31CC
3138
7238
70CF
B183
32CC
30CC
33FF
318C
33D8
3038
30C6
3383
ENDCHAR
STARTCHAR 294b
ENCODING 10571
SWIDTH 362 0
DWIDTH 16 0
BBX 16 16 0 -2
BITMAP
1C0E
1AF8
1B80
3200
33FF
7218
721A
B2FF
32DA
32DA
32DA
32DE
3618
3418
3C18
3010
ENDCHAR
STARTCHAR 294c
ENCODING 10572
SWIDTH 362 0
DWIDTH 16 0
BBX 16 16 0 -2
BITMAP
0180
03C0
0670
0C3C
37EF
D012
1FF8
1818
1FF8
0180
0180
03C0
0660
0C38
380F
E002
ENDCHAR
STARTCHAR 294d
ENCODING 10573
SWIDTH 362 0
DWIDTH 16 0
BBX 16 16 0 -2
BITMAP
0100
0180
03C0
0660
0C38
180F
FFF2
1804
1B7E
3346
7346
CE5E
044C
0841
307F
603F
ENDCHAR
STARTCHAR 294e
ENCODING 10574
SWIDTH 362 0
DWIDTH 16 0
BBX 16 16 0 -2
BITMAP
0180
0380
0660
0C30
181C
319F
D998
0DB0
01A6
7FFE
0640
0640
0441
0843
307F
607E
ENDCHAR
STARTCHAR 294f
ENCODING 10575
SWIDTH 362 0
DWIDTH 16 0
BBX 16 16 0 -2
BITMAP
0604
7E7E
6644
6644
7E7C
6004
6004
6004
7FFC
0660
0660
0C60
0C61
1863
307F
603E
ENDCHAR
STARTCHAR 2950
ENCODING 10576
SWIDTH 362 0
DWIDTH 16 0
BBX 16 16 0 -2
BITMAP
1802
11FF
546C
546C
546C
546C
FC6C
106C
D46C
D66C
D64C
D6CC
D6CC
FF8D
050F
0207
ENDCHAR
STARTCHAR 2951
ENCODING 10577
SWIDTH 362 0
DWIDTH 16 0
BBX 16 16 0 -2
BITMAP
0180
1180
199C
1198
3998
2DB4
47E6
81C0
FFFF
0670
0460
0460
0C61
1861
307F
C03F
ENDCHAR
STARTCHAR 2952
ENCODING 10578
SWIDTH 362 0
DWIDTH 16 0
BBX 16 16 0 -2
BITMAP
0180
0190
1998
3190
3DB4
6DAE
77FE
41A0
FFFF
0670
0460
0460
0C61
1861
307F
C03F
ENDCHAR
STARTCHAR 2953
ENCODING 10579
SWIDTH 362 0
DWIDTH 16 0
BBX 16 16 0 -2
BITMAP
0300
0200
360C
302C
26EC
218C
266C
2C2C
3FFC
2668
0660
0C60
0C61
1861
307F
C03F
ENDCHAR
STARTCHAR 2954
ENCODING 10580
SWIDTH 362 0
DWIDTH 16 0
BBX 16 16 0 -2
BITMAP
0006
7FFE
1818
1FF8
1818
1818
1FF8
1818
FFFF
0080
0040
0660
0C30
1818
300F
C002
ENDCHAR
STARTCHAR 2955
ENCODING 10581
SWIDTH 362 0
DWIDTH 16 0
BBX 16 16 0 -2
BITMAP
4006
7FFE
5326
5996
4C9E
4006
4186
4186
4986
4DB6
599E
518E
4186
4706
431E
400C
ENDCHAR
STARTCHAR 2956
ENCODING 10582
SWIDTH 362 0
DWIDTH 16 0
BBX 16 16 0 -2
BITMAP
4006
7FFE
4036
4C36
4466
5FFE
4186
4186
4986
4DB6
599E
518E
4186
4706
431E
400C
ENDCHAR
STARTCHAR 2957
ENCODING 10583
SWIDTH 362 0
DWIDTH 16 0
BBX 16 16 0 -2
BITMAP
0600
0620
0FF0
0860
3FFC
200C
200C
263C
2638
0FF0
0860
3FFC
200C
200C
203C
2018
ENDCHAR
STARTCHAR 2958
ENCODING 10584
SWIDTH 362 0
DWIDTH 16 0
BBX 16 16 0 -2
BITMAP
0060
C0C4
60FE
218C
0B78
0830
1060
11B0
3236
2063
E0C6
C1BC
6218
6030
60C0
0700
ENDCHAR
STARTCHAR 2959
ENCODING 10585
SWIDTH 362 0
DWIDTH 16 0
BBX 16 16 0 -2
BITMAP
0040
C060
60C0
20C0
0B86
0EDB
16DA
16DA
36DA
26DA
E6DA
C6DA
66DA
66DA
66DB
0000
ENDCHAR
STARTCHAR 295a
ENCODING 10586
SWIDTH 362 0
DWIDTH 16 0
BBX 16 16 0 -2
BITMAP
4000
20FC
348C
FE88
4888
6C88
4688
CC88
CC88
2888
3888
3988
2D88
6509
C30F
0607
ENDCHAR
STARTCHAR 295b
ENCODING 10587
SWIDTH 362 0
DWIDTH 16 0
BBX 16 16 0 -2
BITMAP
8200
FEFC
D88C
D888
DE88
FE88
C688
C688
C688
FE88
D888
D988
D988
D909
FF0F
0607
ENDCHAR
STARTCHAR 295c
ENCODING 10588
SWIDTH 362 0
DWIDTH 16 0
BBX 16 16 0 -2
BITMAP
2018
3018
2078
2018
2458
27F8
2458
245B
27DB
245A
245E
27CC
645D
403D
C067
8183
ENDCHAR
STARTCHAR 295d
ENCODING 10589
SWIDTH 362 0
DWIDTH 16 0
BBX 16 16 0 -2
BITMAP
3000
31FC
ED8C
CD88
CD88
CD88
FD88
C988
C188
FD88
CD88
CD88
CD88
CF09
FE0F
C407
ENDCHAR
STARTCHAR 295e
ENCODING 10590
SWIDTH 362 0
DWIDTH 16 0
BBX 16 16 0 -2
BITMAP
1830
3468
26DC
3870
146C
2FDE
7BF6
4842
0FF0
0830
0830
0830
1831
1031
303F
C01F
ENDCHAR
STARTCHAR 295f
ENCODING 10591
SWIDTH 362 0
DWIDTH 16 0
BBX 16 16 0 -2
BITMAP
0000
6207
419E
58B6
4C36
4666
5BDE
4DCE
4DEE
4276
453E
49DE
50CE
4006
C006
4006
ENDCHAR
STARTCHAR 2960
ENCODING 10592
SWIDTH 362 0
DWIDTH 16 0
BBX 16 16 0 -2
BITMAP
18CC
1988
3110
2330
1988
08CC
0004
0180
6187
4FF6
4186
5FFE
4186
4186
C106
4006
ENDCHAR
STARTCHAR 2961
ENCODING 10593
SWIDTH 362 0
DWIDTH 16 0
BBX 16 16 0 -2
BITMAP
1003
1803
0C9A
FFD2
0C12
6992
4992
4992
CD92
4D12
0C12
1A12
1302
3102
611E
C006
ENDCHAR
STARTCHAR 2962
ENCODING 10594
SWIDTH 362 0
DWIDTH 16 0
BBX 16 16 0 -2
BITMAP
1003
0803
0D9A
1812
1812
1012
3892
3992
6512
6612
E612
A312
2302
2D82
319E
3006
ENDCHAR
STARTCHAR 2963
ENCODING 10595
SWIDTH 362 0
DWIDTH 16 0
BBX 16 16 0 -2
BITMAP
1803
0C03
0CDA
0C12
1812
3112
6312
7612
0C12
1B12
3212
6612
8582
08C2
30DE
6006
ENDCHAR
STARTCHAR 2964
ENCODING 10596
SWIDTH 362 0
DWIDTH 16 0
BBX 16 16 0 -2
BITMAP
0C03
0C03
0F9A
0812
0812
FF92
0C12
0D12
7F92
4992
4992
4992
4982
4F02
081E
0806
ENDCHAR
STARTCHAR 2965
ENCODING 10597
SWIDTH 362 0
DWIDTH 16 0
BBX 16 16 0 -2
BITMAP
0203
3F03
231A
2F12
2B12
2B12
FFD2
C092
C092
C092
C092
C092
C082
C082
C79E
C186
ENDCHAR
STARTCHAR 2966
ENCODING 10598
SWIDTH 362 0
DWIDTH 16 0
BBX 16 16 0 -2
BITMAP
8183
FF83
C99A
CD92
C992
FF92
C992
C992
DD92
DB92
D392
F392
E182
C182
FF9E
8086
ENDCHAR
STARTCHAR 2967
ENCODING 10599
SWIDTH 362 0
DWIDTH 16 0
BBX 16 16 0 -2
BITMAP
0003
7BC3
7ADA
7ADA
7ADA
FFFA
7ADA
7ADA
7ADA
FFFA
7ADA
7AD2
7AC2
7AC2
7BDE
7AC6
ENDCHAR
STARTCHAR 2968
ENCODING 10600
SWIDTH 362 0
DWIDTH 16 0
BBX 16 16 0 -2
BITMAP
4083
7FC3
7ADA
7ADA
7ADA
FFFA
7ADA
7ADA
7ADA
FFFA
7ADA
7AD2
7AC2
7AC2
7BDE
4AC6
ENDCHAR
STARTCHAR 2969
ENCODING 10601
SWIDTH 362 0
DWIDTH 16 0
BBX 16 16 0 -2
BITMAP
8183
FF83
C99A
CD92
C992
DD92
D392
E392
CD92
C992
DD92
F792
E382
C182
C79E
C306
ENDCHAR
STARTCHAR 296a
ENCODING 10602
SWIDTH 362 0
DWIDTH 16 0
BBX 16 16 0 -2
BITMAP
3003
3303
3F9A
7312
4E12
8E12
1B92
6192
8C12
0C12
7F12
6D92
4C82
8C82
3C1E
1806
ENDCHAR
STARTCHAR 296b
ENCODING 10603
SWIDTH 362 0
DWIDTH 16 0
BBX 16 16 0 -2
BITMAP
3003
3783
301A
2012
6012
6012
60D2
E012
E412
6312
6112
6012
60C2
6F02
6C1E
6006
ENDCHAR
STARTCHAR 296c
ENCODING 10604
SWIDTH 362 0
DWIDTH 16 0
BBX 16 16 0 -2
BITMAP
2D03
6D83
4B1A
D212
6912
2D92
2492
3012
3192
3192
6312
DB12
8E02
0C02
381E
E006
ENDCHAR
STARTCHAR 296d
ENCODING 10605
SWIDTH 362 0
DWIDTH 16 0
BBX 16 16 0 -2
BITMAP
1830
4B30
FF30
B230
3033
3433
3433
FF33
2433
6433
6C23
7C63
1C63
36C6
639E
C30C
ENDCHAR
STARTCHAR 296e
ENCODING 10606
SWIDTH 362 0
DWIDTH 16 0
BBX 16 16 0 -2
BITMAP
0118
FF10
3410
3410
347F
2713
4793
8C13
0C13
0933
7F33
0823
0863
0F43
F8DE
418C
ENDCHAR
STARTCHAR 296f
ENCODING 10607
SWIDTH 362 0
DWIDTH 16 0
BBX 16 16 0 -2
BITMAP
0618
3F10
7810
1810
197F
FF13
1813
1813
1A13
7F33
4333
4323
4363
4343
7FDE
418C
ENDCHAR
STARTCHAR 2970
ENCODING 10608
SWIDTH 362 0
DWIDTH 16 0
BBX 16 16 0 -2
BITMAP
1800
3000
3006
3003
6062
4002
C01A
0002
0862
0C62
0C62
0C62
0C66
0866
007C
0018
ENDCHAR
STARTCHAR 2971
ENCODING 10609
SWIDTH 362 0
DWIDTH 16 0
BBX 16 16 0 -2
BITMAP
1800
3000
3006
3003
6022
4002
C862
0C62
0C62
0C62
0C62
0862
001E
0006
007C
0018
ENDCHAR
STARTCHAR 2972
ENCODING 10610
SWIDTH 362 0
DWIDTH 16 0
BBX 16 16 0 -2
BITMAP
3000
3000
3FFC
2000
3000
3FFE
0000
3FFC
300C
3FF8
3008
3188
0183
0180
0180
0100
ENDCHAR
STARTCHAR 2973
ENCODING 10611
SWIDTH 362 0
DWIDTH 16 0
BBX 16 16 0 -2
BITMAP
4002
7FFF
4200
4600
47FC
4C40
4840
5FFF
4040
4646
4444
4444
4CCC
440C
C003
4000
ENDCHAR
STARTCHAR 2974
ENCODING 10612
SWIDTH 362 0
DWIDTH 16 0
BBX 16 16 0 -2
BITMAP
0180
0180
7FFC
0180
0198
000C
0008
FFFF
0008
3FF8
0388
07E0
0DB8
198F
E182
0100
ENDCHAR
STARTCHAR 2975
ENCODING 10613
SWIDTH 362 0
DWIDTH 16 0
BBX 16 16 0 -2
BITMAP
3004
33FE
20C6
20C6
FC86
218C
233C
2408
2082
2FDF
26DB
26DB
26DB
24D3
2FFF
39E6
ENDCHAR
STARTCHAR 2976
ENCODING 10614
SWIDTH 362 0
DWIDTH 16 0
BBX 16 16 0 -2
BITMAP
6676
6466
6466
6466
6466
6466
FE7F
6466
6466
6466
6466
6466
6466
6466
7C7E
4464
ENDCHAR
STARTCHAR 2977
ENCODING 10615
SWIDTH 362 0
DWIDTH 16 0
BBX 16 16 0 -2
BITMAP
0078
0FFC
7980
0186
7FFE
3198
3DB6
3DB6
25B6
7DBE
CDC4
FFFF
0180
0180
0180
0100
ENDCHAR
STARTCHAR 2978
ENCODING 10616
SWIDTH 362 0
DWIDTH 16 0
BBX 16 16 0 -2
BITMAP
0030
3FF8
3000
3FFE
3060
3060
6060
C060
1050
1818
1A18
FE7F
1818
1818
1818
1010
ENDCHAR
STARTCHAR 2979
ENCODING 10617
SWIDTH 362 0
DWIDTH 16 0
BBX 16 16 0 -2
BITMAP
0004
7C7E
0000
0000
0000
0603
FE7F
1018
1C1C
161E
131B
1319
1018
1018
1018
1010
ENDCHAR
STARTCHAR 297a
ENCODING 10618
SWIDTH 362 0
DWIDTH 16 0
BBX 16 16 0 -2
BITMAP
00C0
00C4
00FC
2080
3FFF
2008
26FC
2600
2602
27FF
2630
2630
6630
6430
CC30
9830
ENDCHAR
STARTCHAR 297b
ENCODING 10619
SWIDTH 362 0
DWIDTH 16 0
BBX 16 16 0 -2
BITMAP
0060
0046
007E
0040
07FC
0404
640C
440C
4404
47FC
4404
4404
47FC
4404
C003
4000
ENDCHAR
STARTCHAR 297c
ENCODING 10620
SWIDTH 362 0
DWIDTH 16 0
BBX 16 16 0 -2
BITMAP
0060
0046
007E
0040
07FC
0404
6464
4464
4464
47E4
4404
4404
47FC
4404
C003
4000
ENDCHAR
STARTCHAR 297d
ENCODING 10621
SWIDTH 362 0
DWIDTH 16 0
BBX 16 16 0 -2
BITMAP
0180
0186
01FE
3188
3FFC
3008
3FF8
3008
3008
1C08
1808
1FFC
1802
1802
1FFE
0FFE
ENDCHAR
STARTCHAR 297e
ENCODING 10622
SWIDTH 362 0
DWIDTH 16 0
BBX 16 16 0 -2
BITMAP
00C0
00FE
00C0
0FFE
6936
48E6
4B96
4FFE
4804
FFFF
0003
0002
0002
0006
007E
000C
ENDCHAR
STARTCHAR 2a21
ENCODING 10785
SWIDTH 362 0
DWIDTH 16 0
BBX 16 16 0 -2
BITMAP
0180
0182
01FF
0180
4186
7FFE
60C6
6D9E
6336
67A6
6CE6
60F6
6316
6606
6006
6006
ENDCHAR
STARTCHAR 2a22
ENCODING 10786
SWIDTH 362 0
DWIDTH 16 0
BBX 16 16 0 -2
BITMAP
1030
3030
3F30
2330
7230
9E38
0E36
1F33
3333
7F31
E330
2330
2330
2330
3F30
2030
ENDCHAR
STARTCHAR 2a23
ENCODING 10787
SWIDTH 362 0
DWIDTH 16 0
BBX 16 16 0 -2
BITMAP
4202
7F7F
4262
4262
7E62
4262
4262
7E62
4262
4062
4662
4062
407E
4064
4660
4040
ENDCHAR
STARTCHAR 2a24
ENCODING 10788
SWIDTH 362 0
DWIDTH 16 0
BBX 16 16 0 -2
BITMAP
0602
7E7F
3632
6662
86C2
7E7E
4062
C240
FFFF
0303
0203
0203
0203
0603
3E3E
0C0C
ENDCHAR
STARTCHAR 2a25
ENCODING 10789
SWIDTH 362 0
DWIDTH 16 0
BBX 16 16 0 -2
BITMAP
0010
0C30
0620
7FFF
60C0
60C8
7FFC
608C
60CE
60CC
6088
7FF8
6080
4080
C080
8080
ENDCHAR
STARTCHAR 2a26
ENCODING 10790
SWIDTH 362 0
DWIDTH 16 0
BBX 16 16 0 -2
BITMAP
4002
7FFF
6418
6318
6132
7FFF
60C0
6CCC
6CCC
6CCC
6CCC
4FFC
4080
C180
8300
8600
ENDCHAR
STARTCHAR 2a27
ENCODING 10791
SWIDTH 362 0
DWIDTH 16 0
BBX 16 16 0 -2
BITMAP
4002
7FFF
6C00
6C04
6FFE
6C00
6FFE
67FF
6404
67FE
6604
4604
47FC
C604
860C
860C
ENDCHAR
STARTCHAR 2a28
ENCODING 10792
SWIDTH 362 0
DWIDTH 16 0
BBX 16 16 0 -2
BITMAP
4002
7FFF
6030
6C30
6C36
6C30
6C32
6DFF
6C04
6DFE
6CCC
4C68
4C30
C878
80CF
8386
ENDCHAR
STARTCHAR 2a29
ENCODING 10793
SWIDTH 362 0
DWIDTH 16 0
BBX 16 16 0 -2
BITMAP
4002
7FFF
6000
6FFF
6803
6872
6A5A
69DA
68F2
69F2
6B32
4E7A
48CA
C902
8FFE
8802
ENDCHAR
STARTCHAR 2a2a
ENCODING 10794
SWIDTH 362 0
DWIDTH 16 0
BBX 16 16 0 -2
BITMAP
0002
7FFF
40C0
40C0
4130
4218
440F
580B
47F8
4000
4FFC
4C0C
4C0C
CC0C
8C0C
8C0C
ENDCHAR
STARTCHAR 2a2b
ENCODING 10795
SWIDTH 362 0
DWIDTH 16 0
BBX 16 16 0 -2
BITMAP
0700
0600
0C10
1818
3FFC
3184
218C
318C
218C
3FFC
0182
7FFF
0660
0C30
381F
E007
ENDCHAR
STARTCHAR 2a2c
ENCODING 10796
SWIDTH 362 0
DWIDTH 16 0
BBX 16 16 0 -2
BITMAP
0700
0600
0C10
1818
3FFC
3104
0180
3FFC
218C
218C
3FFC
03C0
0DF0
199F
6186
0100
ENDCHAR
STARTCHAR 2a2d
ENCODING 10797
SWIDTH 362 0
DWIDTH 16 0
BBX 16 16 0 -2
BITMAP
0300
0630
1FF8
1C2C
1830
3666
6FFE
7142
0002
FFFF
0C18
1FF8
0018
0018
00F0
0020
ENDCHAR
STARTCHAR 2a2e
ENCODING 10798
SWIDTH 362 0
DWIDTH 16 0
BBX 16 16 0 -2
BITMAP
1020
1830
1820
1020
3666
234E
7FF2
6040
1830
1830
1020
3464
3262
6FFE
73E2
4000
ENDCHAR
STARTCHAR 2a2f
ENCODING 10799
SWIDTH 362 0
DWIDTH 16 0
BBX 16 16 0 -2
BITMAP
0606
7E7E
6646
3424
1C1C
1C1C
163E
2267
DCDF
1818
1A18
FE7F
1818
1018
3018
6018
ENDCHAR
STARTCHAR 2a30
ENCODING 10800
SWIDTH 362 0
DWIDTH 16 0
BBX 16 16 0 -2
BITMAP
0180
0180
0198
0180
0180
0183
FFFF
1D80
71FE
31C6
FDA4
31BC
319C
21BE
41E7
81C3
ENDCHAR
STARTCHAR 2a31
ENCODING 10801
SWIDTH 362 0
DWIDTH 16 0
BBX 16 16 0 -2
BITMAP
0018
183C
0630
03C0
03F0
0E3F
7B06
0640
0CC0
0310
0EFC
3D84
1DB0
199C
3786
4180
ENDCHAR
STARTCHAR 2a32
ENCODING 10802
SWIDTH 362 0
DWIDTH 16 0
BBX 16 16 0 -2
BITMAP
0180
01B8
0FF8
0180
0198
0180
0182
FFFF
0D80
6DFE
4DA6
4DB4
FD9C
099C
11B7
61E3
ENDCHAR
STARTCHAR 2a33
ENCODING 10803
SWIDTH 362 0
DWIDTH 16 0
BBX 16 16 0 -2
BITMAP
1018
130C
1188
FFFF
3108
3088
3FFF
0018
00F0
0020
1018
1018
1018
1018
1018
1018
ENDCHAR
STARTCHAR 2a34
ENCODING 10804
SWIDTH 362 0
DWIDTH 16 0
BBX 16 16 0 -2
BITMAP
1018
100C
1008
1FF8
0008
7FFE
6006
6006
7FFE
6008
67FC
6338
61E0
41F0
C71F
BC0E
ENDCHAR
STARTCHAR 2a35
ENCODING 10805
SWIDTH 362 0
DWIDTH 16 0
BBX 16 16 0 -2
BITMAP
0030
0030
D820
D823
DBFF
D820
DA33
D976
D9F4
D878
D858
F8C8
C08C
0186
0303
0601
ENDCHAR
STARTCHAR 2a36
ENCODING 10806
SWIDTH 362 0
DWIDTH 16 0
BBX 16 16 0 -2
BITMAP
0002
03FF
D832
D830
D830
D9B0
D930
D93F
D930
D930
D930
FB30
C330
02B0
067F
0C3E
ENDCHAR
STARTCHAR 2a37
ENCODING 10807
SWIDTH 362 0
DWIDTH 16 0
BBX 16 16 0 -2
BITMAP
0006
03FE
F80C
D830
D820
D9A3
DFB4
D9B8
D9B8
D9A8
DB2C
FB26
D623
0C21
09E0
0060
ENDCHAR
STARTCHAR 2a38
ENCODING 10808
SWIDTH 362 0
DWIDTH 16 0
BBX 16 16 0 -2
BITMAP
0000
03FF
DB03
DB03
DB13
DBFB
DB13
DB13
DB13
DB13
DBF3
FB03
C303
03FF
0303
0000
ENDCHAR
STARTCHAR 2a39
ENCODING 10809
SWIDTH 362 0
DWIDTH 16 0
BBX 16 16 0 -2
BITMAP
0180
0180
D983
DB03
DA03
DA1B
DB5B
DB33
DB3B
DB7B
DB83
FBFF
C003
0003
003E
000C
ENDCHAR
STARTCHAR 2a3a
ENCODING 10810
SWIDTH 362 0
DWIDTH 16 0
BBX 16 16 0 -2
BITMAP
01C0
0180
D982
D9FF
D97A
DB7A
DA5A
D8D2
D8B2
D9B2
DB22
FA46
C09E
000C
0000
03FF
ENDCHAR
STARTCHAR 2a3b
ENCODING 10811
SWIDTH 362 0
DWIDTH 16 0
BBX 16 16 0 -2
BITMAP
000C
00FE
DB88
D9CC
D987
DB03
D802
DBFF
D840
D8C6
D8FE
F806
C006
0006
007C
0018
ENDCHAR
STARTCHAR 2a3c
ENCODING 10812
SWIDTH 362 0
DWIDTH 16 0
BBX 16 16 0 -2
BITMAP
2004
3FFE
21C6
2186
27F6
2186
2196
3FFE
2186
27F6
2626
2626
67E6
6006
401E
800C
ENDCHAR
STARTCHAR 2a3d
ENCODING 10813
SWIDTH 362 0
DWIDTH 16 0
BBX 16 16 0 -2
BITMAP
1800
1002
3FFF
2000
5818
9818
1818
1818
1FF8
0000
300C
300C
3004
3004
3FFC
3004
ENDCHAR
STARTCHAR 2a3e
ENCODING 10814
SWIDTH 362 0
DWIDTH 16 0
BBX 16 16 0 -2
BITMAP
4006
7FFE
4006
4FF6
4186
4186
419E
5FFE
4646
4646
4C46
487E
507E
4006
7FFE
4002
ENDCHAR
STARTCHAR 2a3f
ENCODING 10815
SWIDTH 362 0
DWIDTH 16 0
BBX 16 16 0 -2
BITMAP
4006
7FFE
4006
4106
4196
5FFE
4306
4666
4CE6
4F86
4336
4DFE
5E1E
4806
7FFE
4002
ENDCHAR
STARTCHAR 2a40
ENCODING 10816
SWIDTH 362 0
DWIDTH 16 0
BBX 16 16 0 -2
BITMAP
4006
7FFE
4306
4306
5FFE
45C6
4DB6
4DB6
5D96
4D96
4DB6
4DB6
4186
4186
7FFE
4002
ENDCHAR
STARTCHAR 2a41
ENCODING 10817
SWIDTH 362 0
DWIDTH 16 0
BBX 16 16 0 -2
BITMAP
4006
7FFE
4106
4186
519E
4DB6
45E6
41C6
47B6
5D9E
718E
4186
4786
4106
7FFE
4002
ENDCHAR
STARTCHAR 2a42
ENCODING 10818
SWIDTH 362 0
DWIDTH 16 0
BBX 16 16 0 -2
BITMAP
4006
7FFE
4006
4FF6
4836
4836
4FF6
4836
4836
4FF6
4836
4836
4FF6
4006
7FFE
4002
ENDCHAR
STARTCHAR 2a43
ENCODING 10819
SWIDTH 362 0
DWIDTH 16 0
BBX 16 16 0 -2
BITMAP
4006
7FFE
4006
4FF6
4836
4836
4C36
4C26
4006
4FF6
4006
4006
5FFE
4006
7FFE
4002
ENDCHAR
STARTCHAR 2a44
ENCODING 10820
SWIDTH 362 0
DWIDTH 16 0
BBX 16 16 0 -2
BITMAP
300C
300C
300C
3600
3708
37FC
3602
67FE
43FE
8100
0180
018C
3FFC
0180
0182
FFFF
ENDCHAR
STARTCHAR 2a45
ENCODING 10821
SWIDTH 362 0
DWIDTH 16 0
BBX 16 16 0 -2
BITMAP
3002
31FF
3302
32C8
FCFC
30C8
30C8
33FF
30C8
30C8
30C8
3C88
7188
E109
030F
0607
ENDCHAR
STARTCHAR 2a46
ENCODING 10822
SWIDTH 362 0
DWIDTH 16 0
BBX 16 16 0 -2
BITMAP
3104
31FE
3184
31FC
FD80
3182
3186
31FE
3030
3030
3032
3DFF
7030
E030
0030
0030
ENDCHAR
STARTCHAR 2a47
ENCODING 10823
SWIDTH 362 0
DWIDTH 16 0
BBX 16 16 0 -2
BITMAP
3002
31FE
3000
3000
FC00
33FF
3030
3030
31B4
31B6
3132
3F33
7233
E631
0030
0030
ENDCHAR
STARTCHAR 2a48
ENCODING 10824
SWIDTH 362 0
DWIDTH 16 0
BBX 16 16 0 -2
BITMAP
3020
3030
3022
33FF
FC70
3048
30CC
3187
3603
3004
31FE
3C00
7000
E000
0003
0000
ENDCHAR
STARTCHAR 2a49
ENCODING 10825
SWIDTH 362 0
DWIDTH 16 0
BBX 16 16 0 -2
BITMAP
300C
300C
3004
31FC
FD80
3182
3186
31FE
3030
3030
3032
3DFF
7030
E030
0030
0030
ENDCHAR
STARTCHAR 2a4a
ENCODING 10826
SWIDTH 362 0
DWIDTH 16 0
BBX 16 16 0 -2
BITMAP
3104
31FE
3186
3186
FD86
31FE
3184
3180
3186
3183
3182
3D82
7182
E1FE
0182
0100
ENDCHAR
STARTCHAR 2a4b
ENCODING 10827
SWIDTH 362 0
DWIDTH 16 0
BBX 16 16 0 -2
BITMAP
3202
33FF
3333
3333
FF33
33FF
3333
3333
3333
33FF
3333
3F33
7333
E233
063F
0C26
ENDCHAR
STARTCHAR 2a4c
ENCODING 10828
SWIDTH 362 0
DWIDTH 16 0
BBX 16 16 0 -2
BITMAP
30C0
30C0
30C3
31B0
FF18
3390
3192
31FF
3392
3192
3196
3D90
7181
E181
01FF
00FF
ENDCHAR
STARTCHAR 2a4d
ENCODING 10829
SWIDTH 362 0
DWIDTH 16 0
BBX 16 16 0 -2
BITMAP
001C
07FC
3980
0180
199C
1198
7DFF
1198
1198
1198
FFFE
C180
0180
0181
01FF
00FE
ENDCHAR
STARTCHAR 2a4e
ENCODING 10830
SWIDTH 362 0
DWIDTH 16 0
BBX 16 16 0 -2
BITMAP
0180
0180
3FFC
0180
0183
1C00
1804
3FFE
3006
6FC6
C846
0846
0FC6
0844
00FC
0018
ENDCHAR
STARTCHAR 2a4f
ENCODING 10831
SWIDTH 362 0
DWIDTH 16 0
BBX 16 16 0 -2
BITMAP
0700
0600
0C18
1FFC
3C0C
0E30
0C36
0C30
0820
1820
21A0
0180
3FFC
0180
0182
FFFF
ENDCHAR
STARTCHAR 2a50
ENCODING 10832
SWIDTH 362 0
DWIDTH 16 0
BBX 16 16 0 -2
BITMAP
0038
13F8
1E00
1804
1FFE
1830
1830
1830
1833
0100
0180
018C
3FFC
0180
0182
FFFF
ENDCHAR
STARTCHAR 2a51
ENCODING 10833
SWIDTH 362 0
DWIDTH 16 0
BBX 16 16 0 -2
BITMAP
0700
7C7E
6266
6666
6666
7E66
767E
4464
0C60
1940
0180
018C
3FFC
0180
0182
FFFF
ENDCHAR
STARTCHAR 2a52
ENCODING 10834
SWIDTH 362 0
DWIDTH 16 0
BBX 16 16 0 -2
BITMAP
0C98
19F8
1198
3198
7199
111B
131F
160E
0078
1FC0
0180
0183
FFFF
0180
0184
3FFC
ENDCHAR
STARTCHAR 2a53
ENCODING 10835
SWIDTH 362 0
DWIDTH 16 0
BBX 16 16 0 -2
BITMAP
100C
1800
1808
1800
1808
1800
1803
0700
0618
6FF8
1810
3E20
41C0
03F0
0C1F
F007
ENDCHAR
STARTCHAR 2a54
ENCODING 10836
SWIDTH 362 0
DWIDTH 16 0
BBX 16 16 0 -2
BITMAP
0300
0180
FFFF
0C30
0C20
CC7F
6C63
2CE6
2DB6
0D1C
0C18
1A30
3340
2180
40FF
807F
ENDCHAR
STARTCHAR 2a55
ENCODING 10837
SWIDTH 362 0
DWIDTH 16 0
BBX 16 16 0 -2
BITMAP
0000
7FFF
C023
8C66
0640
1FF8
0180
0180
0180
7FFF
0300
0230
041C
0806
3003
E001
ENDCHAR
STARTCHAR 2a56
ENCODING 10838
SWIDTH 362 0
DWIDTH 16 0
BBX 16 16 0 -2
BITMAP
3C18
2C18
3F18
3F18
2D1A
2D18
FF18
AC18
AD18
FFB8
2D3C
2D24
6F66
6FC6
CC83
8D01
ENDCHAR
STARTCHAR 2a57
ENCODING 10839
SWIDTH 362 0
DWIDTH 16 0
BBX 16 16 0 -2
BITMAP
0660
3FFC
0664
7FFC
6660
7FFF
4C63
087E
3066
6180
0302
FFFF
0630
0C1C
3806
E003
ENDCHAR
STARTCHAR 2a58
ENCODING 10840
SWIDTH 362 0
DWIDTH 16 0
BBX 16 16 0 -2
BITMAP
7630
6630
FFFF
6670
66C8
7F86
0E03
F821
0C30
0C20
0C20
0C20
0820
1820
3020
6020
ENDCHAR
STARTCHAR 2a59
ENCODING 10841
SWIDTH 362 0
DWIDTH 16 0
BBX 16 16 0 -2
BITMAP
1998
1998
FFFF
1998
1998
1998
1FF8
0180
0182
7FFF
03C0
0240
0430
081C
300F
C002
ENDCHAR
STARTCHAR 2a5a
ENCODING 10842
SWIDTH 362 0
DWIDTH 16 0
BBX 16 16 0 -2
BITMAP
0100
0302
7FFF
0630
0C18
198E
3187
C1FF
0180
0180
0182
7FFF
0C10
181C
300E
6006
ENDCHAR
STARTCHAR 2a5b
ENCODING 10843
SWIDTH 362 0
DWIDTH 16 0
BBX 16 16 0 -2
BITMAP
0100
0302
7FFF
0630
0C18
180E
3077
DFC3
1800
180C
1FFC
1820
1820
1820
1822
FFFF
ENDCHAR
STARTCHAR 2a5c
ENCODING 10844
SWIDTH 362 0
DWIDTH 16 0
BBX 16 16 0 -2
BITMAP
4004
7FFE
6666
6666
7FFE
4C74
0C60
187E
303E
6180
0302
FFFF
0630
0C1C
3806
E003
ENDCHAR
STARTCHAR 2a5d
ENCODING 10845
SWIDTH 362 0
DWIDTH 16 0
BBX 16 16 0 -2
BITMAP
1800
1806
3FFE
66C6
3386
37C6
3C76
3006
007C
0188
0302
FFFF
0630
0C1C
3806
E003
ENDCHAR
STARTCHAR 2a5e
ENCODING 10846
SWIDTH 362 0
DWIDTH 16 0
BBX 16 16 0 -2
BITMAP
1000
137F
3F42
7224
CC38
0818
300F
6603
8430
FFFF
0C30
1820
1EC0
03E0
061C
780E
ENDCHAR
STARTCHAR 2a5f
ENCODING 10847
SWIDTH 362 0
DWIDTH 16 0
BBX 16 16 0 -2
BITMAP
2030
6030
63FF
6830
FD36
E933
6932
6932
4932
D936
F870
30F0
39B0
6F30
C630
0030
ENDCHAR
STARTCHAR 2a60
ENCODING 10848
SWIDTH 362 0
DWIDTH 16 0
BBX 16 16 0 -2
BITMAP
2030
6130
61B7
69B6
FDB6
E9B6
69B6
6936
4830
D9B3
F933
3132
3932
6D32
C332
0102
ENDCHAR
STARTCHAR 2a61
ENCODING 10849
SWIDTH 362 0
DWIDTH 16 0
BBX 16 16 0 -2
BITMAP
201E
61F0
6030
6837
FDB6
E8B4
68B8
6833
4BFF
D830
F830
3030
3830
6C30
C1F0
0060
ENDCHAR
STARTCHAR 2a62
ENCODING 10850
SWIDTH 362 0
DWIDTH 16 0
BBX 16 16 0 -2
BITMAP
0998
7D98
0998
11D8
37F8
3398
3398
3BD8
F7F8
7598
3598
3998
3199
3199
F19F
610F
ENDCHAR
STARTCHAR 2a63
ENCODING 10851
SWIDTH 362 0
DWIDTH 16 0
BBX 16 16 0 -2
BITMAP
0180
7186
6184
7FFC
0180
0360
0C38
180F
7FF2
0060
0080
7FFF
0180
0180
0F80
0300
ENDCHAR
STARTCHAR 2a64
ENCODING 10852
SWIDTH 362 0
DWIDTH 16 0
BBX 16 16 0 -2
BITMAP
0030
0C30
0C36
0B23
1B62
3672
6DDE
C184
0620
1FF0
00C0
0182
7FFE
0180
0F80
0300
ENDCHAR
STARTCHAR 2a65
ENCODING 10853
SWIDTH 362 0
DWIDTH 16 0
BBX 16 16 0 -2
BITMAP
0300
4180
7FFF
C003
8004
7FFC
0180
0180
0180
0182
7FFF
0000
0C30
180C
3006
6002
ENDCHAR
STARTCHAR 2a66
ENCODING 10854
SWIDTH 362 0
DWIDTH 16 0
BBX 16 16 0 -2
BITMAP
0300
4180
7FFF
C003
801C
0380
0380
0EC0
39E0
0330
0C70
31F0
0730
1C30
63E0
00C0
ENDCHAR
STARTCHAR 2a67
ENCODING 10855
SWIDTH 362 0
DWIDTH 16 0
BBX 16 16 0 -2
BITMAP
0300
4180
7FFF
C103
8184
318C
218C
3FFC
218C
0104
7FFE
0306
0606
0C04
187C
7018
ENDCHAR
STARTCHAR 2a68
ENCODING 10856
SWIDTH 362 0
DWIDTH 16 0
BBX 16 16 0 -2
BITMAP
0300
4180
7FFF
C003
8804
0C1C
1BE0
1040
3040
7042
D7FE
1040
1041
1043
107F
103E
ENDCHAR
STARTCHAR 2a69
ENCODING 10857
SWIDTH 362 0
DWIDTH 16 0
BBX 16 16 0 -2
BITMAP
4206
7F06
4206
42FF
4206
4206
4266
4236
7E36
4206
4006
4406
4606
7F06
633E
400C
ENDCHAR
STARTCHAR 2a6a
ENCODING 10858
SWIDTH 362 0
DWIDTH 16 0
BBX 16 16 0 -2
BITMAP
0E06
7806
1806
18FF
7F06
1806
3C66
3E36
3B36
7B06
5806
9806
1806
1806
183E
180C
ENDCHAR
STARTCHAR 2a6b
ENCODING 10859
SWIDTH 362 0
DWIDTH 16 0
BBX 16 16 0 -2
BITMAP
0180
19A0
199C
3186
4182
3FFC
000C
000A
7FFE
0008
3FF8
1800
1818
300C
6006
C002
ENDCHAR
STARTCHAR 2a6c
ENCODING 10860
SWIDTH 362 0
DWIDTH 16 0
BBX 16 16 0 -2
BITMAP
0200
FFFF
2430
2430
2420
247E
24E6
24E6
2566
2466
6466
6466
6441
4401
C7FF
87FF
ENDCHAR
STARTCHAR 2a6d
ENCODING 10861
SWIDTH 362 0
DWIDTH 16 0
BBX 16 16 0 -2
BITMAP
0300
0183
FFFF
1FF8
1818
1818
1FF8
0008
1FFC
100C
1008
1FF8
3008
3000
6000
C000
ENDCHAR
STARTCHAR 2a6e
ENCODING 10862
SWIDTH 362 0
DWIDTH 16 0
BBX 16 16 0 -2
BITMAP
4006
7FFE
6006
6006
7FFE
6302
6300
67FC
6440
6840
78C6
40F0
4090
C188
8607
9C03
ENDCHAR
STARTCHAR 2a6f
ENCODING 10863
SWIDTH 362 0
DWIDTH 16 0
BBX 16 16 0 -2
BITMAP
4006
7FFE
6006
7FFE
6106
63F8
6638
6860
61F0
6662
67FF
4662
4662
C67E
8464
8060
ENDCHAR
STARTCHAR 2a70
ENCODING 10864
SWIDTH 362 0
DWIDTH 16 0
BBX 16 16 0 -2
BITMAP
0180
7186
6184
7FFC
0300
0C00
FFFF
0010
01F8
1D80
0180
7FFC
0180
0180
0182
FFFF
ENDCHAR
STARTCHAR 2a71
ENCODING 10865
SWIDTH 362 0
DWIDTH 16 0
BBX 16 16 0 -2
BITMAP
0180
0380
0660
0C30
181C
3FFF
C190
59B4
6DA6
65C6
6186
4184
0180
0180
0180
0100
ENDCHAR
STARTCHAR 2a72
ENCODING 10866
SWIDTH 362 0
DWIDTH 16 0
BBX 16 16 0 -2
BITMAP
0600
0338
09B0
4C60
48C6
4B8B
CE1B
1FF8
63F0
0180
0180
7186
6184
6184
618C
600C
ENDCHAR
STARTCHAR 2a73
ENCODING 10867
SWIDTH 362 0
DWIDTH 16 0
BBX 16 16 0 -2
BITMAP
2004
7FFE
6664
6664
6664
6664
7FFC
0100
0180
0180
7186
6184
6184
6184
618C
600C
ENDCHAR
STARTCHAR 2a74
ENCODING 10868
SWIDTH 362 0
DWIDTH 16 0
BBX 16 16 0 -2
BITMAP
207C
3058
20DE
A0DB
AC5A
AC5A
AFFE
AF58
AF5A
AFFF
ACDB
ACDB
FC9B
019A
0318
0618
ENDCHAR
STARTCHAR 2a75
ENCODING 10869
SWIDTH 362 0
DWIDTH 16 0
BBX 16 16 0 -2
BITMAP
3102
31FF
3180
3180
B5A6
B5BE
B5A6
B5A6
B5A6
B5A6
B5BE
B5A2
FD80
0180
0183
0100
ENDCHAR
STARTCHAR 2a76
ENCODING 10870
SWIDTH 362 0
DWIDTH 16 0
BBX 16 16 0 -2
BITMAP
0180
7186
6184
6184
7FFC
0180
0188
0180
0180
FFFF
0830
0620
03C0
03C0
0E7F
F00E
ENDCHAR
STARTCHAR 2a77
ENCODING 10871
SWIDTH 362 0
DWIDTH 16 0
BBX 16 16 0 -2
BITMAP
2000
31FF
2060
A060
A860
A840
A8C0
A8FF
A8C3
A9C2
ABC2
AAC2
F8C2
00C2
00FE
0080
ENDCHAR
STARTCHAR 2a78
ENCODING 10872
SWIDTH 362 0
DWIDTH 16 0
BBX 16 16 0 -2
BITMAP
0180
7186
6184
7FFC
0000
1018
1FF8
1018
1018
1FF8
1658
0640
0441
0843
307F
603E
ENDCHAR
STARTCHAR 2a79
ENCODING 10873
SWIDTH 362 0
DWIDTH 16 0
BBX 16 16 0 -2
BITMAP
3030
3130
31B7
31B6
F5B6
B5B6
B5B6
B536
B430
B5B3
B533
B532
FD32
0132
0332
0102
ENDCHAR
STARTCHAR 2a7a
ENCODING 10874
SWIDTH 362 0
DWIDTH 16 0
BBX 16 16 0 -2
BITMAP
30C0
30C0
30C3
3190
B518
B4D8
B4DA
B4FF
B59B
B49B
B49A
B498
FC90
0081
00FF
007F
ENDCHAR
STARTCHAR 2a7b
ENCODING 10875
SWIDTH 362 0
DWIDTH 16 0
BBX 16 16 0 -2
BITMAP
0180
7186
6184
7FFC
1000
1800
180C
3180
6180
0182
7FFE
0340
0620
0C18
380F
E002
ENDCHAR
STARTCHAR 2a7c
ENCODING 10876
SWIDTH 362 0
DWIDTH 16 0
BBX 16 16 0 -2
BITMAP
0180
7186
6184
7FFC
0180
0380
0660
0E30
199F
6087
BFFC
1800
1800
1800
1FF8
0FF8
ENDCHAR
STARTCHAR 2a7d
ENCODING 10877
SWIDTH 362 0
DWIDTH 16 0
BBX 16 16 0 -2
BITMAP
0006
7FFE
198C
1198
2310
1118
188C
0884
01FC
3D80
0180
018C
3FFC
0180
0182
FFFF
ENDCHAR
STARTCHAR 2a7e
ENCODING 10878
SWIDTH 362 0
DWIDTH 16 0
BBX 16 16 0 -2
BITMAP
0018
0078
01C4
7D8C
0DF0
19B0
319C
630F
BFFC
000C
0008
3FF8
2000
2006
3FFC
1FFC
ENDCHAR
STARTCHAR 2b21
ENCODING 11041
SWIDTH 362 0
DWIDTH 16 0
BBX 16 16 0 -2
BITMAP
0300
0183
FFFF
0018
1FF8
1018
1018
1FF8
0180
218C
3FFC
218C
218C
21BC
2198
0100
ENDCHAR
STARTCHAR 2b22
ENCODING 11042
SWIDTH 362 0
DWIDTH 16 0
BBX 16 16 0 -2
BITMAP
0004
7FFE
0830
0C30
0642
7FFF
C182
8180
1FF8
1198
1198
1198
1198
11B8
0180
0100
ENDCHAR
STARTCHAR 2b23
ENCODING 11043
SWIDTH 362 0
DWIDTH 16 0
BBX 16 16 0 -2
BITMAP
0180
03C0
0670
1FFF
6006
1FF8
0070
03C0
00C0
01C0
218C
318C
218C
21BC
2198
0100
ENDCHAR
STARTCHAR 2b24
ENCODING 11044
SWIDTH 362 0
DWIDTH 16 0
BBX 16 16 0 -2
BITMAP
0180
0100
0306
0340
6664
343C
1C18
180F
7FF7
C180
0180
7FFE
0180
0180
0180
0100
ENDCHAR
STARTCHAR 2b25
ENCODING 11045
SWIDTH 362 0
DWIDTH 16 0
BBX 16 16 0 -2
BITMAP
1830
3030
2C6C
3C28
1830
3226
7FFE
6142
0018
0C18
0430
0260
01C0
03E0
0C3F
F00E
ENDCHAR
STARTCHAR 2b26
ENCODING 11046
SWIDTH 362 0
DWIDTH 16 0
BBX 16 16 0 -2
BITMAP
0180
4083
7FFF
6080
64DC
6698
6498
7FFF
6498
6498
6498
44F8
4498
C402
8FFF
8000
ENDCHAR
STARTCHAR 2b27
ENCODING 11047
SWIDTH 362 0
DWIDTH 16 0
BBX 16 16 0 -2
BITMAP
0180
4083
7FFF
6000
6FFE
6C06
6C06
6DF6
6D96
6D96
6D96
4DF6
4D06
CC06
8C1E
8C0C
ENDCHAR
STARTCHAR 2b28
ENCODING 11048
SWIDTH 362 0
DWIDTH 16 0
BBX 16 16 0 -2
BITMAP
0180
4083
7FFF
603C
63FC
6080
6040
6FFE
600E
6018
6060
41C0
4600
DF00
89FF
807C
ENDCHAR
STARTCHAR 2b29
ENCODING 11049
SWIDTH 362 0
DWIDTH 16 0
BBX 16 16 0 -2
BITMAP
0180
4083
7FFF
6018
64F8
6780
6400
6404
67FE
6410
6410
4410
4410
C410
8C36
8000
ENDCHAR
STARTCHAR 2b2a
ENCODING 11050
SWIDTH 362 0
DWIDTH 16 0
BBX 16 16 0 -2
BITMAP
0180
4083
7FFF
60D8
7FD8
7B18
7B18
7B58
7FD8
7918
7918
5998
5999
DEF9
9CFF
886F
ENDCHAR
STARTCHAR 2b2b
ENCODING 11051
SWIDTH 362 0
DWIDTH 16 0
BBX 16 16 0 -2
BITMAP
0180
4083
7FFF
603C
6FFC
6C98
6C98
6C98
6C98
6C98
6C98
4988
592C
D33E
B7DF
A613
ENDCHAR
STARTCHAR 2b2c
ENCODING 11052
SWIDTH 362 0
DWIDTH 16 0
BBX 16 16 0 -2
BITMAP
0000
11FE
7830
1830
3030
31B0
79BE
6DB0
09B0
59B0
59B0
31B2
33FE
3800
6FFF
C3FC
ENDCHAR
STARTCHAR 2b2d
ENCODING 11053
SWIDTH 362 0
DWIDTH 16 0
BBX 16 16 0 -2
BITMAP
0020
0060
F070
30D8
318F
6336
7CE0
5998
1830
98CE
511C
7070
3380
7800
4FFF
87FE
ENDCHAR
STARTCHAR 2b2e
ENCODING 11054
SWIDTH 362 0
DWIDTH 16 0
BBX 16 16 0 -2
BITMAP
0002
03FF
F302
337A
335A
635A
7B5A
5B5A
1B42
9B7A
537A
7302
3302
7800
4FFF
87FE
ENDCHAR
STARTCHAR 2b2f
ENCODING 11055
SWIDTH 362 0
DWIDTH 16 0
BBX 16 16 0 -2
BITMAP
1C00
1810
1FF8
1010
3FF8
3FD8
0018
00F0
0020
0C18
0812
FE7F
0810
1810
1010
2010
ENDCHAR
STARTCHAR 2b30
ENCODING 11056
SWIDTH 362 0
DWIDTH 16 0
BBX 16 16 0 -2
BITMAP
0010
1FF8
00E0
318C
1998
0DF0
718E
6706
0300
0C30
0C32
FFFF
0C30
0C30
1830
3030
ENDCHAR
STARTCHAR 2b31
ENCODING 11057
SWIDTH 362 0
DWIDTH 16 0
BBX 16 16 0 -2
BITMAP
0180
0102
7FFF
4342
3666
1C38
181C
300F
E002
0C30
0C36
7FFE
0C30
0830
1030
6030
ENDCHAR
STARTCHAR 2b32
ENCODING 11058
SWIDTH 362 0
DWIDTH 16 0
BBX 16 16 0 -2
BITMAP
0018
FF96
0313
0311
5B12
5BFF
5B10
5B10
5B10
7B18
5B18
0318
030D
030D
1F07
0603
ENDCHAR
STARTCHAR 2b33
ENCODING 11059
SWIDTH 362 0
DWIDTH 16 0
BBX 16 16 0 -2
BITMAP
0886
FCFE
0886
0886
4886
4886
C0FE
CC80
FC82
0CFF
0C83
0C83
0C83
0C83
F8FF
3082
ENDCHAR
STARTCHAR 2b34
ENCODING 11060
SWIDTH 362 0
DWIDTH 16 0
BBX 16 16 0 -2
BITMAP
1800
FBFF
1B20
1B34
5B3E
5B64
C34C
DBCC
FB08
1B1C
1B34
1B26
1B43
1B81
F303
2300
ENDCHAR
STARTCHAR 2b35
ENCODING 11061
SWIDTH 362 0
DWIDTH 16 0
BBX 16 16 0 -2
BITMAP
1840
F860
18C8
18C4
5986
5BFB
C1B3
D830
F830
1BFF
1820
1868
186C
18C6
F183
2701
ENDCHAR
STARTCHAR 2b36
ENCODING 11062
SWIDTH 362 0
DWIDTH 16 0
BBX 16 16 0 -2
BITMAP
0660
7FFE
0666
7FFC
6E63
4C63
1863
3046
FFFC
2008
3FF8
7FFC
0004
000C
007C
0018
ENDCHAR
STARTCHAR 2b37
ENCODING 11063
SWIDTH 362 0
DWIDTH 16 0
BBX 16 16 0 -2
BITMAP
0802
1DFF
7002
3002
3082
3182
3D80
3103
33FF
305B
30DB
34D3
39B3
3363
04DE
018C
ENDCHAR
STARTCHAR 2b38
ENCODING 11064
SWIDTH 362 0
DWIDTH 16 0
BBX 16 16 0 -2
BITMAP
0018
1FF8
0018
1FF8
001A
FFFF
0008
1FFC
1010
1818
7F7F
1313
3333
3323
6F5F
C786
ENDCHAR
STARTCHAR 2b39
ENCODING 11065
SWIDTH 362 0
DWIDTH 16 0
BBX 16 16 0 -2
BITMAP
0018
0018
001B
0018
0018
1018
1800
3660
CC40
1FFE
E846
0846
0846
085E
0844
0040
ENDCHAR
STARTCHAR 2b3a
ENCODING 11066
SWIDTH 362 0
DWIDTH 16 0
BBX 16 16 0 -2
BITMAP
1006
1806
0D8C
0C18
0860
7F82
4986
498C
4998
49B0
49C3
4986
4F8C
4B18
0830
0860
ENDCHAR
STARTCHAR 2b3b
ENCODING 11067
SWIDTH 362 0
DWIDTH 16 0
BBX 16 16 0 -2
BITMAP
00C0
0082
3FFE
0378
0C0E
3002
3FFF
2018
2070
2380
2C3C
21E0
2F0E
603C
43E0
BE00
ENDCHAR
STARTCHAR 2b3c
ENCODING 11068
SWIDTH 362 0
DWIDTH 16 0
BBX 16 16 0 -2
BITMAP
1830
1830
3030
2033
4C3F
0830
1830
3032
31FF
7103
9102
1102
1102
1102
11FE
1102
ENDCHAR
STARTCHAR 2b3d
ENCODING 11069
SWIDTH 362 0
DWIDTH 16 0
BBX 16 16 0 -2
BITMAP
19C0
1980
3182
21FF
4F60
0A60
1862
307E
3060
7060
9062
107E
1060
1060
1060
1060
ENDCHAR
STARTCHAR 2b3e
ENCODING 11070
SWIDTH 362 0
DWIDTH 16 0
BBX 16 16 0 -2
BITMAP
18C0
18C0
30C3
2183
4D03
0A93
18FB
309B
309B
70FB
9093
1003
1003
1006
103E
100C
ENDCHAR
STARTCHAR 2b3f
ENCODING 11071
SWIDTH 362 0
DWIDTH 16 0
BBX 16 16 0 -2
BITMAP
18C0
18C0
30FE
21C6
4D4C
0A28
1830
3038
304E
71E7
9238
1018
1000
1070
1018
1008
ENDCHAR
STARTCHAR 2b40
ENCODING 11072
SWIDTH 362 0
DWIDTH 16 0
BBX 16 16 0 -2
BITMAP
0100
0180
2186
6186
C3C4
03C0
06C2
0CC2
30FE
4000
0980
4CC4
4802
CC1B
8FF1
07F0
ENDCHAR
STARTCHAR 2b41
ENCODING 11073
SWIDTH 362 0
DWIDTH 16 0
BBX 16 16 0 -2
BITMAP
1000
19C3
0D8E
358A
31CA
21AA
25AA
25BA
A792
A3BA
A3AA
A1EE
25C6
3D82
3DFE
0002
ENDCHAR
STARTCHAR 2b42
ENCODING 11074
SWIDTH 362 0
DWIDTH 16 0
BBX 16 16 0 -2
BITMAP
0180
018C
7FFC
018F
FFFF
018C
7FFC
0180
0180
0000
0980
4CC4
4802
CC1B
8FF1
07F0
ENDCHAR
STARTCHAR 2b43
ENCODING 11075
SWIDTH 362 0
DWIDTH 16 0
BBX 16 16 0 -2
BITMAP
0200
0100
0186
0000
0630
0C18
180E
3006
6000
0180
0CC0
4C46
4803
CC1B
8FF1
07F0
ENDCHAR
STARTCHAR 2b44
ENCODING 11076
SWIDTH 362 0
DWIDTH 16 0
BBX 16 16 0 -2
BITMAP
1C00
1818
1FF8
1008
3FFC
0048
3FE8
0018
00F0
0020
0980
4CC4
4802
CC1B
8FF1
07F0
ENDCHAR
STARTCHAR 2b45
ENCODING 11077
SWIDTH 362 0
DWIDTH 16 0
BBX 16 16 0 -2
BITMAP
0008
3FFC
3040
3FFE
00C0
01C0
0640
18C0
63C0
0080
0980
4CC4
4802
CC1B
8FF1
07F0
ENDCHAR
STARTCHAR 2b46
ENCODING 11078
SWIDTH 362 0
DWIDTH 16 0
BBX 16 16 0 -2
BITMAP
0180
318C
318C
218C
318C
2188
0180
7FFE
0000
0180
0CC0
4C46
4803
CC1B
8FF1
07F0
ENDCHAR
STARTCHAR 2b47
ENCODING 11079
SWIDTH 362 0
DWIDTH 16 0
BBX 16 16 0 -2
BITMAP
300C
300C
3008
3050
7830
FFFF
F033
B076
30F4
30F0
31B0
31B0
3330
3630
31F0
3060
ENDCHAR
STARTCHAR 2b48
ENCODING 11080
SWIDTH 362 0
DWIDTH 16 0
BBX 16 16 0 -2
BITMAP
3030
3030
31FE
3026
7826
FC26
F3FF
B020
3036
318E
308C
3058
3030
3078
318F
3703
ENDCHAR
STARTCHAR 2b49
ENCODING 11081
SWIDTH 362 0
DWIDTH 16 0
BBX 16 16 0 -2
BITMAP
3202
33FF
3203
3203
7B03
FF03
F200
B2FE
3246
3244
326C
3638
3638
343C
3CC7
3B03
ENDCHAR
STARTCHAR 2b4a
ENCODING 11082
SWIDTH 362 0
DWIDTH 16 0
BBX 16 16 0 -2
BITMAP
3202
33FF
3203
3203
7B03
FF03
F230
B230
3230
3230
3230
3638
3668
34CC
3D87
3B03
ENDCHAR
STARTCHAR 2b4b
ENCODING 11083
SWIDTH 362 0
DWIDTH 16 0
BBX 16 16 0 -2
BITMAP
3060
3040
3040
33FF
78C0
FCD8
F098
B098
31FF
3198
3118
3318
3218
3618
301B
3000
ENDCHAR
STARTCHAR 2b4c
ENCODING 11084
SWIDTH 362 0
DWIDTH 16 0
BBX 16 16 0 -2
BITMAP
30C8
30C4
3086
3083
7BFF
FC84
F0C6
B0E6
31A4
31AC
319C
3118
3318
332C
3247
3183
ENDCHAR
STARTCHAR 2b4d
ENCODING 11085
SWIDTH 362 0
DWIDTH 16 0
BBX 16 16 0 -2
BITMAP
3202
33FF
3303
3333
7B33
FF33
F333
B333
332B
336F
3347
3387
3303
3303
33FF
3302
ENDCHAR
STARTCHAR 2b4e
ENCODING 11086
SWIDTH 362 0
DWIDTH 16 0
BBX 16 16 0 -2
BITMAP
3030
31B3
3132
3132
7B32
FD32
F030
B078
3078
30FC
30B6
31B7
3333
3230
3030
3030
ENDCHAR
STARTCHAR 2b4f
ENCODING 11087
SWIDTH 362 0
DWIDTH 16 0
BBX 16 16 0 -2
BITMAP
0180
03C0
0660
0C30
1838
3FEF
6007
DCCC
18FC
1CCC
3ACC
7BCC
58CC
18D8
18C0
18C0
ENDCHAR
STARTCHAR 2b50
ENCODING 11088
SWIDTH 362 0
DWIDTH 16 0
BBX 16 16 0 -2
BITMAP
0180
03C0
0660
0C30
1838
3FEF
6007
DCFC
18C4
1CC4
3ACC
7BFC
58C9
18C3
18FF
187E
ENDCHAR
STARTCHAR 2b51
ENCODING 11089
SWIDTH 362 0
DWIDTH 16 0
BBX 16 16 0 -2
BITMAP
0C30
0C38
0DAC
0C26
0C20
FFFF
0820
0C24
0926
FFBC
083C
1819
1839
306D
60C7
0703
ENDCHAR
STARTCHAR 2b52
ENCODING 11090
SWIDTH 362 0
DWIDTH 16 0
BBX 16 16 0 -2
BITMAP
0C30
0C38
0DAC
0C26
0C20
FFFF
3020
3324
3FA6
313C
313C
2119
6339
476D
C2C7
0703
ENDCHAR
STARTCHAR 2b53
ENCODING 11091
SWIDTH 362 0
DWIDTH 16 0
BBX 16 16 0 -2
BITMAP
0030
0036
0022
7FFF
6020
6F20
6620
6626
67B6
663C
661C
6619
4639
446D
C187
8703
ENDCHAR
STARTCHAR 2b54
ENCODING 11092
SWIDTH 362 0
DWIDTH 16 0
BBX 16 16 0 -2
BITMAP
0202
FFFF
3232
3232
6666
CECE
8104
0330
031A
FFFF
0308
0198
00E0
01E1
0E3F
F00F
ENDCHAR
STARTCHAR 2b55
ENCODING 11093
SWIDTH 362 0
DWIDTH 16 0
BBX 16 16 0 -2
BITMAP
0030
0036
0022
FFFF
0020
6020
63A7
7DA6
B5A6
BDBC
6DBC
5998
B3B9
676D
02C7
0703
ENDCHAR
STARTCHAR 2b56
ENCODING 11094
SWIDTH 362 0
DWIDTH 16 0
BBX 16 16 0 -2
BITMAP
0030
0036
0022
FFFF
0020
6F20
7A27
6A26
6A26
6B3C
693C
6918
6939
C9ED
88C7
0703
ENDCHAR
STARTCHAR 2b57
ENCODING 11095
SWIDTH 362 0
DWIDTH 16 0
BBX 16 16 0 -2
BITMAP
0180
0DA0
1998
718C
0184
FFFF
0003
0336
021A
FFFF
0308
0198
00E1
03E1
0E1F
700F
ENDCHAR
STARTCHAR 2b58
ENCODING 11096
SWIDTH 362 0
DWIDTH 16 0
BBX 16 16 0 -2
BITMAP
2234
6633
6633
6630
67FF
6630
6632
6633
6612
7716
771C
5D98
4C9D
C8BD
9867
11C3
ENDCHAR
STARTCHAR 2b59
ENCODING 11097
SWIDTH 362 0
DWIDTH 16 0
BBX 16 16 0 -2
BITMAP
0420
7E33
63FF
6640
7E40
6646
667E
6646
7EC6
60C6
60C6
4086
C186
C306
867C
0C18
ENDCHAR
STARTCHAR 2b5a
ENCODING 11098
SWIDTH 362 0
DWIDTH 16 0
BBX 16 16 0 -2
BITMAP
007C
7FC0
6004
7FFE
6006
6006
7FFE
6004
6FFE
6C46
6C46
6FFC
4C01
4C03
8FFF
87FE
ENDCHAR
STARTCHAR 2b5b
ENCODING 11099
SWIDTH 362 0
DWIDTH 16 0
BBX 16 16 0 -2
BITMAP
1800
1FF8
3000
3FFC
200C
7FEC
007C
0018
0078
1F80
0186
0180
0182
0180
0380
0300
ENDCHAR
STARTCHAR 2b5c
ENCODING 11100
SWIDTH 362 0
DWIDTH 16 0
BBX 16 16 0 -2
BITMAP
0C60
7C30
1000
11FF
1486
7E84
104C
104C
3648
3038
1030
1030
1068
10CC
7187
2703
ENDCHAR
STARTCHAR 2b5d
ENCODING 11101
SWIDTH 362 0
DWIDTH 16 0
BBX 16 16 0 -2
BITMAP
0038
07F8
3980
0180
018C
0180
0180
0180
FFFF
198C
118C
318C
398E
6D9B
45B3
8120
ENDCHAR
STARTCHAR 2b5e
ENCODING 11102
SWIDTH 362 0
DWIDTH 16 0
BBX 16 16 0 -2
BITMAP
3040
3060
3022
33FF
F88C
308C
308C
388F
77FF
F08C
308C
318C
318C
330C
F60C
6C0C
ENDCHAR
STARTCHAR 2b5f
ENCODING 11103
SWIDTH 362 0
DWIDTH 16 0
BBX 16 16 0 -2
BITMAP
3002
33FF
3032
3030
F830
31B0
3130
393F
7130
F130
3130
3330
3330
32B0
F67F
6C3F
ENDCHAR
STARTCHAR 2b60
ENCODING 11104
SWIDTH 362 0
DWIDTH 16 0
BBX 16 16 0 -2
BITMAP
30C0
30CC
30C6
30C3
FBFF
3080
3086
38FE
71C6
F1E4
312C
3338
3238
346C
F0C7
6303
ENDCHAR
STARTCHAR 2b61
ENCODING 11105
SWIDTH 362 0
DWIDTH 16 0
BBX 16 16 0 -2
BITMAP
3104
31FE
3186
3186
F9FE
3000
33FF
3880
7186
F1FE
3006
3006
3006
3006
F0FC
6018
ENDCHAR
STARTCHAR 2b62
ENCODING 11106
SWIDTH 362 0
DWIDTH 16 0
BBX 16 16 0 -2
BITMAP
3030
31B3
3133
3132
FBFE
3030
30B0
3BF8
70F8
F0BC
31B4
3136
3333
3633
FC30
6030
ENDCHAR
STARTCHAR 2b63
ENCODING 11107
SWIDTH 362 0
DWIDTH 16 0
BBX 16 16 0 -2
BITMAP
31C0
3180
3186
3103
FB02
33F2
3012
3812
7132
F132
311E
310C
3101
3101
F1FF
60FF
ENDCHAR
STARTCHAR 2b64
ENCODING 11108
SWIDTH 362 0
DWIDTH 16 0
BBX 16 16 0 -2
BITMAP
300E
307C
33F0
3036
F833
3030
3033
3830
7030
F030
3038
3068
30CC
3086
F107
6603
ENDCHAR
STARTCHAR 2b65
ENCODING 11109
SWIDTH 362 0
DWIDTH 16 0
BBX 16 16 0 -2
BITMAP
0E06
7E7F
1818
1818
1818
7E7F
1818
1818
1A1B
1818
1818
1818
1818
1818
F878
3030
ENDCHAR
STARTCHAR 2b66
ENCODING 11110
SWIDTH 362 0
DWIDTH 16 0
BBX 16 16 0 -2
BITMAP
0218
7F10
4010
7F1F
4110
4110
4136
7F47
4046
4024
402C
4018
C018
C02C
8047
8183
ENDCHAR
STARTCHAR 2b67
ENCODING 11111
SWIDTH 362 0
DWIDTH 16 0
BBX 16 16 0 -2
BITMAP
0670
FE60
6660
3C63
187F
3C66
66A6
C2A4
0634
FE1C
6618
3C18
181C
3C26
6647
C383
ENDCHAR
STARTCHAR 2b68
ENCODING 11112
SWIDTH 362 0
DWIDTH 16 0
BBX 16 16 0 -2
BITMAP
1818
1810
1810
7E1F
1810
1810
1A36
1847
1846
1824
342C
3618
2318
632C
C047
0183
ENDCHAR
STARTCHAR 2b69
ENCODING 11113
SWIDTH 362 0
DWIDTH 16 0
BBX 16 16 0 -2
BITMAP
1C30
1830
1820
FF63
187F
1866
7BE6
7BA4
7A34
7A1C
7A18
5A18
DB1C
9BA6
1847
1983
ENDCHAR
STARTCHAR 2b6a
ENCODING 11114
SWIDTH 362 0
DWIDTH 16 0
BBX 16 16 0 -2
BITMAP
0018
FF10
1810
101F
3210
6610
C436
EC47
1846
1024
302C
6418
4618
FF2C
E347
0183
ENDCHAR
STARTCHAR 2b6b
ENCODING 11115
SWIDTH 362 0
DWIDTH 16 0
BBX 16 16 0 -2
BITMAP
0218
C610
3410
1C1F
1C10
3610
6336
C047
0646
C624
3C2C
1C18
1C18
362C
6347
C183
ENDCHAR
STARTCHAR 2b6c
ENCODING 11116
SWIDTH 362 0
DWIDTH 16 0
BBX 16 16 0 -2
BITMAP
3330
3330
3320
2263
667F
6666
EEE6
EEA4
6634
661C
6618
6618
661C
6626
6647
6783
ENDCHAR
STARTCHAR 2b6d
ENCODING 11117
SWIDTH 362 0
DWIDTH 16 0
BBX 16 16 0 -2
BITMAP
0100
7FFF
0830
0660
03C0
03E0
0C3F
7027
8FF0
0060
0180
1188
3184
2186
4782
0300
ENDCHAR
STARTCHAR 2b6e
ENCODING 11118
SWIDTH 362 0
DWIDTH 16 0
BBX 16 16 0 -2
BITMAP
020E
7F78
0060
0060
0060
FF7F
6666
6666
6666
6666
6666
6646
66C6
46C6
C686
8704
ENDCHAR
STARTCHAR 2b6f
ENCODING 11119
SWIDTH 362 0
DWIDTH 16 0
BBX 16 16 0 -2
BITMAP
660E
4670
4640
4640
4640
447F
4046
4446
7E46
4646
4646
46C6
C6C6
C6C6
8686
8704
ENDCHAR
STARTCHAR 2b70
ENCODING 11120
SWIDTH 362 0
DWIDTH 16 0
BBX 16 16 0 -2
BITMAP
000C
0000
0002
FFFF
3000
3FFE
6206
C336
BFF6
0866
0FE6
1866
1066
21E6
407C
0008
ENDCHAR
STARTCHAR 2b71
ENCODING 11121
SWIDTH 362 0
DWIDTH 16 0
BBX 16 16 0 -2
BITMAP
0006
7FFE
0000
4037
5FFE
5816
5816
5816
5FF6
5816
5816
5816
5FF6
4000
0002
0000
ENDCHAR
STARTCHAR 2b72
ENCODING 11122
SWIDTH 362 0
DWIDTH 16 0
BBX 16 16 0 -2
BITMAP
0018
0FF8
0818
6FF8
6818
6FF8
6800
7FFC
010C
0108
030F
0700
0418
080C
3006
E003
ENDCHAR
STARTCHAR 2b73
ENCODING 11123
SWIDTH 362 0
DWIDTH 16 0
BBX 16 16 0 -2
BITMAP
60C0
60C0
66C6
60C0
60C1
62C3
7CFF
6000
0008
3FFC
3008
3008
3FF8
3008
3008
3008
ENDCHAR
STARTCHAR 2b74
ENCODING 11124
SWIDTH 362 0
DWIDTH 16 0
BBX 16 16 0 -2
BITMAP
4002
7FFF
6400
66FF
6483
6C82
6C82
7C82
6CC2
6CC2
6C82
4C82
4C82
CC82
8CFE
8C82
ENDCHAR
STARTCHAR 2b75
ENCODING 11125
SWIDTH 362 0
DWIDTH 16 0
BBX 16 16 0 -2
BITMAP
4002
7FFF
6400
667F
6663
6662
6662
667E
6662
6662
6D62
4D62
4880
D860
B03F
E01E
ENDCHAR
STARTCHAR 2b76
ENCODING 11126
SWIDTH 362 0
DWIDTH 16 0
BBX 16 16 0 -2
BITMAP
0006
01FE
FC46
CC46
CC46
CC46
CC46
FFFF
CCC6
CCC6
CCC6
CCC6
FCC6
80C6
00C7
0000
ENDCHAR
STARTCHAR 2b77
ENCODING 11127
SWIDTH 362 0
DWIDTH 16 0
BBX 16 16 0 -2
BITMAP
1018
1FF8
1018
1018
1FF8
1018
1018
1018
0004
7FFE
6004
6004
7FFC
6004
600F
0000
ENDCHAR
STARTCHAR 2b78
ENCODING 11128
SWIDTH 362 0
DWIDTH 16 0
BBX 16 16 0 -2
BITMAP
0002
09FF
FD82
CD82
C982
C9FF
C982
F982
C982
C982
C9FF
C982
F982
8182
0182
0106
ENDCHAR
STARTCHAR 2b79
ENCODING 11129
SWIDTH 362 0
DWIDTH 16 0
BBX 16 16 0 -2
BITMAP
01C0
0983
FDFF
CD00
CB06
C800
C800
F9FE
C806
C806
C806
C806
F806
8007
0003
0001
ENDCHAR
STARTCHAR 2b7a
ENCODING 11130
SWIDTH 362 0
DWIDTH 16 0
BBX 16 16 0 -2
BITMAP
0060
0860
FDFC
CC64
C844
C8C5
C987
FB07
CE30
C830
C833
C830
F830
8030
0030
0030
ENDCHAR
STARTCHAR 2b7b
ENCODING 11131
SWIDTH 362 0
DWIDTH 16 0
BBX 16 16 0 -2
BITMAP
0180
1990
318C
2186
4182
8180
0102
FFFF
0000
3FFC
200C
200C
3FFC
200C
3FFC
2008
ENDCHAR
STARTCHAR 2b7c
ENCODING 11132
SWIDTH 362 0
DWIDTH 16 0
BBX 16 16 0 -2
BITMAP
007E
07E0
0060
0FFE
0C60
0C60
0C62
0C60
7C60
6660
6660
6660
6660
7C60
41E0
00C0
ENDCHAR
STARTCHAR 2b7d
ENCODING 11133
SWIDTH 362 0
DWIDTH 16 0
BBX 16 16 0 -2
BITMAP
0800
1818
3FF8
201B
301E
2038
00F8
0198
0E18
7018
BF18
3118
3F18
3118
3F78
0030
ENDCHAR
STARTCHAR 2b7e
ENCODING 11134
SWIDTH 362 0
DWIDTH 16 0
BBX 16 16 0 -2
BITMAP
0600
3FFC
200C
200C
3FFC
200C
3FFC
00C0
60C0
41C0
4160
4218
440C
5804
C003
4000
ENDCHAR
STARTCHAR 2c21
ENCODING 11297
SWIDTH 362 0
DWIDTH 16 0
BBX 16 16 0 -2
BITMAP
2008
3FFC
200C
3FFC
200C
3FFC
2180
3FFC
018C
FFFF
018C
3FFC
018C
0180
0180
0100
ENDCHAR
STARTCHAR 2c22
ENCODING 11298
SWIDTH 362 0
DWIDTH 16 0
BBX 16 16 0 -2
BITMAP
1C42
187F
1862
1862
7962
7B7E
7C62
7862
7C62
5E7E
5B42
DB42
98C2
9882
791E
3206
ENDCHAR
STARTCHAR 2c23
ENCODING 11299
SWIDTH 362 0
DWIDTH 16 0
BBX 16 16 0 -2
BITMAP
0840
7C20
4B33
4B33
4B33
7B3B
4B6B
4B4F
4BCF
7B87
4B03
4B03
CB03
CB03
BB1F
9B06
ENDCHAR
STARTCHAR 2c24
ENCODING 11300
SWIDTH 362 0
DWIDTH 16 0
BBX 16 16 0 -2
BITMAP
0180
0182
7FFE
018C
3FFC
018C
FFFF
018C
3FFC
0180
FFFF
0380
07F0
1D9F
6186
0100
ENDCHAR
STARTCHAR 2c25
ENCODING 11301
SWIDTH 362 0
DWIDTH 16 0
BBX 16 16 0 -2
BITMAP
0180
0180
7FFE
0180
0182
FFFF
C102
0180
0182
FFFF
0180
0990
198C
2186
C182
0100
ENDCHAR
STARTCHAR 2c26
ENCODING 11302
SWIDTH 362 0
DWIDTH 16 0
BBX 16 16 0 -2
BITMAP
3002
31FF
3302
FE00
30CC
30CC
78CC
7CCC
70CC
F0CC
B0CC
B0CC
308C
318D
330F
3607
ENDCHAR
STARTCHAR 2c27
ENCODING 11303
SWIDTH 362 0
DWIDTH 16 0
BBX 16 16 0 -2
BITMAP
3002
33FF
3030
FC30
31B2
31BF
79B2
7DB2
71B2
F1FE
B002
B002
3002
3006
307C
3018
ENDCHAR
STARTCHAR 2c28
ENCODING 11304
SWIDTH 362 0
DWIDTH 16 0
BBX 16 16 0 -2
BITMAP
3002
31FF
3198
FD18
3118
33FF
7818
7C18
7198
F078
B038
B01F
301F
3018
3018
3010
ENDCHAR
STARTCHAR 2c29
ENCODING 11305
SWIDTH 362 0
DWIDTH 16 0
BBX 16 16 0 -2
BITMAP
1800
11FF
1018
FC30
1060
30C2
3986
3DCC
7478
7038
D030
9064
10C2
119F
13E1
1101
ENDCHAR
STARTCHAR 2c2a
ENCODING 11306
SWIDTH 362 0
DWIDTH 16 0
BBX 16 16 0 -2
BITMAP
1830
1030
1020
FC3F
1020
3020
3836
3D86
7486
708C
D04C
9078
1030
107C
118F
1703
ENDCHAR
STARTCHAR 2c2b
ENCODING 11307
SWIDTH 362 0
DWIDTH 16 0
BBX 16 16 0 -2
BITMAP
3180
31FF
21A3
F923
2322
6322
7316
7F16
E91C
A10C
A10C
211C
2134
2126
2143
2183
ENDCHAR
STARTCHAR 2c2c
ENCODING 11308
SWIDTH 362 0
DWIDTH 16 0
BBX 16 16 0 -2
BITMAP
300F
31F8
311C
FD18
3118
311B
797F
7D18
7118
F118
B318
B318
3318
3218
3418
3818
ENDCHAR
STARTCHAR 2c2d
ENCODING 11309
SWIDTH 362 0
DWIDTH 16 0
BBX 16 16 0 -2
BITMAP
0010
7FF8
0818
093F
1B83
3662
6C22
C10E
0184
0183
FFFF
0980
199C
3186
E183
0100
ENDCHAR
STARTCHAR 2c2e
ENCODING 11310
SWIDTH 362 0
DWIDTH 16 0
BBX 16 16 0 -2
BITMAP
00C0
18C0
18C0
58C3
58FF
5DB2
5930
5830
5830
5878
5868
584C
DCC4
E186
0303
0603
ENDCHAR
STARTCHAR 2c2f
ENCODING 11311
SWIDTH 362 0
DWIDTH 16 0
BBX 16 16 0 -2
BITMAP
1860
1860
1860
7F7F
DBD3
9A96
1910
1810
1C38
3C38
3C28
2C6C
2F64
4EC6
C583
8303
ENDCHAR
STARTCHAR 2c30
ENCODING 11312
SWIDTH 362 0
DWIDTH 16 0
BBX 16 16 0 -2
BITMAP
0670
FF60
D860
D87F
D85B
FF5E
D898
D818
C818
C818
CC3C
CC34
C726
F746
E3C3
4183
ENDCHAR
STARTCHAR 2c31
ENCODING 11313
SWIDTH 362 0
DWIDTH 16 0
BBX 16 16 0 -2
BITMAP
0208
7F0C
4208
4268
4268
426F
7E68
5068
4868
4C68
466F
4700
C380
C1F0
807F
800F
ENDCHAR
STARTCHAR 2c32
ENCODING 11314
SWIDTH 362 0
DWIDTH 16 0
BBX 16 16 0 -2
BITMAP
0002
FFFF
0004
7FFE
6004
6004
600C
618C
01C0
0180
198C
1180
1180
1180
3183
0000
ENDCHAR
STARTCHAR 2c33
ENCODING 11315
SWIDTH 362 0
DWIDTH 16 0
BBX 16 16 0 -2
BITMAP
0000
018C
0188
0188
3F98
0188
0180
0080
0080
0180
1180
19FC
1180
1180
3183
0000
ENDCHAR
STARTCHAR 2c34
ENCODING 11316
SWIDTH 362 0
DWIDTH 16 0
BBX 16 16 0 -2
BITMAP
01C0
1980
11FC
1180
1180
FFFF
0000
7FFE
0810
0810
0C33
0C30
1810
1010
3010
C010
ENDCHAR
STARTCHAR 2c35
ENCODING 11317
SWIDTH 362 0
DWIDTH 16 0
BBX 16 16 0 -2
BITMAP
0000
1DFF
1993
1992
5992
5F92
5992
59FE
5982
5980
5980
5980
DF81
E183
00FF
0000
ENDCHAR
STARTCHAR 2c36
ENCODING 11318
SWIDTH 362 0
DWIDTH 16 0
BBX 16 16 0 -2
BITMAP
01C0
1980
11FC
1180
1182
FFFF
3008
300C
3708
30C8
3148
3188
3188
3188
31F8
3018
ENDCHAR
STARTCHAR 2c37
ENCODING 11319
SWIDTH 362 0
DWIDTH 16 0
BBX 16 16 0 -2
BITMAP
01C0
0180
198C
1180
1180
1180
FFFF
0000
01C0
0180
198C
1180
1180
1180
3183
0000
ENDCHAR
STARTCHAR 2c38
ENCODING 11320
SWIDTH 362 0
DWIDTH 16 0
BBX 16 16 0 -2
BITMAP
01C0
1980
118C
1180
1180
FFFE
0006
0186
0106
3106
31F6
3106
3106
3107
FFFB
0001
ENDCHAR
STARTCHAR 2c39
ENCODING 11321
SWIDTH 362 0
DWIDTH 16 0
BBX 16 16 0 -2
BITMAP
01C0
1980
118C
1180
1180
1183
FFFF
0180
0180
0198
0198
0198
0198
0198
019B
0000
ENDCHAR
STARTCHAR 2c3a
ENCODING 11322
SWIDTH 362 0
DWIDTH 16 0
BBX 16 16 0 -2
BITMAP
01C0
1980
118C
1180
1180
1183
FFFF
1818
1810
1810
1830
1838
362C
2266
42C7
8183
ENDCHAR
STARTCHAR 2c3b
ENCODING 11323
SWIDTH 362 0
DWIDTH 16 0
BBX 16 16 0 -2
BITMAP
01C0
0180
1984
11FC
1180
1180
3183
0300
0684
0C8C
1C70
3C60
6C38
CC9E
0F07
0403
ENDCHAR
STARTCHAR 2c3c
ENCODING 11324
SWIDTH 362 0
DWIDTH 16 0
BBX 16 16 0 -2
BITMAP
01C0
1980
11FC
1180
1182
FFFF
0018
3FFC
2000
2002
3FFE
2010
2010
6010
4010
8010
ENDCHAR
STARTCHAR 2c3d
ENCODING 11325
SWIDTH 362 0
DWIDTH 16 0
BBX 16 16 0 -2
BITMAP
0002
FDFF
2088
2088
7C88
6C88
4C88
CC88
B9FF
1808
1808
3008
3008
6008
4008
8008
ENDCHAR
STARTCHAR 2c3e
ENCODING 11326
SWIDTH 362 0
DWIDTH 16 0
BBX 16 16 0 -2
BITMAP
0042
FFFF
60C2
6084
7984
5984
D984
D984
B984
3184
3184
3184
2184
4184
C79C
0108
ENDCHAR
STARTCHAR 2c3f
ENCODING 11327
SWIDTH 362 0
DWIDTH 16 0
BBX 16 16 0 -2
BITMAP
0004
FDFE
2084
208C
7C8C
6C8E
4CFF
CCA2
B8A6
19B6
199C
311C
331C
6336
4663
8D81
ENDCHAR
STARTCHAR 2c40
ENCODING 11328
SWIDTH 362 0
DWIDTH 16 0
BBX 16 16 0 -2
BITMAP
00C0
FCC0
20C3
2083
7D03
6E63
4C63
CC43
B8DB
19FB
198B
3003
3003
6006
403E
800C
ENDCHAR
STARTCHAR 2c41
ENCODING 11329
SWIDTH 362 0
DWIDTH 16 0
BBX 16 16 0 -2
BITMAP
1018
1198
319B
3318
3118
3FFE
01F0
0020
1018
1198
319B
3318
3118
3FFE
00F0
0020
ENDCHAR
STARTCHAR 2c42
ENCODING 11330
SWIDTH 362 0
DWIDTH 16 0
BBX 16 16 0 -2
BITMAP
218C
318C
318C
230C
0C00
3008
1FFC
1188
1088
FFFF
3188
3088
300F
3018
01F0
0060
ENDCHAR
STARTCHAR 2c43
ENCODING 11331
SWIDTH 362 0
DWIDTH 16 0
BBX 16 16 0 -2
BITMAP
0C60
4C42
6F7F
6840
6841
7E7F
F07F
4010
7FF8
0C18
0C36
0C13
0802
1806
307E
C00C
ENDCHAR
STARTCHAR 2c44
ENCODING 11332
SWIDTH 362 0
DWIDTH 16 0
BBX 16 16 0 -2
BITMAP
60C0
40C0
7EFE
40C0
40C1
4EC3
70FF
4000
40C0
60C0
46C6
40C0
40C0
46C1
78FF
607E
ENDCHAR
STARTCHAR 2c45
ENCODING 11333
SWIDTH 362 0
DWIDTH 16 0
BBX 16 16 0 -2
BITMAP
60C0
40C0
7EFE
40C1
42C3
7CFF
607E
0C30
181C
300F
FFFB
0418
0C18
1818
31F0
6020
ENDCHAR
STARTCHAR 2c46
ENCODING 11334
SWIDTH 362 0
DWIDTH 16 0
BBX 16 16 0 -2
BITMAP
000E
FF7C
D610
D610
D612
D6FF
D610
D610
F610
F6FF
E710
C010
C010
C011
FF1F
001F
ENDCHAR
STARTCHAR 2c47
ENCODING 11335
SWIDTH 362 0
DWIDTH 16 0
BBX 16 16 0 -2
BITMAP
0206
7F1F
4278
4218
4218
FF7F
4218
4218
4218
427F
FF18
4218
4218
4219
421F
460F
ENDCHAR
STARTCHAR 2c48
ENCODING 11336
SWIDTH 362 0
DWIDTH 16 0
BBX 16 16 0 -2
BITMAP
0300
FFFF
3000
3000
3000
1FFE
0000
7FFC
600C
7FFC
6180
7FFE
60C0
6461
783F
300F
ENDCHAR
STARTCHAR 2c49
ENCODING 11337
SWIDTH 362 0
DWIDTH 16 0
BBX 16 16 0 -2
BITMAP
3000
3FFE
2000
7FFC
4000
FFFC
800C
0608
4668
3648
3488
0D0C
188C
3045
6067
C023
ENDCHAR
STARTCHAR 2c4a
ENCODING 11338
SWIDTH 362 0
DWIDTH 16 0
BBX 16 16 0 -2
BITMAP
3000
3FFE
2000
7FFC
4000
FFFC
800C
7FE8
0808
1FC8
10C8
3D8C
C70C
0605
1807
E003
ENDCHAR
STARTCHAR 2c4b
ENCODING 11339
SWIDTH 362 0
DWIDTH 16 0
BBX 16 16 0 -2
BITMAP
3000
3FFE
2000
7FFC
4000
FFFC
800C
3FC8
30C8
3FC8
30C8
3FCC
30CC
20C5
67C7
C183
ENDCHAR
STARTCHAR 2c4c
ENCODING 11340
SWIDTH 362 0
DWIDTH 16 0
BBX 16 16 0 -2
BITMAP
1018
1818
1018
3018
38FB
2C7E
447C
847C
185C
10DE
30DE
309B
399B
6D1B
4678
8030
ENDCHAR
STARTCHAR 2c4d
ENCODING 11341
SWIDTH 362 0
DWIDTH 16 0
BBX 16 16 0 -2
BITMAP
0180
0380
0660
0FFC
300F
DFF3
0030
0020
0140
0180
0D9C
0DF0
19F0
319F
6787
C300
ENDCHAR
STARTCHAR 2c4e
ENCODING 11342
SWIDTH 362 0
DWIDTH 16 0
BBX 16 16 0 -2
BITMAP
2060
3023
13FF
0662
8860
4860
79FC
1064
3064
3044
60C4
E0C4
6184
6105
6307
2607
ENDCHAR
STARTCHAR 2c4f
ENCODING 11343
SWIDTH 362 0
DWIDTH 16 0
BBX 16 16 0 -2
BITMAP
2030
3013
13FF
0318
8B18
4B18
7B1B
1318
3318
3318
6318
E218
6218
6618
6418
2810
ENDCHAR
STARTCHAR 2c50
ENCODING 11344
SWIDTH 362 0
DWIDTH 16 0
BBX 16 16 0 -2
BITMAP
2030
3030
11FE
0026
8826
4826
7BFF
1020
3036
318E
608C
E058
6030
6078
618F
2703
ENDCHAR
STARTCHAR 2c51
ENCODING 11345
SWIDTH 362 0
DWIDTH 16 0
BBX 16 16 0 -2
BITMAP
2030
3030
1020
07FF
88A0
49A8
79AC
11A4
3124
3326
6326
E623
65FF
6820
6020
2020
ENDCHAR
STARTCHAR 2c52
ENCODING 11346
SWIDTH 362 0
DWIDTH 16 0
BBX 16 16 0 -2
BITMAP
2134
31B6
1126
0126
8FFF
4926
7926
1126
3126
3126
6126
E126
6126
6126
61FE
2104
ENDCHAR
STARTCHAR 2c53
ENCODING 11347
SWIDTH 362 0
DWIDTH 16 0
BBX 16 16 0 -2
BITMAP
2002
33FF
1020
0020
89A0
4926
7924
1124
3124
3124
63E4
E024
6024
6024
603D
2000
ENDCHAR
STARTCHAR 2c54
ENCODING 11348
SWIDTH 362 0
DWIDTH 16 0
BBX 16 16 0 -2
BITMAP
2000
33FF
1200
027E
8A18
4A18
7A18
13FF
3218
3218
6218
E618
6618
6418
6C18
2810
ENDCHAR
STARTCHAR 2c55
ENCODING 11349
SWIDTH 362 0
DWIDTH 16 0
BBX 16 16 0 -2
BITMAP
2006
33FE
1306
0306
8B06
4B06
7BFE
1200
3006
318E
608C
E058
6030
6078
618F
2703
ENDCHAR
STARTCHAR 2c56
ENCODING 11350
SWIDTH 362 0
DWIDTH 16 0
BBX 16 16 0 -2
BITMAP
2006
33FE
1306
0306
8B06
4B06
7B06
13FE
3030
3030
6020
E020
6020
6020
6033
2000
ENDCHAR
STARTCHAR 2c57
ENCODING 11351
SWIDTH 362 0
DWIDTH 16 0
BBX 16 16 0 -2
BITMAP
2030
3337
1326
03FE
8804
4BFC
7884
108C
308F
308F
6083
E183
6103
6303
661E
2C0C
ENDCHAR
STARTCHAR 2c58
ENCODING 11352
SWIDTH 362 0
DWIDTH 16 0
BBX 16 16 0 -2
BITMAP
2060
3060
12C3
0303
8A03
4AFF
7A4F
125B
323B
3233
627F
E2CF
6307
6203
621F
2206
ENDCHAR
STARTCHAR 2c59
ENCODING 11353
SWIDTH 362 0
DWIDTH 16 0
BBX 16 16 0 -2
BITMAP
200E
30F0
1330
0030
8830
4BF3
78FC
10F8
30B8
31BC
61B4
E136
6333
6633
61F0
2060
ENDCHAR
STARTCHAR 2c5a
ENCODING 11354
SWIDTH 362 0
DWIDTH 16 0
BBX 16 16 0 -2
BITMAP
2030
3070
1078
00CC
8986
4B07
7E63
1022
37FE
3100
6100
E100
6100
6100
61FE
21FE
ENDCHAR
STARTCHAR 2c5b
ENCODING 11355
SWIDTH 362 0
DWIDTH 16 0
BBX 16 16 0 -2
BITMAP
2008
31FC
118C
018C
8984
4906
7B03
1603
3004
33FE
6306
E306
6306
6306
63FE
2304
ENDCHAR
STARTCHAR 2c5c
ENCODING 11356
SWIDTH 362 0
DWIDTH 16 0
BBX 16 16 0 -2
BITMAP
2030
3070
1070
00C8
888C
4937
7A33
1420
3124
3326
6323
E623
6C21
6020
61E0
2060
ENDCHAR
STARTCHAR 2c5d
ENCODING 11357
SWIDTH 362 0
DWIDTH 16 0
BBX 16 16 0 -2
BITMAP
0180
218C
3998
1BD0
0660
0C38
300F
E003
181C
1818
1A1B
1818
1018
3018
6018
C018
ENDCHAR
STARTCHAR 2c5e
ENCODING 11358
SWIDTH 362 0
DWIDTH 16 0
BBX 16 16 0 -2
BITMAP
0002
FFFF
0184
7FFE
6184
6184
619C
0108
0100
0180
318C
1B98
0E60
0C30
181F
E007
ENDCHAR
STARTCHAR 2c5f
ENCODING 11359
SWIDTH 362 0
DWIDTH 16 0
BBX 16 16 0 -2
BITMAP
0300
0306
3FFC
0318
0373
01C0
0300
0D80
3180
E18C
1B90
0BC0
0660
0C38
300F
E007
ENDCHAR
STARTCHAR 2c60
ENCODING 11360
SWIDTH 362 0
DWIDTH 16 0
BBX 16 16 0 -2
BITMAP
198C
1198
3336
3318
1988
088C
0000
0180
0180
218C
1B90
0BC0
0660
0C38
300F
E007
ENDCHAR
STARTCHAR 2c61
ENCODING 11361
SWIDTH 362 0
DWIDTH 16 0
BBX 16 16 0 -2
BITMAP
0E02
7E7F
5E02
5EFE
5EC0
5EFF
5EE3
5E36
5E1C
5E1C
5A37
5BC3
5980
D9C0
987F
903E
ENDCHAR
STARTCHAR 2c62
ENCODING 11362
SWIDTH 362 0
DWIDTH 16 0
BBX 16 16 0 -2
BITMAP
0E30
7E3F
5E63
5EC2
5E1E
5E04
5E7E
5E26
5E1C
5E1C
5A3E
5B67
5980
D9C0
987F
903E
ENDCHAR
STARTCHAR 2c63
ENCODING 11363
SWIDTH 362 0
DWIDTH 16 0
BBX 16 16 0 -2
BITMAP
00F8
7F80
010C
3188
1090
7FFE
0006
0026
7FF6
0006
0046
3FE6
0006
0037
7FF3
0001
ENDCHAR
STARTCHAR 2c64
ENCODING 11364
SWIDTH 362 0
DWIDTH 16 0
BBX 16 16 0 -2
BITMAP
0180
0184
7FFE
0180
7FFF
C003
9818
300C
6836
4420
0640
0380
01C0
06E0
0C3F
700F
ENDCHAR
STARTCHAR 2c65
ENCODING 11365
SWIDTH 362 0
DWIDTH 16 0
BBX 16 16 0 -2
BITMAP
0C18
180E
6C72
C3C0
03F0
0E3F
7007
7FFE
0C30
0C30
0C33
0C30
0830
1830
3030
6030
ENDCHAR
STARTCHAR 2c66
ENCODING 11366
SWIDTH 362 0
DWIDTH 16 0
BBX 16 16 0 -2
BITMAP
4C02
6DFF
4C02
4C02
4C02
FDFE
0C00
0DFF
7C83
4CC6
4C64
4C38
4C38
CC3C
CCC7
8F83
ENDCHAR
STARTCHAR 2c67
ENCODING 11367
SWIDTH 362 0
DWIDTH 16 0
BBX 16 16 0 -2
BITMAP
4CC7
6CC6
4C86
4C86
4CC6
FCC6
0C80
0C82
7CFF
4C83
4C82
4C82
4D82
CD82
CD02
8E02
ENDCHAR
STARTCHAR 2c68
ENCODING 11368
SWIDTH 362 0
DWIDTH 16 0
BBX 16 16 0 -2
BITMAP
4C02
6DFF
4C02
4C02
4C02
4DFE
4000
41FF
7C83
4CC6
4C64
4C38
CC38
CC3C
8CC7
8F83
ENDCHAR
STARTCHAR 2c69
ENCODING 11369
SWIDTH 362 0
DWIDTH 16 0
BBX 16 16 0 -2
BITMAP
4C02
6DFF
4C10
4C30
4C30
4C70
40F4
40F2
7DB3
4F31
4E30
4C30
CC30
CC30
8C30
8C30
ENDCHAR
STARTCHAR 2c6a
ENCODING 11370
SWIDTH 362 0
DWIDTH 16 0
BBX 16 16 0 -2
BITMAP
4CC0
6CC0
4CC3
4C83
4D03
4E63
4063
4043
7CDB
4DFB
4D8B
4C03
CC03
CC06
8C7E
8C0C
ENDCHAR
STARTCHAR 2c6b
ENCODING 11371
SWIDTH 362 0
DWIDTH 16 0
BBX 16 16 0 -2
BITMAP
4C18
6C48
4CCC
4CC4
4C86
4D03
43FF
4066
7C66
4C66
4C46
4CC6
CCC6
CC84
8D7C
8E18
ENDCHAR
STARTCHAR 2c6c
ENCODING 11372
SWIDTH 362 0
DWIDTH 16 0
BBX 16 16 0 -2
BITMAP
1918
D198
D118
D118
FD18
9118
91FF
1118
3D18
F118
D118
1118
1119
1179
11DF
118F
ENDCHAR
STARTCHAR 2c6d
ENCODING 11373
SWIDTH 362 0
DWIDTH 16 0
BBX 16 16 0 -2
BITMAP
1830
5830
5830
5C30
7FFF
D830
9830
1878
1C7C
F8FC
D9B6
1933
1A33
1830
1830
1030
ENDCHAR
STARTCHAR 2c6e
ENCODING 11374
SWIDTH 362 0
DWIDTH 16 0
BBX 16 16 0 -2
BITMAP
1802
5BFF
5810
5C30
7E30
D870
98F4
18F2
1DB3
FB33
DA31
1830
1830
1830
1830
1030
ENDCHAR
STARTCHAR 2c6f
ENCODING 11375
SWIDTH 362 0
DWIDTH 16 0
BBX 16 16 0 -2
BITMAP
1800
59FF
5818
5C30
7E60
D8C2
9986
19CC
1C78
F838
D830
1864
18C2
199F
19E1
1101
ENDCHAR
STARTCHAR 2c70
ENCODING 11376
SWIDTH 362 0
DWIDTH 16 0
BBX 16 16 0 -2
BITMAP
1830
5830
5820
5C3F
7E20
D820
9836
1986
1C86
F88C
D84C
1878
1830
187C
198F
1F03
ENDCHAR
STARTCHAR 2c71
ENCODING 11377
SWIDTH 362 0
DWIDTH 16 0
BBX 16 16 0 -2
BITMAP
180E
59F8
5980
5D80
7F80
D9FF
9984
1984
1D84
F984
D984
1984
1984
1904
1B04
1604
ENDCHAR
STARTCHAR 2c72
ENCODING 11378
SWIDTH 362 0
DWIDTH 16 0
BBX 16 16 0 -2
BITMAP
080E
59F0
3010
3010
5010
9910
1990
199F
3990
6990
C990
0990
0990
1990
79B3
3000
ENDCHAR
STARTCHAR 2c73
ENCODING 11379
SWIDTH 362 0
DWIDTH 16 0
BBX 16 16 0 -2
BITMAP
6018
601B
601B
7F18
5B1B
DE18
9818
1818
1838
1C3C
3424
3664
2366
43C2
C183
8103
ENDCHAR
STARTCHAR 2c74
ENCODING 11380
SWIDTH 362 0
DWIDTH 16 0
BBX 16 16 0 -2
BITMAP
0820
5833
33FF
3662
5060
9860
19FC
1864
3864
6844
C8C4
08C4
0984
1905
7B07
3607
ENDCHAR
STARTCHAR 2c75
ENCODING 11381
SWIDTH 362 0
DWIDTH 16 0
BBX 16 16 0 -2
BITMAP
0860
5830
3033
3070
5060
9844
18CC
198C
39D8
6870
C830
0860
08C6
1887
7BFB
3181
ENDCHAR
STARTCHAR 2c76
ENCODING 11382
SWIDTH 362 0
DWIDTH 16 0
BBX 16 16 0 -2
BITMAP
081E
5BE0
3303
3303
5303
9BFF
1B00
1B7E
3B06
6B08
CB10
0B20
0B40
1AC1
7EFF
347F
ENDCHAR
STARTCHAR 2c77
ENCODING 11383
SWIDTH 362 0
DWIDTH 16 0
BBX 16 16 0 -2
BITMAP
08C8
58C4
3086
3083
53FF
9884
18C6
18E6
39A4
69AC
C99C
0918
0B18
1A2C
7C47
3183
ENDCHAR
STARTCHAR 2c78
ENCODING 11384
SWIDTH 362 0
DWIDTH 16 0
BBX 16 16 0 -2
BITMAP
0800
5902
31FF
3132
5132
9932
1932
1932
39FE
6932
C932
0932
0932
1932
79FE
3100
ENDCHAR
STARTCHAR 2c79
ENCODING 11385
SWIDTH 362 0
DWIDTH 16 0
BBX 16 16 0 -2
BITMAP
0830
5830
3030
3033
503F
9830
1830
1830
3936
6903
C902
0902
0902
1902
79FE
3102
ENDCHAR
STARTCHAR 2c7a
ENCODING 11386
SWIDTH 362 0
DWIDTH 16 0
BBX 16 16 0 -2
BITMAP
0830
5860
30C4
3186
53FF
9B03
188C
18CC
388C
6FFF
C88C
088C
098C
198C
790C
320C
ENDCHAR
STARTCHAR 2c7b
ENCODING 11387
SWIDTH 362 0
DWIDTH 16 0
BBX 16 16 0 -2
BITMAP
0806
583E
31E0
3020
5030
9806
19FE
180C
3818
6830
C860
08C0
0980
1B80
7AFF
303E
ENDCHAR
STARTCHAR 2c7c
ENCODING 11388
SWIDTH 362 0
DWIDTH 16 0
BBX 16 16 0 -2
BITMAP
11C7
D986
7186
6106
F37F
1306
1F26
3D36
3916
5906
9906
1906
1906
1906
F11E
210C
ENDCHAR
STARTCHAR 2c7d
ENCODING 11389
SWIDTH 362 0
DWIDTH 16 0
BBX 16 16 0 -2
BITMAP
11C6
D986
7186
617F
F306
130E
1F0E
3D1E
3916
5936
9926
1966
19C6
1906
F13E
210C
ENDCHAR
STARTCHAR 2c7e
ENCODING 11390
SWIDTH 362 0
DWIDTH 16 0
BBX 16 16 0 -2
BITMAP
09C0
5980
3180
31FF
5310
9A10
1810
1994
3992
6913
CB11
0E10
0810
1810
78F0
3020
ENDCHAR
STARTCHAR 2d21
ENCODING 11553
SWIDTH 362 0
DWIDTH 16 0
BBX 16 16 0 -2
BITMAP
0004
0DFE
FC46
3046
3046
3046
3846
31FF
30C6
30C6
30C6
3CC6
F0C6
C0C6
00C7
0000
ENDCHAR
STARTCHAR 2d22
ENCODING 11554
SWIDTH 362 0
DWIDTH 16 0
BBX 16 16 0 -2
BITMAP
0002
0DFF
FD90
3190
3110
3110
3BFF
3030
3038
3038
3078
3CD8
F0D8
C199
031F
0C0F
ENDCHAR
STARTCHAR 2d23
ENCODING 11555
SWIDTH 362 0
DWIDTH 16 0
BBX 16 16 0 -2
BITMAP
0000
0DFF
FC18
3030
3060
30C2
3986
31CC
3078
3038
3030
3C64
F0C2
C19F
03F1
0101
ENDCHAR
STARTCHAR 2d24
ENCODING 11556
SWIDTH 362 0
DWIDTH 16 0
BBX 16 16 0 -2
BITMAP
0002
0DFF
FD82
3182
31B2
319E
3982
3182
318E
31FA
31E2
3D82
F302
C302
061E
0C06
ENDCHAR
STARTCHAR 2d25
ENCODING 11557
SWIDTH 362 0
DWIDTH 16 0
BBX 16 16 0 -2
BITMAP
001E
0DF6
FD26
3126
3126
3126
3926
3126
3126
3126
3326
3F22
F222
C623
0423
0821
ENDCHAR
STARTCHAR 2d26
ENCODING 11558
SWIDTH 362 0
DWIDTH 16 0
BBX 16 16 0 -2
BITMAP
000F
3DF6
71B6
11B6
11B6
11B6
FFB6
11B6
11B6
11B6
11A2
1762
1D4B
1BDF
02E7
0641
ENDCHAR
STARTCHAR 2d27
ENCODING 11559
SWIDTH 362 0
DWIDTH 16 0
BBX 16 16 0 -2
BITMAP
3002
33FF
3080
3080
FCCE
3186
3186
31A6
31B6
3194
3184
3D84
7184
E195
03E7
0307
ENDCHAR
STARTCHAR 2d28
ENCODING 11560
SWIDTH 362 0
DWIDTH 16 0
BBX 16 16 0 -2
BITMAP
000C
0180
0180
FFFF
0180
0180
0180
1918
181B
1818
1818
1FF8
1818
1818
1818
1810
ENDCHAR
STARTCHAR 2d29
ENCODING 11561
SWIDTH 362 0
DWIDTH 16 0
BBX 16 16 0 -2
BITMAP
1070
1864
5866
5A66
FE67
D866
9846
18C4
7ECC
188C
19C8
1838
183C
FC66
E0C3
0301
ENDCHAR
STARTCHAR 2d2a
ENCODING 11562
SWIDTH 362 0
DWIDTH 16 0
BBX 16 16 0 -2
BITMAP
0300
0602
7FFE
1818
300F
E183
3180
2184
3FFE
6180
4188
3FFC
0180
0180
0186
0000
ENDCHAR
STARTCHAR 2d2b
ENCODING 11563
SWIDTH 362 0
DWIDTH 16 0
BBX 16 16 0 -2
BITMAP
0180
7186
6184
7FFC
0000
7FFE
6184
6184
7FFC
6184
618C
618C
6184
6184
41BC
8108
ENDCHAR
STARTCHAR 2d2c
ENCODING 11564
SWIDTH 362 0
DWIDTH 16 0
BBX 16 16 0 -2
BITMAP
3180
3380
6640
FC30
181C
7FFF
B188
3188
3FF8
3188
3188
3FF8
3188
2188
6188
C118
ENDCHAR
STARTCHAR 2d2d
ENCODING 11565
SWIDTH 362 0
DWIDTH 16 0
BBX 16 16 0 -2
BITMAP
2104
6186
61B4
6184
6184
7FFC
6104
6184
61BC
618C
6184
7FFC
6184
4184
C184
8104
ENDCHAR
STARTCHAR 2d2e
ENCODING 11566
SWIDTH 362 0
DWIDTH 16 0
BBX 16 16 0 -2
BITMAP
2104
6186
6134
6104
6104
7FFC
6104
6184
61BC
618C
6184
7FFC
6184
4184
C184
8104
ENDCHAR
STARTCHAR 2d2f
ENCODING 11567
SWIDTH 362 0
DWIDTH 16 0
BBX 16 16 0 -2
BITMAP
0002
04FF
FE83
D683
D683
D683
D6FF
FE82
D680
D680
D680
D780
FF80
8100
0300
0600
ENDCHAR
STARTCHAR 2d30
ENCODING 11568
SWIDTH 362 0
DWIDTH 16 0
BBX 16 16 0 -2
BITMAP
0060
0460
FE63
D6C0
D680
D702
D6FF
FE06
D60C
D618
D630
D660
FEC1
8181
01FF
00FF
ENDCHAR
STARTCHAR 2d31
ENCODING 11569
SWIDTH 362 0
DWIDTH 16 0
BBX 16 16 0 -2
BITMAP
0300
0183
FFFF
2000
2000
3FFC
3FFE
0000
7FFC
6184
6184
7FFC
6184
6184
618C
600C
ENDCHAR
STARTCHAR 2d32
ENCODING 11570
SWIDTH 362 0
DWIDTH 16 0
BBX 16 16 0 -2
BITMAP
000C
000C
7FFC
0004
3FFC
0004
7FFE
6184
7FFC
6184
618C
618C
0180
0180
0180
0100
ENDCHAR
STARTCHAR 2d33
ENCODING 11571
SWIDTH 362 0
DWIDTH 16 0
BBX 16 16 0 -2
BITMAP
0004
7FFE
6184
7FFC
6184
6184
7FFC
0003
FFFF
3000
300E
3000
2000
2002
3FFE
1FFE
ENDCHAR
STARTCHAR 2d34
ENCODING 11572
SWIDTH 362 0
DWIDTH 16 0
BBX 16 16 0 -2
BITMAP
0000
7FFE
4006
4036
5FFE
5996
5996
5FF6
5996
5996
5996
5FF6
4006
4006
7FFE
4000
ENDCHAR
STARTCHAR 2d35
ENCODING 11573
SWIDTH 362 0
DWIDTH 16 0
BBX 16 16 0 -2
BITMAP
0080
20C3
3FFF
A000
FFFF
E318
2318
2318
6318
E318
6318
6218
6618
4419
CC1F
980F
ENDCHAR
STARTCHAR 2d36
ENCODING 11574
SWIDTH 362 0
DWIDTH 16 0
BBX 16 16 0 -2
BITMAP
0080
20C3
3FFF
A100
E318
E318
2210
2630
6DE0
EC70
60D0
6090
6110
4211
C41F
981F
ENDCHAR
STARTCHAR 2d37
ENCODING 11575
SWIDTH 362 0
DWIDTH 16 0
BBX 16 16 0 -2
BITMAP
1860
1840
1842
7EFF
5EC3
5883
5943
7E33
4613
6403
5C03
CC03
9603
A206
403E
000C
ENDCHAR
STARTCHAR 2d38
ENCODING 11576
SWIDTH 362 0
DWIDTH 16 0
BBX 16 16 0 -2
BITMAP
0218
7E18
1818
18FF
189B
189A
1A98
18FF
18A6
18A6
18B4
199C
1998
193C
1B67
13C3
ENDCHAR
STARTCHAR 2d39
ENCODING 11577
SWIDTH 362 0
DWIDTH 16 0
BBX 16 16 0 -2
BITMAP
6018
6018
6418
7EFF
C69B
869A
4698
36FF
16A6
06A6
06B4
069C
0798
053C
7D67
1BC3
ENDCHAR
STARTCHAR 2d3a
ENCODING 11578
SWIDTH 362 0
DWIDTH 16 0
BBX 16 16 0 -2
BITMAP
000C
0000
0002
FFFF
3004
3FFE
0004
000C
001C
0078
0000
3FFC
364C
3648
36CF
0000
ENDCHAR
STARTCHAR 2d3b
ENCODING 11579
SWIDTH 362 0
DWIDTH 16 0
BBX 16 16 0 -2
BITMAP
0008
3FFC
1802
7FFF
1004
3FFE
0004
000C
001C
0078
0000
3FFC
364C
3648
36CF
0000
ENDCHAR
STARTCHAR 2d3c
ENCODING 11580
SWIDTH 362 0
DWIDTH 16 0
BBX 16 16 0 -2
BITMAP
0002
FDFF
CC40
C8C0
C8C3
F8C0
C880
C982
C9FF
C802
C802
C802
C806
C806
007C
0018
ENDCHAR
STARTCHAR 2d3d
ENCODING 11581
SWIDTH 362 0
DWIDTH 16 0
BBX 16 16 0 -2
BITMAP
0002
FDFE
CC00
C800
C803
F980
C980
C902
CBFF
C802
C802
C802
C806
C806
007C
0018
ENDCHAR
STARTCHAR 2d3e
ENCODING 11582
SWIDTH 362 0
DWIDTH 16 0
BBX 16 16 0 -2
BITMAP
0018
FD90
CD90
C990
C9BF
FFB3
C993
C992
C992
C994
C990
C980
C981
C981
01FF
00FF
ENDCHAR
STARTCHAR 2d3f
ENCODING 11583
SWIDTH 362 0
DWIDTH 16 0
BBX 16 16 0 -2
BITMAP
0070
FC60
CC60
C840
C8C0
F898
C990
C930
CB20
CE60
C840
C8C4
C882
C99F
03E3
0101
ENDCHAR
STARTCHAR 2d40
ENCODING 11584
SWIDTH 362 0
DWIDTH 16 0
BBX 16 16 0 -2
BITMAP
0040
FCC0
CDFC
C984
C984
F984
C984
C984
C984
C984
C984
C904
CB04
CB05
0607
0C07
ENDCHAR
STARTCHAR 2d41
ENCODING 11585
SWIDTH 362 0
DWIDTH 16 0
BBX 16 16 0 -2
BITMAP
0180
1990
318C
2186
4182
8100
1FF8
1018
1018
1FF8
1018
1018
1FF8
1018
1018
1018
ENDCHAR
STARTCHAR 2d42
ENCODING 11586
SWIDTH 362 0
DWIDTH 16 0
BBX 16 16 0 -2
BITMAP
0008
3FFC
3008
3FF8
3008
3FF8
3008
3FF8
0018
FFFF
0010
1810
0C10
0010
01F0
0020
ENDCHAR
STARTCHAR 2d43
ENCODING 11587
SWIDTH 362 0
DWIDTH 16 0
BBX 16 16 0 -2
BITMAP
0008
3FFC
3008
3FF8
3008
3FF8
3008
3FF8
1C70
1860
1860
1860
1860
1F61
F87F
C03F
ENDCHAR
STARTCHAR 2d44
ENCODING 11588
SWIDTH 362 0
DWIDTH 16 0
BBX 16 16 0 -2
BITMAP
0180
0106
7FFE
0210
1FF8
1818
1818
1FF8
1818
1818
1FF8
1818
1818
1010
0003
0000
ENDCHAR
STARTCHAR 2d45
ENCODING 11589
SWIDTH 362 0
DWIDTH 16 0
BBX 16 16 0 -2
BITMAP
00C0
00C3
FFFF
0180
77FC
660C
660C
67FC
660C
660C
67FC
660C
660C
6408
6003
6000
ENDCHAR
STARTCHAR 2d46
ENCODING 11590
SWIDTH 362 0
DWIDTH 16 0
BBX 16 16 0 -2
BITMAP
00C0
FCC0
20C3
20C3
6083
6103
7C03
EDFF
EC03
EC03
6C03
6C03
7C03
6806
403E
000C
ENDCHAR
STARTCHAR 2d47
ENCODING 11591
SWIDTH 362 0
DWIDTH 16 0
BBX 16 16 0 -2
BITMAP
0030
FC30
204C
2087
63C3
60C0
7C80
ED86
EDFE
EC06
6C06
6C06
7C06
6806
407C
0018
ENDCHAR
STARTCHAR 2d48
ENCODING 11592
SWIDTH 362 0
DWIDTH 16 0
BBX 16 16 0 -2
BITMAP
30C0
10C2
04C7
7ECC
0CF0
18C0
10C0
38E0
74D8
D4CE
90C6
10C2
10C1
10C1
10FF
107F
ENDCHAR
STARTCHAR 2d49
ENCODING 11593
SWIDTH 362 0
DWIDTH 16 0
BBX 16 16 0 -2
BITMAP
1C70
786C
1066
1062
FE63
3060
3860
3C60
7420
7430
D030
9010
1019
100D
1007
1003
ENDCHAR
STARTCHAR 2d4a
ENCODING 11594
SWIDTH 362 0
DWIDTH 16 0
BBX 16 16 0 -2
BITMAP
1CC0
78C0
10C3
10F3
FFA3
3123
3823
3C23
7423
7463
D063
9043
10C3
1186
113E
160C
ENDCHAR
STARTCHAR 2d4b
ENCODING 11595
SWIDTH 362 0
DWIDTH 16 0
BBX 16 16 0 -2
BITMAP
0180
4083
7FFF
C462
8C60
183E
603E
1C18
1810
FFFF
1810
1810
1810
3010
6010
C010
ENDCHAR
STARTCHAR 2d4c
ENCODING 11596
SWIDTH 362 0
DWIDTH 16 0
BBX 16 16 0 -2
BITMAP
0180
4083
7FFF
C462
8C60
183E
601E
3FFC
2000
2000
2004
3FFC
2000
2000
300E
3000
ENDCHAR
STARTCHAR 2d4d
ENCODING 11597
SWIDTH 362 0
DWIDTH 16 0
BBX 16 16 0 -2
BITMAP
0300
7FFF
C663
8C7E
183E
6000
1FF0
0070
00C0
0180
FFFF
0180
0180
0180
0F80
0300
ENDCHAR
STARTCHAR 2d4e
ENCODING 11598
SWIDTH 362 0
DWIDTH 16 0
BBX 16 16 0 -2
BITMAP
0300
7FFF
C663
8C62
1A3E
6600
0618
7FF8
0618
0E18
0718
05D8
0CD8
1819
301F
C00F
ENDCHAR
STARTCHAR 2d4f
ENCODING 11599
SWIDTH 362 0
DWIDTH 16 0
BBX 16 16 0 -2
BITMAP
0300
7FFF
C663
8C7E
193E
6198
03FC
3F00
0100
0102
7FFE
0100
0100
0101
01FF
01FE
ENDCHAR
STARTCHAR 2d50
ENCODING 11600
SWIDTH 362 0
DWIDTH 16 0
BBX 16 16 0 -2
BITMAP
3060
3FFF
6CC8
C58C
8004
7FFE
6006
6006
6006
6006
6006
6006
6006
6006
603E
600C
ENDCHAR
STARTCHAR 2d51
ENCODING 11601
SWIDTH 362 0
DWIDTH 16 0
BBX 16 16 0 -2
BITMAP
0006
0306
0306
3336
1B36
0F66
0FC6
7FFF
0B46
1B66
1336
231E
430E
0306
0306
0006
ENDCHAR
STARTCHAR 2d52
ENCODING 11602
SWIDTH 362 0
DWIDTH 16 0
BBX 16 16 0 -2
BITMAP
3030
3030
21B0
6930
4D30
D930
7130
3130
6930
FDF0
C330
0830
BC31
B431
803F
001F
ENDCHAR
STARTCHAR 2d53
ENCODING 11603
SWIDTH 362 0
DWIDTH 16 0
BBX 16 16 0 -2
BITMAP
4004
7FFE
6666
6666
7FFE
4100
0180
0180
0180
3FFC
0180
0180
0180
0180
FFFF
0000
ENDCHAR
STARTCHAR 2d54
ENCODING 11604
SWIDTH 362 0
DWIDTH 16 0
BBX 16 16 0 -2
BITMAP
4004
7FFE
6666
6666
7FFE
4180
0180
0182
7FFF
0180
03C0
0360
0630
0C1C
380F
6006
ENDCHAR
STARTCHAR 2d55
ENCODING 11605
SWIDTH 362 0
DWIDTH 16 0
BBX 16 16 0 -2
BITMAP
0180
03C0
0660
0C30
181C
3837
4662
FFFC
0180
018C
3FFC
0180
0183
0180
0180
0100
ENDCHAR
STARTCHAR 2d56
ENCODING 11606
SWIDTH 362 0
DWIDTH 16 0
BBX 16 16 0 -2
BITMAP
1018
0C30
0662
7FFE
0180
0184
3FFC
0180
0183
03C0
07C0
0DB0
199C
318F
E182
0100
ENDCHAR
STARTCHAR 2d57
ENCODING 11607
SWIDTH 362 0
DWIDTH 16 0
BBX 16 16 0 -2
BITMAP
0202
7F7F
0E0E
1A1A
3232
4646
0E0E
1A1A
3232
4646
0E0E
1A1A
3232
6262
0E0E
0606
ENDCHAR
STARTCHAR 2d58
ENCODING 11608
SWIDTH 362 0
DWIDTH 16 0
BBX 16 16 0 -2
BITMAP
0300
032C
3FFC
0333
7FFF
0380
0FFC
7C00
CFFE
07FE
0C20
0C30
0C20
0C21
183F
701E
ENDCHAR
STARTCHAR 2d59
ENCODING 11609
SWIDTH 362 0
DWIDTH 16 0
BBX 16 16 0 -2
BITMAP
0083
FFC3
181A
1012
FF92
D792
D792
D792
D792
D792
D792
D792
D782
D782
D79E
C186
ENDCHAR
STARTCHAR 2d5a
ENCODING 11610
SWIDTH 362 0
DWIDTH 16 0
BBX 16 16 0 -2
BITMAP
3002
31FF
2020
2166
FDFE
25FE
25FE
25FE
25FE
25FE
25FE
65FE
6587
4401
C7FF
87FF
ENDCHAR
STARTCHAR 2d5b
ENCODING 11611
SWIDTH 362 0
DWIDTH 16 0
BBX 16 16 0 -2
BITMAP
1006
1CFE
7C86
1086
3486
3086
1086
FE86
3086
3C86
7486
769C
D080
9080
1080
1080
ENDCHAR
STARTCHAR 2d5c
ENCODING 11612
SWIDTH 362 0
DWIDTH 16 0
BBX 16 16 0 -2
BITMAP
0180
03F8
1F80
0180
3FFC
0182
7FFF
0180
0100
0180
0183
0180
1990
398C
6186
C102
ENDCHAR
STARTCHAR 2d5d
ENCODING 11613
SWIDTH 362 0
DWIDTH 16 0
BBX 16 16 0 -2
BITMAP
0300
01C0
0360
0630
0C18
180E
3FFF
C423
0420
0420
0420
07E0
0420
FFFF
0020
0020
ENDCHAR
STARTCHAR 2d5e
ENCODING 11614
SWIDTH 362 0
DWIDTH 16 0
BBX 16 16 0 -2
BITMAP
3002
31FF
20C4
20C4
FCFC
24C4
24CC
24CC
24C4
25FF
2404
6404
6405
4401
C7FF
87FF
ENDCHAR
STARTCHAR 2d5f
ENCODING 11615
SWIDTH 362 0
DWIDTH 16 0
BBX 16 16 0 -2
BITMAP
1030
1430
7E30
1630
37FF
3633
1633
7C33
1033
7E23
1023
1263
FE43
10C3
119E
130C
ENDCHAR
STARTCHAR 2d60
ENCODING 11616
SWIDTH 362 0
DWIDTH 16 0
BBX 16 16 0 -2
BITMAP
4002
7FFF
C102
8180
4186
7FFE
63C6
6266
64B6
7986
61C6
6366
6636
7816
601E
400C
ENDCHAR
STARTCHAR 2d61
ENCODING 11617
SWIDTH 362 0
DWIDTH 16 0
BBX 16 16 0 -2
BITMAP
0038
0C38
0670
03C0
03F0
0E1F
39C6
9FFC
11C4
1324
16DC
19EC
1334
1614
101C
1008
ENDCHAR
STARTCHAR 2d62
ENCODING 11618
SWIDTH 362 0
DWIDTH 16 0
BBX 16 16 0 -2
BITMAP
081E
7DE0
4980
4983
69FF
5983
4983
49FF
5980
7980
4980
4900
C900
CB00
BA00
9E00
ENDCHAR
STARTCHAR 2d63
ENCODING 11619
SWIDTH 362 0
DWIDTH 16 0
BBX 16 16 0 -2
BITMAP
0804
7DFE
4806
4806
69FE
5980
4906
4BFE
5806
7806
4806
4806
C87C
C808
B803
9800
ENDCHAR
STARTCHAR 2d64
ENCODING 11620
SWIDTH 362 0
DWIDTH 16 0
BBX 16 16 0 -2
BITMAP
0800
7FFF
4840
4840
68C4
58FE
48C6
4886
5884
7984
49FC
480C
C80C
C808
B80F
9800
ENDCHAR
STARTCHAR 2d65
ENCODING 11621
SWIDTH 362 0
DWIDTH 16 0
BBX 16 16 0 -2
BITMAP
0802
7DFF
4830
4830
6864
5846
48CC
498C
58F8
7830
4830
4864
C8C2
C89F
B9E3
9981
ENDCHAR
STARTCHAR 2d66
ENCODING 11622
SWIDTH 362 0
DWIDTH 16 0
BBX 16 16 0 -2
BITMAP
0884
7CFE
4886
4886
6886
5BFF
4886
4886
5886
7BFF
4886
4986
C986
C906
BB1E
9E0C
ENDCHAR
STARTCHAR 2d67
ENCODING 11623
SWIDTH 362 0
DWIDTH 16 0
BBX 16 16 0 -2
BITMAP
0830
7C20
4836
4830
6820
59FE
4926
4926
5926
7926
493E
492C
C821
C821
B83F
981F
ENDCHAR
STARTCHAR 2d68
ENCODING 11624
SWIDTH 362 0
DWIDTH 16 0
BBX 16 16 0 -2
BITMAP
0988
7D98
4998
4998
699C
59B6
49E3
49C1
5982
79FF
4980
4980
C980
C980
B9FF
9800
ENDCHAR
STARTCHAR 2d69
ENCODING 11625
SWIDTH 362 0
DWIDTH 16 0
BBX 16 16 0 -2
BITMAP
0180
0083
FFFF
0E00
1818
3FFC
1004
0FF8
1818
19D8
1878
1878
1FD8
3618
2078
4030
ENDCHAR
STARTCHAR 2d6a
ENCODING 11626
SWIDTH 362 0
DWIDTH 16 0
BBX 16 16 0 -2
BITMAP
0100
7FFF
0830
0660
03C0
03E0
0C3F
781F
9FF8
1B98
18D8
1878
1FD8
1618
3078
6030
ENDCHAR
STARTCHAR 2d6b
ENCODING 11627
SWIDTH 362 0
DWIDTH 16 0
BBX 16 16 0 -2
BITMAP
01C0
0180
318E
1BD8
0670
0C1C
3007
DFF8
1818
1998
1818
18F8
1F98
1218
3078
6030
ENDCHAR
STARTCHAR 2d6c
ENCODING 11628
SWIDTH 362 0
DWIDTH 16 0
BBX 16 16 0 -2
BITMAP
007C
3FC0
0106
7FFE
0660
0C38
181F
7FFE
D818
1998
1818
18F8
1F98
1218
3078
6030
ENDCHAR
STARTCHAR 2d6d
ENCODING 11629
SWIDTH 362 0
DWIDTH 16 0
BBX 16 16 0 -2
BITMAP
0008
37FC
260C
260C
27FC
2003
3FFF
0008
1FFC
1988
18C8
1828
1FC8
1608
3078
6018
ENDCHAR
STARTCHAR 2d6e
ENCODING 11630
SWIDTH 362 0
DWIDTH 16 0
BBX 16 16 0 -2
BITMAP
3036
3474
23C4
21E4
2634
2C14
3FFC
1008
1FF8
1B98
18D8
1878
17D8
3618
2078
4030
ENDCHAR
STARTCHAR 2d6f
ENCODING 11631
SWIDTH 362 0
DWIDTH 16 0
BBX 16 16 0 -2
BITMAP
1800
1FFC
136C
224C
44CC
198C
0378
0010
1FF8
1B18
19D8
1878
1FD8
1618
3078
6030
ENDCHAR
STARTCHAR 2d70
ENCODING 11632
SWIDTH 362 0
DWIDTH 16 0
BBX 16 16 0 -2
BITMAP
0002
1FFF
0080
77FC
660C
6608
67F8
6608
6608
67F8
6608
6608
67F8
6000
6003
6000
ENDCHAR
STARTCHAR 2d71
ENCODING 11633
SWIDTH 362 0
DWIDTH 16 0
BBX 16 16 0 -2
BITMAP
300C
346C
33CC
31EC
333C
341C
37EC
300C
3FFC
0100
0180
018C
3FFC
0180
0182
FFFF
ENDCHAR
STARTCHAR 2d72
ENCODING 11634
SWIDTH 362 0
DWIDTH 16 0
BBX 16 16 0 -2
BITMAP
0038
0C38
0670
03C0
03F0
0E1F
3806
FFFC
0620
0C30
1FF8
1988
0198
0180
0182
7FFE
ENDCHAR
ENDFONT
